%TF.GenerationSoftware,KiCad,Pcbnew,8.0.8*%
%TF.CreationDate,2025-02-21T13:51:55-05:00*%
%TF.ProjectId,TPI_v1,5450495f-7631-42e6-9b69-6361645f7063,rev?*%
%TF.SameCoordinates,Original*%
%TF.FileFunction,Legend,Top*%
%TF.FilePolarity,Positive*%
%FSLAX46Y46*%
G04 Gerber Fmt 4.6, Leading zero omitted, Abs format (unit mm)*
G04 Created by KiCad (PCBNEW 8.0.8) date 2025-02-21 13:51:55*
%MOMM*%
%LPD*%
G01*
G04 APERTURE LIST*
%ADD10C,0.150000*%
%ADD11C,0.120000*%
%TA.AperFunction,Profile*%
%ADD12C,0.200000*%
%TD*%
G04 APERTURE END LIST*
D10*
X149983266Y-54595019D02*
X149983266Y-55309304D01*
X149983266Y-55309304D02*
X149935647Y-55452161D01*
X149935647Y-55452161D02*
X149840409Y-55547400D01*
X149840409Y-55547400D02*
X149697552Y-55595019D01*
X149697552Y-55595019D02*
X149602314Y-55595019D01*
X150983266Y-55595019D02*
X150411838Y-55595019D01*
X150697552Y-55595019D02*
X150697552Y-54595019D01*
X150697552Y-54595019D02*
X150602314Y-54737876D01*
X150602314Y-54737876D02*
X150507076Y-54833114D01*
X150507076Y-54833114D02*
X150411838Y-54880733D01*
X155716895Y-97099619D02*
X155716895Y-97909142D01*
X155716895Y-97909142D02*
X155764514Y-98004380D01*
X155764514Y-98004380D02*
X155812133Y-98052000D01*
X155812133Y-98052000D02*
X155907371Y-98099619D01*
X155907371Y-98099619D02*
X156097847Y-98099619D01*
X156097847Y-98099619D02*
X156193085Y-98052000D01*
X156193085Y-98052000D02*
X156240704Y-98004380D01*
X156240704Y-98004380D02*
X156288323Y-97909142D01*
X156288323Y-97909142D02*
X156288323Y-97099619D01*
X156669276Y-97099619D02*
X157288323Y-97099619D01*
X157288323Y-97099619D02*
X156954990Y-97480571D01*
X156954990Y-97480571D02*
X157097847Y-97480571D01*
X157097847Y-97480571D02*
X157193085Y-97528190D01*
X157193085Y-97528190D02*
X157240704Y-97575809D01*
X157240704Y-97575809D02*
X157288323Y-97671047D01*
X157288323Y-97671047D02*
X157288323Y-97909142D01*
X157288323Y-97909142D02*
X157240704Y-98004380D01*
X157240704Y-98004380D02*
X157193085Y-98052000D01*
X157193085Y-98052000D02*
X157097847Y-98099619D01*
X157097847Y-98099619D02*
X156812133Y-98099619D01*
X156812133Y-98099619D02*
X156716895Y-98052000D01*
X156716895Y-98052000D02*
X156669276Y-98004380D01*
D11*
%TO.C,J1*%
X145439800Y-56375600D02*
X145439800Y-107295600D01*
X148039800Y-56375600D02*
X145439800Y-56375600D01*
X148039800Y-58975600D02*
X148039800Y-56375600D01*
X150639800Y-56375600D02*
X149309800Y-56375600D01*
X150639800Y-57705600D02*
X150639800Y-56375600D01*
X150639800Y-58975600D02*
X148039800Y-58975600D01*
X150639800Y-58975600D02*
X150639800Y-107295600D01*
X150639800Y-107295600D02*
X145439800Y-107295600D01*
%TO.C,U3*%
X153803400Y-76350400D02*
X153803400Y-96790400D01*
X153803400Y-96790400D02*
X155453400Y-96790400D01*
X157453400Y-96790400D02*
X159103400Y-96790400D01*
X159103400Y-76350400D02*
X153803400Y-76350400D01*
X159103400Y-96790400D02*
X159103400Y-76350400D01*
X155453400Y-96790400D02*
G75*
G02*
X157453400Y-96790400I1000000J0D01*
G01*
%TD*%
D12*
X174500000Y-52500000D02*
X174500000Y-111500000D01*
X171500000Y-114500000D02*
X147500000Y-114500000D01*
X144500000Y-111500000D02*
X144500000Y-52500000D01*
X144500000Y-52500000D02*
G75*
G02*
X147500000Y-49500000I3000000J0D01*
G01*
X171500000Y-49500000D02*
G75*
G02*
X174500000Y-52500000I0J-3000000D01*
G01*
X174500000Y-111500000D02*
G75*
G02*
X171500000Y-114500000I-3000000J0D01*
G01*
X147500000Y-114500000D02*
G75*
G02*
X144500000Y-111500000I0J3000000D01*
G01*
X147500000Y-49500000D02*
X171500000Y-49500000D01*
M02*
