M48
; DRILL file {KiCad 8.0.8} date 2025-02-21T13:52:22-0500
; FORMAT={-:-/ absolute / metric / decimal}
; #@! TF.CreationDate,2025-02-21T13:52:22-05:00
; #@! TF.GenerationSoftware,Kicad,Pcbnew,8.0.8
; #@! TF.FileFunction,Plated,1,2,PTH
FMAT,2
METRIC
; #@! TA.AperFunction,Plated,PTH,ComponentDrill
T1C0.762
; #@! TA.AperFunction,Plated,PTH,ComponentDrill
T2C0.800
; #@! TA.AperFunction,Plated,PTH,ComponentDrill
T3C0.950
; #@! TA.AperFunction,Plated,PTH,ComponentDrill
T4C1.000
%
G90
G05
T1
X154.431Y-59.103
X154.431Y-61.643
X154.431Y-64.183
X154.431Y-66.723
X154.431Y-69.263
X154.431Y-71.803
X154.431Y-74.343
X164.571Y-61.643
X164.571Y-64.183
X164.571Y-66.723
X164.571Y-69.263
X164.571Y-71.803
T2
X152.643Y-77.68
X152.643Y-80.22
X152.643Y-82.76
X152.643Y-85.3
X152.643Y-87.84
X152.643Y-90.38
X152.643Y-92.92
X152.643Y-95.46
X160.263Y-77.68
X160.263Y-80.22
X160.263Y-82.76
X160.263Y-85.3
X160.263Y-87.84
X160.263Y-90.38
X160.263Y-92.92
X160.263Y-95.46
X165.734Y-89.811
X165.734Y-97.431
X165.912Y-77.645
X165.912Y-85.265
X168.599Y-104.95
X171.099Y-104.95
T3
X155.858Y-53.083
X158.358Y-53.083
X158.804Y-102.587
X160.858Y-53.083
X161.304Y-102.587
X163.358Y-53.083
X163.804Y-102.587
X171.987Y-60.286
X171.987Y-62.786
X171.987Y-65.286
X171.987Y-71.97
X171.987Y-74.47
X171.987Y-76.97
X171.987Y-83.695
X171.987Y-86.195
X171.987Y-88.695
X171.987Y-95.399
X171.987Y-97.899
X171.987Y-100.399
T4
X146.77Y-57.706
X146.77Y-60.246
X146.77Y-62.786
X146.77Y-65.326
X146.77Y-67.866
X146.77Y-70.406
X146.77Y-72.946
X146.77Y-75.486
X146.77Y-78.026
X146.77Y-80.566
X146.77Y-83.106
X146.77Y-85.646
X146.77Y-88.186
X146.77Y-90.726
X146.77Y-93.266
X146.77Y-95.806
X146.77Y-98.346
X146.77Y-100.886
X146.77Y-103.426
X146.77Y-105.966
X149.31Y-57.706
X149.31Y-60.246
X149.31Y-62.786
X149.31Y-65.326
X149.31Y-67.866
X149.31Y-70.406
X149.31Y-72.946
X149.31Y-75.486
X149.31Y-78.026
X149.31Y-80.566
X149.31Y-83.106
X149.31Y-85.646
X149.31Y-88.186
X149.31Y-90.726
X149.31Y-93.266
X149.31Y-95.806
X149.31Y-98.346
X149.31Y-100.886
X149.31Y-103.426
X149.31Y-105.966
X152.735Y-112.137
X155.275Y-112.137
X161.594Y-112.443
X164.094Y-112.443
M30
