%TF.GenerationSoftware,KiCad,Pcbnew,8.0.8*%
%TF.CreationDate,2025-02-21T13:51:55-05:00*%
%TF.ProjectId,TPI_v1,5450495f-7631-42e6-9b69-6361645f7063,rev?*%
%TF.SameCoordinates,Original*%
%TF.FileFunction,Soldermask,Bot*%
%TF.FilePolarity,Negative*%
%FSLAX46Y46*%
G04 Gerber Fmt 4.6, Leading zero omitted, Abs format (unit mm)*
G04 Created by KiCad (PCBNEW 8.0.8) date 2025-02-21 13:51:55*
%MOMM*%
%LPD*%
G01*
G04 APERTURE LIST*
G04 Aperture macros list*
%AMRoundRect*
0 Rectangle with rounded corners*
0 $1 Rounding radius*
0 $2 $3 $4 $5 $6 $7 $8 $9 X,Y pos of 4 corners*
0 Add a 4 corners polygon primitive as box body*
4,1,4,$2,$3,$4,$5,$6,$7,$8,$9,$2,$3,0*
0 Add four circle primitives for the rounded corners*
1,1,$1+$1,$2,$3*
1,1,$1+$1,$4,$5*
1,1,$1+$1,$6,$7*
1,1,$1+$1,$8,$9*
0 Add four rect primitives between the rounded corners*
20,1,$1+$1,$2,$3,$4,$5,0*
20,1,$1+$1,$4,$5,$6,$7,0*
20,1,$1+$1,$6,$7,$8,$9,0*
20,1,$1+$1,$8,$9,$2,$3,0*%
G04 Aperture macros list end*
%ADD10R,1.700000X1.700000*%
%ADD11O,1.700000X1.700000*%
%ADD12R,1.600000X1.600000*%
%ADD13O,1.600000X1.600000*%
%ADD14RoundRect,0.250000X-0.600000X-0.725000X0.600000X-0.725000X0.600000X0.725000X-0.600000X0.725000X0*%
%ADD15O,1.700000X1.950000*%
%ADD16RoundRect,0.250000X-0.725000X0.600000X-0.725000X-0.600000X0.725000X-0.600000X0.725000X0.600000X0*%
%ADD17O,1.950000X1.700000*%
%ADD18C,1.600000*%
%ADD19C,6.000000*%
%ADD20C,1.524000*%
%ADD21RoundRect,0.250000X0.600000X0.750000X-0.600000X0.750000X-0.600000X-0.750000X0.600000X-0.750000X0*%
%ADD22O,1.700000X2.000000*%
%ADD23RoundRect,0.250000X0.600000X0.725000X-0.600000X0.725000X-0.600000X-0.725000X0.600000X-0.725000X0*%
%TA.AperFunction,Profile*%
%ADD24C,0.200000*%
%TD*%
G04 APERTURE END LIST*
D10*
%TO.C,J1*%
X149309800Y-57705600D03*
D11*
X146769800Y-57705600D03*
X149309800Y-60245600D03*
X146769800Y-60245600D03*
X149309800Y-62785600D03*
X146769800Y-62785600D03*
X149309800Y-65325600D03*
X146769800Y-65325600D03*
X149309800Y-67865600D03*
X146769800Y-67865600D03*
X149309800Y-70405600D03*
X146769800Y-70405600D03*
X149309800Y-72945600D03*
X146769800Y-72945600D03*
X149309800Y-75485600D03*
X146769800Y-75485600D03*
X149309800Y-78025600D03*
X146769800Y-78025600D03*
X149309800Y-80565600D03*
X146769800Y-80565600D03*
X149309800Y-83105600D03*
X146769800Y-83105600D03*
X149309800Y-85645600D03*
X146769800Y-85645600D03*
X149309800Y-88185600D03*
X146769800Y-88185600D03*
X149309800Y-90725600D03*
X146769800Y-90725600D03*
X149309800Y-93265600D03*
X146769800Y-93265600D03*
X149309800Y-95805600D03*
X146769800Y-95805600D03*
X149309800Y-98345600D03*
X146769800Y-98345600D03*
X149309800Y-100885600D03*
X146769800Y-100885600D03*
X149309800Y-103425600D03*
X146769800Y-103425600D03*
X149309800Y-105965600D03*
X146769800Y-105965600D03*
%TD*%
D12*
%TO.C,U3*%
X160263400Y-95460400D03*
D13*
X160263400Y-92920400D03*
X160263400Y-90380400D03*
X160263400Y-87840400D03*
X160263400Y-85300400D03*
X160263400Y-82760400D03*
X160263400Y-80220400D03*
X160263400Y-77680400D03*
X152643400Y-77680400D03*
X152643400Y-80220400D03*
X152643400Y-82760400D03*
X152643400Y-85300400D03*
X152643400Y-87840400D03*
X152643400Y-90380400D03*
X152643400Y-92920400D03*
X152643400Y-95460400D03*
%TD*%
D14*
%TO.C,J2*%
X155857600Y-53082800D03*
D15*
X158357600Y-53082800D03*
X160857600Y-53082800D03*
X163357600Y-53082800D03*
%TD*%
D16*
%TO.C,U6*%
X171987000Y-95399200D03*
D17*
X171987000Y-97899200D03*
X171987000Y-100399200D03*
%TD*%
D18*
%TO.C,R2*%
X165912200Y-77644600D03*
D13*
X165912200Y-85264600D03*
%TD*%
D19*
%TO.C,*%
X170966800Y-110842400D03*
%TD*%
D16*
%TO.C,U5*%
X171987000Y-60285600D03*
D17*
X171987000Y-62785600D03*
X171987000Y-65285600D03*
%TD*%
D19*
%TO.C,*%
X147979800Y-110842400D03*
%TD*%
%TO.C,*%
X170966800Y-52828800D03*
%TD*%
D16*
%TO.C,U2*%
X171987000Y-83694666D03*
D17*
X171987000Y-86194666D03*
X171987000Y-88694666D03*
%TD*%
D20*
%TO.C,U1*%
X154431400Y-74342600D03*
X154431400Y-71802600D03*
X154431400Y-69262600D03*
X154431400Y-66722600D03*
X154431400Y-64182600D03*
X154431400Y-61642600D03*
X154431400Y-59102600D03*
X164571400Y-71802600D03*
X164571400Y-69262600D03*
X164571400Y-66722600D03*
X164571400Y-64182600D03*
X164571400Y-61642600D03*
%TD*%
D21*
%TO.C,J3*%
X164094200Y-112442600D03*
D22*
X161594200Y-112442600D03*
%TD*%
D18*
%TO.C,C1*%
X171099200Y-104949600D03*
X168599200Y-104949600D03*
%TD*%
D23*
%TO.C,J4*%
X163804000Y-102587400D03*
D15*
X161304000Y-102587400D03*
X158804000Y-102587400D03*
%TD*%
D10*
%TO.C,J5*%
X152735000Y-112137400D03*
D11*
X155275000Y-112137400D03*
%TD*%
D19*
%TO.C,*%
X147979800Y-52828800D03*
%TD*%
D16*
%TO.C,U4*%
X171987000Y-71969600D03*
D17*
X171987000Y-74469600D03*
X171987000Y-76969600D03*
%TD*%
D18*
%TO.C,R1*%
X165734400Y-89811200D03*
D13*
X165734400Y-97431200D03*
%TD*%
D24*
X174500000Y-52500000D02*
X174500000Y-111500000D01*
X171500000Y-114500000D02*
X147500000Y-114500000D01*
X144500000Y-111500000D02*
X144500000Y-52500000D01*
X144500000Y-52500000D02*
G75*
G02*
X147500000Y-49500000I3000000J0D01*
G01*
X171500000Y-49500000D02*
G75*
G02*
X174500000Y-52500000I0J-3000000D01*
G01*
X174500000Y-111500000D02*
G75*
G02*
X171500000Y-114500000I-3000000J0D01*
G01*
X147500000Y-114500000D02*
G75*
G02*
X144500000Y-111500000I0J3000000D01*
G01*
X147500000Y-49500000D02*
X171500000Y-49500000D01*
M02*
