%TF.GenerationSoftware,KiCad,Pcbnew,8.0.8*%
%TF.CreationDate,2025-02-21T13:51:55-05:00*%
%TF.ProjectId,TPI_v1,5450495f-7631-42e6-9b69-6361645f7063,rev?*%
%TF.SameCoordinates,Original*%
%TF.FileFunction,Legend,Bot*%
%TF.FilePolarity,Positive*%
%FSLAX46Y46*%
G04 Gerber Fmt 4.6, Leading zero omitted, Abs format (unit mm)*
G04 Created by KiCad (PCBNEW 8.0.8) date 2025-02-21 13:51:55*
%MOMM*%
%LPD*%
G01*
G04 APERTURE LIST*
%ADD10C,0.150000*%
%ADD11C,0.100000*%
%ADD12C,0.120000*%
%ADD13C,0.050000*%
%ADD14C,0.000000*%
%TA.AperFunction,Profile*%
%ADD15C,0.200000*%
%TD*%
G04 APERTURE END LIST*
D10*
X159616133Y-55560219D02*
X159616133Y-56274504D01*
X159616133Y-56274504D02*
X159663752Y-56417361D01*
X159663752Y-56417361D02*
X159758990Y-56512600D01*
X159758990Y-56512600D02*
X159901847Y-56560219D01*
X159901847Y-56560219D02*
X159997085Y-56560219D01*
X159187561Y-55655457D02*
X159139942Y-55607838D01*
X159139942Y-55607838D02*
X159044704Y-55560219D01*
X159044704Y-55560219D02*
X158806609Y-55560219D01*
X158806609Y-55560219D02*
X158711371Y-55607838D01*
X158711371Y-55607838D02*
X158663752Y-55655457D01*
X158663752Y-55655457D02*
X158616133Y-55750695D01*
X158616133Y-55750695D02*
X158616133Y-55845933D01*
X158616133Y-55845933D02*
X158663752Y-55988790D01*
X158663752Y-55988790D02*
X159235180Y-56560219D01*
X159235180Y-56560219D02*
X158616133Y-56560219D01*
X171568819Y-90355495D02*
X172378342Y-90355495D01*
X172378342Y-90355495D02*
X172473580Y-90403114D01*
X172473580Y-90403114D02*
X172521200Y-90450733D01*
X172521200Y-90450733D02*
X172568819Y-90545971D01*
X172568819Y-90545971D02*
X172568819Y-90736447D01*
X172568819Y-90736447D02*
X172521200Y-90831685D01*
X172521200Y-90831685D02*
X172473580Y-90879304D01*
X172473580Y-90879304D02*
X172378342Y-90926923D01*
X172378342Y-90926923D02*
X171568819Y-90926923D01*
X171568819Y-91831685D02*
X171568819Y-91641209D01*
X171568819Y-91641209D02*
X171616438Y-91545971D01*
X171616438Y-91545971D02*
X171664057Y-91498352D01*
X171664057Y-91498352D02*
X171806914Y-91403114D01*
X171806914Y-91403114D02*
X171997390Y-91355495D01*
X171997390Y-91355495D02*
X172378342Y-91355495D01*
X172378342Y-91355495D02*
X172473580Y-91403114D01*
X172473580Y-91403114D02*
X172521200Y-91450733D01*
X172521200Y-91450733D02*
X172568819Y-91545971D01*
X172568819Y-91545971D02*
X172568819Y-91736447D01*
X172568819Y-91736447D02*
X172521200Y-91831685D01*
X172521200Y-91831685D02*
X172473580Y-91879304D01*
X172473580Y-91879304D02*
X172378342Y-91926923D01*
X172378342Y-91926923D02*
X172140247Y-91926923D01*
X172140247Y-91926923D02*
X172045009Y-91879304D01*
X172045009Y-91879304D02*
X171997390Y-91831685D01*
X171997390Y-91831685D02*
X171949771Y-91736447D01*
X171949771Y-91736447D02*
X171949771Y-91545971D01*
X171949771Y-91545971D02*
X171997390Y-91450733D01*
X171997390Y-91450733D02*
X172045009Y-91403114D01*
X172045009Y-91403114D02*
X172140247Y-91355495D01*
X166367019Y-81287933D02*
X165890828Y-80954600D01*
X166367019Y-80716505D02*
X165367019Y-80716505D01*
X165367019Y-80716505D02*
X165367019Y-81097457D01*
X165367019Y-81097457D02*
X165414638Y-81192695D01*
X165414638Y-81192695D02*
X165462257Y-81240314D01*
X165462257Y-81240314D02*
X165557495Y-81287933D01*
X165557495Y-81287933D02*
X165700352Y-81287933D01*
X165700352Y-81287933D02*
X165795590Y-81240314D01*
X165795590Y-81240314D02*
X165843209Y-81192695D01*
X165843209Y-81192695D02*
X165890828Y-81097457D01*
X165890828Y-81097457D02*
X165890828Y-80716505D01*
X165462257Y-81668886D02*
X165414638Y-81716505D01*
X165414638Y-81716505D02*
X165367019Y-81811743D01*
X165367019Y-81811743D02*
X165367019Y-82049838D01*
X165367019Y-82049838D02*
X165414638Y-82145076D01*
X165414638Y-82145076D02*
X165462257Y-82192695D01*
X165462257Y-82192695D02*
X165557495Y-82240314D01*
X165557495Y-82240314D02*
X165652733Y-82240314D01*
X165652733Y-82240314D02*
X165795590Y-82192695D01*
X165795590Y-82192695D02*
X166367019Y-81621267D01*
X166367019Y-81621267D02*
X166367019Y-82240314D01*
X168698619Y-62165295D02*
X169508142Y-62165295D01*
X169508142Y-62165295D02*
X169603380Y-62212914D01*
X169603380Y-62212914D02*
X169651000Y-62260533D01*
X169651000Y-62260533D02*
X169698619Y-62355771D01*
X169698619Y-62355771D02*
X169698619Y-62546247D01*
X169698619Y-62546247D02*
X169651000Y-62641485D01*
X169651000Y-62641485D02*
X169603380Y-62689104D01*
X169603380Y-62689104D02*
X169508142Y-62736723D01*
X169508142Y-62736723D02*
X168698619Y-62736723D01*
X168698619Y-63689104D02*
X168698619Y-63212914D01*
X168698619Y-63212914D02*
X169174809Y-63165295D01*
X169174809Y-63165295D02*
X169127190Y-63212914D01*
X169127190Y-63212914D02*
X169079571Y-63308152D01*
X169079571Y-63308152D02*
X169079571Y-63546247D01*
X169079571Y-63546247D02*
X169127190Y-63641485D01*
X169127190Y-63641485D02*
X169174809Y-63689104D01*
X169174809Y-63689104D02*
X169270047Y-63736723D01*
X169270047Y-63736723D02*
X169508142Y-63736723D01*
X169508142Y-63736723D02*
X169603380Y-63689104D01*
X169603380Y-63689104D02*
X169651000Y-63641485D01*
X169651000Y-63641485D02*
X169698619Y-63546247D01*
X169698619Y-63546247D02*
X169698619Y-63308152D01*
X169698619Y-63308152D02*
X169651000Y-63212914D01*
X169651000Y-63212914D02*
X169603380Y-63165295D01*
X168288019Y-85839161D02*
X169097542Y-85839161D01*
X169097542Y-85839161D02*
X169192780Y-85886780D01*
X169192780Y-85886780D02*
X169240400Y-85934399D01*
X169240400Y-85934399D02*
X169288019Y-86029637D01*
X169288019Y-86029637D02*
X169288019Y-86220113D01*
X169288019Y-86220113D02*
X169240400Y-86315351D01*
X169240400Y-86315351D02*
X169192780Y-86362970D01*
X169192780Y-86362970D02*
X169097542Y-86410589D01*
X169097542Y-86410589D02*
X168288019Y-86410589D01*
X168383257Y-86839161D02*
X168335638Y-86886780D01*
X168335638Y-86886780D02*
X168288019Y-86982018D01*
X168288019Y-86982018D02*
X168288019Y-87220113D01*
X168288019Y-87220113D02*
X168335638Y-87315351D01*
X168335638Y-87315351D02*
X168383257Y-87362970D01*
X168383257Y-87362970D02*
X168478495Y-87410589D01*
X168478495Y-87410589D02*
X168573733Y-87410589D01*
X168573733Y-87410589D02*
X168716590Y-87362970D01*
X168716590Y-87362970D02*
X169288019Y-86791542D01*
X169288019Y-86791542D02*
X169288019Y-87410589D01*
D11*
X159019619Y-65929895D02*
X159829142Y-65929895D01*
X159829142Y-65929895D02*
X159924380Y-65977514D01*
X159924380Y-65977514D02*
X159972000Y-66025133D01*
X159972000Y-66025133D02*
X160019619Y-66120371D01*
X160019619Y-66120371D02*
X160019619Y-66310847D01*
X160019619Y-66310847D02*
X159972000Y-66406085D01*
X159972000Y-66406085D02*
X159924380Y-66453704D01*
X159924380Y-66453704D02*
X159829142Y-66501323D01*
X159829142Y-66501323D02*
X159019619Y-66501323D01*
X160019619Y-67501323D02*
X160019619Y-66929895D01*
X160019619Y-67215609D02*
X159019619Y-67215609D01*
X159019619Y-67215609D02*
X159162476Y-67120371D01*
X159162476Y-67120371D02*
X159257714Y-67025133D01*
X159257714Y-67025133D02*
X159305333Y-66929895D01*
D10*
X163309933Y-108747819D02*
X163309933Y-109462104D01*
X163309933Y-109462104D02*
X163357552Y-109604961D01*
X163357552Y-109604961D02*
X163452790Y-109700200D01*
X163452790Y-109700200D02*
X163595647Y-109747819D01*
X163595647Y-109747819D02*
X163690885Y-109747819D01*
X162928980Y-108747819D02*
X162309933Y-108747819D01*
X162309933Y-108747819D02*
X162643266Y-109128771D01*
X162643266Y-109128771D02*
X162500409Y-109128771D01*
X162500409Y-109128771D02*
X162405171Y-109176390D01*
X162405171Y-109176390D02*
X162357552Y-109224009D01*
X162357552Y-109224009D02*
X162309933Y-109319247D01*
X162309933Y-109319247D02*
X162309933Y-109557342D01*
X162309933Y-109557342D02*
X162357552Y-109652580D01*
X162357552Y-109652580D02*
X162405171Y-109700200D01*
X162405171Y-109700200D02*
X162500409Y-109747819D01*
X162500409Y-109747819D02*
X162786123Y-109747819D01*
X162786123Y-109747819D02*
X162881361Y-109700200D01*
X162881361Y-109700200D02*
X162928980Y-109652580D01*
X170015866Y-103259180D02*
X170063485Y-103306800D01*
X170063485Y-103306800D02*
X170206342Y-103354419D01*
X170206342Y-103354419D02*
X170301580Y-103354419D01*
X170301580Y-103354419D02*
X170444437Y-103306800D01*
X170444437Y-103306800D02*
X170539675Y-103211561D01*
X170539675Y-103211561D02*
X170587294Y-103116323D01*
X170587294Y-103116323D02*
X170634913Y-102925847D01*
X170634913Y-102925847D02*
X170634913Y-102782990D01*
X170634913Y-102782990D02*
X170587294Y-102592514D01*
X170587294Y-102592514D02*
X170539675Y-102497276D01*
X170539675Y-102497276D02*
X170444437Y-102402038D01*
X170444437Y-102402038D02*
X170301580Y-102354419D01*
X170301580Y-102354419D02*
X170206342Y-102354419D01*
X170206342Y-102354419D02*
X170063485Y-102402038D01*
X170063485Y-102402038D02*
X170015866Y-102449657D01*
X169063485Y-103354419D02*
X169634913Y-103354419D01*
X169349199Y-103354419D02*
X169349199Y-102354419D01*
X169349199Y-102354419D02*
X169444437Y-102497276D01*
X169444437Y-102497276D02*
X169539675Y-102592514D01*
X169539675Y-102592514D02*
X169634913Y-102640133D01*
X161637333Y-98492219D02*
X161637333Y-99206504D01*
X161637333Y-99206504D02*
X161684952Y-99349361D01*
X161684952Y-99349361D02*
X161780190Y-99444600D01*
X161780190Y-99444600D02*
X161923047Y-99492219D01*
X161923047Y-99492219D02*
X162018285Y-99492219D01*
X160732571Y-98825552D02*
X160732571Y-99492219D01*
X160970666Y-98444600D02*
X161208761Y-99158885D01*
X161208761Y-99158885D02*
X160589714Y-99158885D01*
X154338333Y-108822219D02*
X154338333Y-109536504D01*
X154338333Y-109536504D02*
X154385952Y-109679361D01*
X154385952Y-109679361D02*
X154481190Y-109774600D01*
X154481190Y-109774600D02*
X154624047Y-109822219D01*
X154624047Y-109822219D02*
X154719285Y-109822219D01*
X153385952Y-108822219D02*
X153862142Y-108822219D01*
X153862142Y-108822219D02*
X153909761Y-109298409D01*
X153909761Y-109298409D02*
X153862142Y-109250790D01*
X153862142Y-109250790D02*
X153766904Y-109203171D01*
X153766904Y-109203171D02*
X153528809Y-109203171D01*
X153528809Y-109203171D02*
X153433571Y-109250790D01*
X153433571Y-109250790D02*
X153385952Y-109298409D01*
X153385952Y-109298409D02*
X153338333Y-109393647D01*
X153338333Y-109393647D02*
X153338333Y-109631742D01*
X153338333Y-109631742D02*
X153385952Y-109726980D01*
X153385952Y-109726980D02*
X153433571Y-109774600D01*
X153433571Y-109774600D02*
X153528809Y-109822219D01*
X153528809Y-109822219D02*
X153766904Y-109822219D01*
X153766904Y-109822219D02*
X153862142Y-109774600D01*
X153862142Y-109774600D02*
X153909761Y-109726980D01*
X168749419Y-73860095D02*
X169558942Y-73860095D01*
X169558942Y-73860095D02*
X169654180Y-73907714D01*
X169654180Y-73907714D02*
X169701800Y-73955333D01*
X169701800Y-73955333D02*
X169749419Y-74050571D01*
X169749419Y-74050571D02*
X169749419Y-74241047D01*
X169749419Y-74241047D02*
X169701800Y-74336285D01*
X169701800Y-74336285D02*
X169654180Y-74383904D01*
X169654180Y-74383904D02*
X169558942Y-74431523D01*
X169558942Y-74431523D02*
X168749419Y-74431523D01*
X169082752Y-75336285D02*
X169749419Y-75336285D01*
X168701800Y-75098190D02*
X169416085Y-74860095D01*
X169416085Y-74860095D02*
X169416085Y-75479142D01*
X166316219Y-93708533D02*
X165840028Y-93375200D01*
X166316219Y-93137105D02*
X165316219Y-93137105D01*
X165316219Y-93137105D02*
X165316219Y-93518057D01*
X165316219Y-93518057D02*
X165363838Y-93613295D01*
X165363838Y-93613295D02*
X165411457Y-93660914D01*
X165411457Y-93660914D02*
X165506695Y-93708533D01*
X165506695Y-93708533D02*
X165649552Y-93708533D01*
X165649552Y-93708533D02*
X165744790Y-93660914D01*
X165744790Y-93660914D02*
X165792409Y-93613295D01*
X165792409Y-93613295D02*
X165840028Y-93518057D01*
X165840028Y-93518057D02*
X165840028Y-93137105D01*
X166316219Y-94660914D02*
X166316219Y-94089486D01*
X166316219Y-94375200D02*
X165316219Y-94375200D01*
X165316219Y-94375200D02*
X165459076Y-94279962D01*
X165459076Y-94279962D02*
X165554314Y-94184724D01*
X165554314Y-94184724D02*
X165601933Y-94089486D01*
D12*
%TO.C,J2*%
X153297600Y-45372800D02*
X159607600Y-45372800D01*
X153297600Y-57092800D02*
X153297600Y-45372800D01*
X154717600Y-52592800D02*
X154717600Y-57092800D01*
X154717600Y-57092800D02*
X153297600Y-57092800D01*
X155557600Y-55182800D02*
X155857600Y-54582800D01*
X155607600Y-45982800D02*
X155607600Y-51482800D01*
X155607600Y-51482800D02*
X156107600Y-51482800D01*
X155857600Y-54582800D02*
X156157600Y-55182800D01*
X156107600Y-45982800D02*
X155607600Y-45982800D01*
X156107600Y-51482800D02*
X156107600Y-45982800D01*
X156157600Y-55182800D02*
X155557600Y-55182800D01*
X158107600Y-45982800D02*
X158107600Y-51482800D01*
X158107600Y-51482800D02*
X158607600Y-51482800D01*
X158607600Y-45982800D02*
X158107600Y-45982800D01*
X158607600Y-51482800D02*
X158607600Y-45982800D01*
X160607600Y-45982800D02*
X160607600Y-51482800D01*
X160607600Y-51482800D02*
X161107600Y-51482800D01*
X161107600Y-45982800D02*
X160607600Y-45982800D01*
X161107600Y-51482800D02*
X161107600Y-45982800D01*
X163107600Y-45982800D02*
X163107600Y-51482800D01*
X163107600Y-51482800D02*
X163607600Y-51482800D01*
X163607600Y-45982800D02*
X163107600Y-45982800D01*
X163607600Y-51482800D02*
X163607600Y-45982800D01*
X164497600Y-52592800D02*
X164497600Y-57092800D01*
X164497600Y-57092800D02*
X165917600Y-57092800D01*
X165917600Y-45372800D02*
X159607600Y-45372800D01*
X165917600Y-57092800D02*
X165917600Y-45372800D01*
%TO.C,U6*%
X167977000Y-92839200D02*
X179697000Y-92839200D01*
X167977000Y-94259200D02*
X167977000Y-92839200D01*
X167977000Y-101539200D02*
X167977000Y-102959200D01*
X167977000Y-102959200D02*
X179697000Y-102959200D01*
X169887000Y-95099200D02*
X170487000Y-95399200D01*
X169887000Y-95699200D02*
X169887000Y-95099200D01*
X170487000Y-95399200D02*
X169887000Y-95699200D01*
X172477000Y-94259200D02*
X167977000Y-94259200D01*
X172477000Y-101539200D02*
X167977000Y-101539200D01*
X173587000Y-95149200D02*
X173587000Y-95649200D01*
X173587000Y-95649200D02*
X179087000Y-95649200D01*
X173587000Y-97649200D02*
X173587000Y-98149200D01*
X173587000Y-98149200D02*
X179087000Y-98149200D01*
X173587000Y-100149200D02*
X173587000Y-100649200D01*
X173587000Y-100649200D02*
X179087000Y-100649200D01*
X179087000Y-95149200D02*
X173587000Y-95149200D01*
X179087000Y-95649200D02*
X179087000Y-95149200D01*
X179087000Y-97649200D02*
X173587000Y-97649200D01*
X179087000Y-98149200D02*
X179087000Y-97649200D01*
X179087000Y-100149200D02*
X173587000Y-100149200D01*
X179087000Y-100649200D02*
X179087000Y-100149200D01*
X179697000Y-92839200D02*
X179697000Y-97899200D01*
X179697000Y-102959200D02*
X179697000Y-97899200D01*
%TO.C,R2*%
X164542200Y-78184600D02*
X164872200Y-78184600D01*
X164542200Y-84724600D02*
X164542200Y-78184600D01*
X164872200Y-84724600D02*
X164542200Y-84724600D01*
X166952200Y-84724600D02*
X167282200Y-84724600D01*
X167282200Y-78184600D02*
X166952200Y-78184600D01*
X167282200Y-84724600D02*
X167282200Y-78184600D01*
%TO.C,U5*%
X167977000Y-57725600D02*
X179697000Y-57725600D01*
X167977000Y-59145600D02*
X167977000Y-57725600D01*
X167977000Y-66425600D02*
X167977000Y-67845600D01*
X167977000Y-67845600D02*
X179697000Y-67845600D01*
X169887000Y-59985600D02*
X170487000Y-60285600D01*
X169887000Y-60585600D02*
X169887000Y-59985600D01*
X170487000Y-60285600D02*
X169887000Y-60585600D01*
X172477000Y-59145600D02*
X167977000Y-59145600D01*
X172477000Y-66425600D02*
X167977000Y-66425600D01*
X173587000Y-60035600D02*
X173587000Y-60535600D01*
X173587000Y-60535600D02*
X179087000Y-60535600D01*
X173587000Y-62535600D02*
X173587000Y-63035600D01*
X173587000Y-63035600D02*
X179087000Y-63035600D01*
X173587000Y-65035600D02*
X173587000Y-65535600D01*
X173587000Y-65535600D02*
X179087000Y-65535600D01*
X179087000Y-60035600D02*
X173587000Y-60035600D01*
X179087000Y-60535600D02*
X179087000Y-60035600D01*
X179087000Y-62535600D02*
X173587000Y-62535600D01*
X179087000Y-63035600D02*
X179087000Y-62535600D01*
X179087000Y-65035600D02*
X173587000Y-65035600D01*
X179087000Y-65535600D02*
X179087000Y-65035600D01*
X179697000Y-57725600D02*
X179697000Y-62785600D01*
X179697000Y-67845600D02*
X179697000Y-62785600D01*
%TO.C,U2*%
X167977000Y-81134666D02*
X179697000Y-81134666D01*
X167977000Y-82554666D02*
X167977000Y-81134666D01*
X167977000Y-89834666D02*
X167977000Y-91254666D01*
X167977000Y-91254666D02*
X179697000Y-91254666D01*
X169887000Y-83394666D02*
X170487000Y-83694666D01*
X169887000Y-83994666D02*
X169887000Y-83394666D01*
X170487000Y-83694666D02*
X169887000Y-83994666D01*
X172477000Y-82554666D02*
X167977000Y-82554666D01*
X172477000Y-89834666D02*
X167977000Y-89834666D01*
X173587000Y-83444666D02*
X173587000Y-83944666D01*
X173587000Y-83944666D02*
X179087000Y-83944666D01*
X173587000Y-85944666D02*
X173587000Y-86444666D01*
X173587000Y-86444666D02*
X179087000Y-86444666D01*
X173587000Y-88444666D02*
X173587000Y-88944666D01*
X173587000Y-88944666D02*
X179087000Y-88944666D01*
X179087000Y-83444666D02*
X173587000Y-83444666D01*
X179087000Y-83944666D02*
X179087000Y-83444666D01*
X179087000Y-85944666D02*
X173587000Y-85944666D01*
X179087000Y-86444666D02*
X179087000Y-85944666D01*
X179087000Y-88444666D02*
X173587000Y-88444666D01*
X179087000Y-88944666D02*
X179087000Y-88444666D01*
X179697000Y-81134666D02*
X179697000Y-86194666D01*
X179697000Y-91254666D02*
X179697000Y-86194666D01*
D11*
%TO.C,U1*%
X153011400Y-73742600D02*
X153011400Y-59742600D01*
X155011400Y-57742600D02*
X164011400Y-57742600D01*
X164011400Y-75742600D02*
X155011400Y-75742600D01*
X166011400Y-59742600D02*
X166011400Y-73742600D01*
X153011400Y-59742600D02*
G75*
G02*
X155011400Y-57742600I1999999J1D01*
G01*
X155011400Y-75742600D02*
G75*
G02*
X153011400Y-73742600I0J2000000D01*
G01*
X164011400Y-57742600D02*
G75*
G02*
X166011400Y-59742600I1J-1999999D01*
G01*
X166011400Y-73742600D02*
G75*
G02*
X164011400Y-75742600I-2000000J0D01*
G01*
D13*
X163711400Y-60042600D02*
G75*
G02*
X160711400Y-60042600I-1500000J0D01*
G01*
X160711400Y-60042600D02*
G75*
G02*
X163711400Y-60042600I1500000J0D01*
G01*
X163711400Y-73592600D02*
G75*
G02*
X160711400Y-73592600I-1500000J0D01*
G01*
X160711400Y-73592600D02*
G75*
G02*
X163711400Y-73592600I1500000J0D01*
G01*
D12*
%TO.C,J3*%
X159034200Y-108432600D02*
X159034200Y-120152600D01*
X159034200Y-120152600D02*
X162844200Y-120152600D01*
X160454200Y-108432600D02*
X159034200Y-108432600D01*
X160454200Y-112932600D02*
X160454200Y-108432600D01*
X161344200Y-114042600D02*
X161344200Y-119542600D01*
X161344200Y-119542600D02*
X161844200Y-119542600D01*
X161844200Y-114042600D02*
X161344200Y-114042600D01*
X161844200Y-119542600D02*
X161844200Y-114042600D01*
X163794200Y-110342600D02*
X164394200Y-110342600D01*
X163844200Y-114042600D02*
X163844200Y-119542600D01*
X163844200Y-119542600D02*
X164344200Y-119542600D01*
X164094200Y-110942600D02*
X163794200Y-110342600D01*
X164344200Y-114042600D02*
X163844200Y-114042600D01*
X164344200Y-119542600D02*
X164344200Y-114042600D01*
X164394200Y-110342600D02*
X164094200Y-110942600D01*
X165234200Y-108432600D02*
X166654200Y-108432600D01*
X165234200Y-112932600D02*
X165234200Y-108432600D01*
X166654200Y-108432600D02*
X166654200Y-120152600D01*
X166654200Y-120152600D02*
X162844200Y-120152600D01*
%TO.C,C1*%
X169220200Y-104029600D02*
X170478200Y-104029600D01*
X169220200Y-105869600D02*
X170478200Y-105869600D01*
%TO.C,J4*%
X156244000Y-100127400D02*
X156244000Y-106097400D01*
X156244000Y-106097400D02*
X166364000Y-106097400D01*
X156254000Y-100137400D02*
X156254000Y-100887400D01*
X156254000Y-100887400D02*
X158054000Y-100887400D01*
X157004000Y-102387400D02*
X156254000Y-102387400D01*
X157004000Y-105337400D02*
X157004000Y-102387400D01*
X158054000Y-100137400D02*
X156254000Y-100137400D01*
X158054000Y-100887400D02*
X158054000Y-100137400D01*
X159554000Y-100137400D02*
X159554000Y-100887400D01*
X159554000Y-100887400D02*
X163054000Y-100887400D01*
X161304000Y-105337400D02*
X157004000Y-105337400D01*
X161304000Y-105337400D02*
X165604000Y-105337400D01*
X163054000Y-100137400D02*
X159554000Y-100137400D01*
X163054000Y-100887400D02*
X163054000Y-100137400D01*
X164554000Y-100137400D02*
X164554000Y-100887400D01*
X164554000Y-100887400D02*
X166354000Y-100887400D01*
X165604000Y-102387400D02*
X166354000Y-102387400D01*
X165604000Y-105337400D02*
X165604000Y-102387400D01*
X166354000Y-100137400D02*
X164554000Y-100137400D01*
X166354000Y-100887400D02*
X166354000Y-100137400D01*
X166364000Y-100127400D02*
X156244000Y-100127400D01*
X166364000Y-106097400D02*
X166364000Y-100127400D01*
X166654000Y-99837400D02*
X165404000Y-99837400D01*
X166654000Y-101087400D02*
X166654000Y-99837400D01*
%TO.C,J5*%
X151405000Y-110807400D02*
X152735000Y-110807400D01*
X151405000Y-112137400D02*
X151405000Y-110807400D01*
X151405000Y-113407400D02*
X154005000Y-113407400D01*
X151405000Y-113467400D02*
X151405000Y-113407400D01*
X151405000Y-113467400D02*
X156605000Y-113467400D01*
X154005000Y-110807400D02*
X156605000Y-110807400D01*
X154005000Y-113407400D02*
X154005000Y-110807400D01*
X156605000Y-113467400D02*
X156605000Y-110807400D01*
D14*
%TO.C,G\u002A\u002A\u002A*%
G36*
X155791239Y-85156150D02*
G01*
X155858491Y-85156193D01*
X155929333Y-85156302D01*
X155992747Y-85156490D01*
X156049277Y-85156773D01*
X156099466Y-85157164D01*
X156143861Y-85157681D01*
X156183004Y-85158338D01*
X156217440Y-85159151D01*
X156247709Y-85160136D01*
X156274363Y-85161309D01*
X156297943Y-85162682D01*
X156318992Y-85164275D01*
X156338055Y-85166101D01*
X156355676Y-85168175D01*
X156372401Y-85170513D01*
X156388771Y-85173133D01*
X156420487Y-85179021D01*
X156502085Y-85199457D01*
X156578577Y-85226521D01*
X156649796Y-85260024D01*
X156715572Y-85299774D01*
X156775739Y-85345581D01*
X156830129Y-85397254D01*
X156878576Y-85454604D01*
X156920910Y-85517438D01*
X156956964Y-85585569D01*
X156986570Y-85658803D01*
X157009562Y-85736953D01*
X157025771Y-85819826D01*
X157035030Y-85907233D01*
X157035283Y-85912552D01*
X157035721Y-85928122D01*
X157036149Y-85951113D01*
X157036564Y-85980881D01*
X157036959Y-86016775D01*
X157037330Y-86058149D01*
X157037672Y-86104353D01*
X157037979Y-86154741D01*
X157038247Y-86208666D01*
X157038469Y-86265480D01*
X157038643Y-86324534D01*
X157038762Y-86385182D01*
X157039393Y-86814598D01*
X156210105Y-86814598D01*
X155380814Y-86814598D01*
X155380814Y-86679549D01*
X155380814Y-86544499D01*
X155806010Y-86544463D01*
X155861945Y-86544429D01*
X155927357Y-86544310D01*
X155988860Y-86544110D01*
X156045950Y-86543834D01*
X156098125Y-86543486D01*
X156144881Y-86543073D01*
X156185713Y-86542596D01*
X156220117Y-86542061D01*
X156247590Y-86541473D01*
X156267633Y-86540837D01*
X156279737Y-86540156D01*
X156300504Y-86537960D01*
X156365180Y-86525980D01*
X156426041Y-86506494D01*
X156483298Y-86479407D01*
X156537166Y-86444624D01*
X156587857Y-86402048D01*
X156594252Y-86395922D01*
X156641250Y-86345110D01*
X156680575Y-86291195D01*
X156712427Y-86233763D01*
X156737005Y-86172400D01*
X156754512Y-86106694D01*
X156765145Y-86036232D01*
X156767466Y-85991685D01*
X156764552Y-85930493D01*
X156755077Y-85868831D01*
X156739313Y-85809085D01*
X156730775Y-85784589D01*
X156703078Y-85721861D01*
X156668805Y-85664070D01*
X156628352Y-85611586D01*
X156582116Y-85564783D01*
X156530492Y-85524030D01*
X156473878Y-85489698D01*
X156412669Y-85462161D01*
X156347262Y-85441787D01*
X156342565Y-85440649D01*
X156336818Y-85439386D01*
X156330643Y-85438264D01*
X156323539Y-85437273D01*
X156315005Y-85436405D01*
X156304541Y-85435648D01*
X156291645Y-85434991D01*
X156275817Y-85434425D01*
X156256557Y-85433938D01*
X156233362Y-85433522D01*
X156205736Y-85433165D01*
X156173171Y-85432857D01*
X156135170Y-85432589D01*
X156091234Y-85432349D01*
X156040859Y-85432127D01*
X155983546Y-85431913D01*
X155918795Y-85431697D01*
X155846103Y-85431468D01*
X155380814Y-85430024D01*
X155380814Y-85293020D01*
X155380814Y-85156017D01*
X155791239Y-85156150D01*
G37*
G36*
X157039393Y-87232153D02*
G01*
X157039393Y-87366950D01*
X156578324Y-87368565D01*
X156536325Y-87368713D01*
X156468487Y-87368961D01*
X156408297Y-87369201D01*
X156355249Y-87369441D01*
X156308839Y-87369696D01*
X156268558Y-87369973D01*
X156233903Y-87370284D01*
X156204370Y-87370638D01*
X156179447Y-87371047D01*
X156158632Y-87371521D01*
X156141418Y-87372071D01*
X156127300Y-87372706D01*
X156115772Y-87373438D01*
X156106327Y-87374278D01*
X156098461Y-87375234D01*
X156091668Y-87376318D01*
X156085441Y-87377541D01*
X156079275Y-87378913D01*
X156034369Y-87390946D01*
X155972936Y-87413881D01*
X155916405Y-87443369D01*
X155864140Y-87479756D01*
X155815505Y-87523391D01*
X155815338Y-87523559D01*
X155770898Y-87573573D01*
X155733585Y-87627051D01*
X155703025Y-87684701D01*
X155678841Y-87747227D01*
X155660662Y-87815337D01*
X155660186Y-87817634D01*
X155656517Y-87842769D01*
X155654089Y-87873704D01*
X155652901Y-87908145D01*
X155652957Y-87943794D01*
X155654253Y-87978357D01*
X155656795Y-88009535D01*
X155660581Y-88035034D01*
X155672357Y-88083585D01*
X155695172Y-88148666D01*
X155725236Y-88209465D01*
X155762627Y-88266134D01*
X155807426Y-88318833D01*
X155842962Y-88352949D01*
X155894664Y-88392987D01*
X155950661Y-88425945D01*
X156011358Y-88452053D01*
X156077165Y-88471541D01*
X156080530Y-88472298D01*
X156086375Y-88473399D01*
X156093246Y-88474381D01*
X156101641Y-88475251D01*
X156112050Y-88476020D01*
X156124970Y-88476693D01*
X156140894Y-88477284D01*
X156160318Y-88477798D01*
X156183733Y-88478246D01*
X156211637Y-88478636D01*
X156244518Y-88478977D01*
X156282877Y-88479277D01*
X156327207Y-88479547D01*
X156378000Y-88479794D01*
X156435751Y-88480028D01*
X156500954Y-88480257D01*
X156574103Y-88480492D01*
X157039393Y-88481932D01*
X157039393Y-88618935D01*
X157039393Y-88755937D01*
X156622637Y-88755851D01*
X156559901Y-88755821D01*
X156486327Y-88755724D01*
X156420232Y-88755535D01*
X156361077Y-88755231D01*
X156308322Y-88754785D01*
X156261426Y-88754170D01*
X156219851Y-88753362D01*
X156183052Y-88752336D01*
X156150491Y-88751064D01*
X156121627Y-88749523D01*
X156095921Y-88747686D01*
X156072832Y-88745527D01*
X156051819Y-88743022D01*
X156032343Y-88740145D01*
X156013863Y-88736869D01*
X155995838Y-88733169D01*
X155977729Y-88729020D01*
X155958997Y-88724396D01*
X155903273Y-88708427D01*
X155826757Y-88679777D01*
X155755792Y-88644837D01*
X155690513Y-88603745D01*
X155631057Y-88556642D01*
X155577558Y-88503666D01*
X155530154Y-88444957D01*
X155488979Y-88380652D01*
X155454170Y-88310893D01*
X155425861Y-88235817D01*
X155404188Y-88155565D01*
X155404124Y-88155273D01*
X155400620Y-88139135D01*
X155397486Y-88123796D01*
X155394705Y-88108714D01*
X155392251Y-88093345D01*
X155390105Y-88077146D01*
X155388248Y-88059573D01*
X155386657Y-88040082D01*
X155385313Y-88018130D01*
X155384194Y-87993173D01*
X155383281Y-87964668D01*
X155382551Y-87932070D01*
X155381985Y-87894838D01*
X155381561Y-87852425D01*
X155381260Y-87804292D01*
X155381060Y-87749890D01*
X155380941Y-87688680D01*
X155380881Y-87620116D01*
X155380860Y-87543654D01*
X155380814Y-87097357D01*
X156210105Y-87097357D01*
X157039393Y-87097357D01*
X157039393Y-87232153D01*
G37*
G36*
X156414073Y-84405445D02*
G01*
X156545617Y-84417898D01*
X156596861Y-84424702D01*
X156739381Y-84449269D01*
X156879354Y-84481683D01*
X157016518Y-84521727D01*
X157150605Y-84569183D01*
X157281351Y-84623832D01*
X157408489Y-84685455D01*
X157531755Y-84753836D01*
X157650885Y-84828755D01*
X157765611Y-84909993D01*
X157875670Y-84997334D01*
X157980796Y-85090559D01*
X158080724Y-85189449D01*
X158175188Y-85293786D01*
X158263922Y-85403353D01*
X158346663Y-85517930D01*
X158423144Y-85637301D01*
X158493101Y-85761244D01*
X158556268Y-85889545D01*
X158612379Y-86021983D01*
X158661170Y-86158341D01*
X158664783Y-86169489D01*
X158688663Y-86246831D01*
X158709348Y-86321189D01*
X158727148Y-86394188D01*
X158742378Y-86467451D01*
X158755349Y-86542601D01*
X158766376Y-86621261D01*
X158775768Y-86705056D01*
X158783838Y-86795608D01*
X158784466Y-86806990D01*
X158785070Y-86827477D01*
X158785496Y-86853882D01*
X158785750Y-86884819D01*
X158785840Y-86918901D01*
X158785770Y-86954735D01*
X158785548Y-86990945D01*
X158785179Y-87026137D01*
X158784670Y-87058927D01*
X158784026Y-87087927D01*
X158783255Y-87111749D01*
X158782361Y-87129009D01*
X158768959Y-87266414D01*
X158746979Y-87409837D01*
X158717074Y-87551530D01*
X158679398Y-87691041D01*
X158634101Y-87827913D01*
X158581331Y-87961693D01*
X158521242Y-88091928D01*
X158453985Y-88218162D01*
X158379710Y-88339942D01*
X158342490Y-88395563D01*
X158255713Y-88514493D01*
X158163032Y-88627605D01*
X158064708Y-88734733D01*
X157960998Y-88835701D01*
X157852159Y-88930339D01*
X157738449Y-89018476D01*
X157620125Y-89099939D01*
X157497444Y-89174558D01*
X157370665Y-89242161D01*
X157240045Y-89302576D01*
X157105841Y-89355632D01*
X156968312Y-89401157D01*
X156827714Y-89438980D01*
X156684305Y-89468929D01*
X156637267Y-89477077D01*
X156587576Y-89484856D01*
X156540627Y-89491129D01*
X156494557Y-89496067D01*
X156447505Y-89499841D01*
X156397611Y-89502624D01*
X156343012Y-89504584D01*
X156281847Y-89505893D01*
X156185149Y-89506228D01*
X156094533Y-89503890D01*
X156008199Y-89498693D01*
X155924252Y-89490453D01*
X155840797Y-89478980D01*
X155755943Y-89464090D01*
X155667795Y-89445597D01*
X155591983Y-89427293D01*
X155452837Y-89387111D01*
X155316688Y-89339193D01*
X155183822Y-89283737D01*
X155054533Y-89220945D01*
X154929108Y-89151017D01*
X154807836Y-89074154D01*
X154691008Y-88990557D01*
X154578913Y-88900425D01*
X154471840Y-88803961D01*
X154370079Y-88701365D01*
X154273920Y-88592836D01*
X154183652Y-88478577D01*
X154099564Y-88358786D01*
X154057544Y-88293061D01*
X153984099Y-88166410D01*
X153918489Y-88036637D01*
X153860733Y-87903813D01*
X153810854Y-87768006D01*
X153768875Y-87629289D01*
X153734820Y-87487731D01*
X153708709Y-87343402D01*
X153690566Y-87196373D01*
X153680413Y-87046713D01*
X153679379Y-86969405D01*
X153713141Y-86969405D01*
X153713601Y-87014861D01*
X153714532Y-87057845D01*
X153715933Y-87096510D01*
X153717805Y-87129009D01*
X153725514Y-87214830D01*
X153744970Y-87358862D01*
X153772359Y-87500926D01*
X153807553Y-87640659D01*
X153850421Y-87777701D01*
X153900835Y-87911688D01*
X153958666Y-88042260D01*
X154023785Y-88169057D01*
X154096062Y-88291714D01*
X154175369Y-88409872D01*
X154203601Y-88448833D01*
X154247612Y-88507116D01*
X154290978Y-88561185D01*
X154335490Y-88613174D01*
X154382940Y-88665216D01*
X154435115Y-88719443D01*
X154541621Y-88821808D01*
X154652668Y-88917090D01*
X154768082Y-89005197D01*
X154887711Y-89086056D01*
X155011400Y-89159589D01*
X155138994Y-89225724D01*
X155270341Y-89284387D01*
X155405289Y-89335504D01*
X155543681Y-89379001D01*
X155685363Y-89414802D01*
X155830184Y-89442836D01*
X155977988Y-89463027D01*
X156000657Y-89465085D01*
X156034180Y-89467257D01*
X156073357Y-89469105D01*
X156116676Y-89470604D01*
X156162625Y-89471733D01*
X156209689Y-89472469D01*
X156256359Y-89472789D01*
X156301122Y-89472672D01*
X156342466Y-89472093D01*
X156378879Y-89471032D01*
X156408848Y-89469465D01*
X156462172Y-89465179D01*
X156606129Y-89447870D01*
X156748429Y-89422385D01*
X156888732Y-89388855D01*
X157026698Y-89347410D01*
X157161986Y-89298180D01*
X157294259Y-89241297D01*
X157423174Y-89176889D01*
X157548394Y-89105089D01*
X157669578Y-89026028D01*
X157786388Y-88939834D01*
X157861469Y-88878444D01*
X157956794Y-88792973D01*
X158048711Y-88702061D01*
X158135961Y-88607027D01*
X158217286Y-88509192D01*
X158291430Y-88409872D01*
X158329494Y-88354361D01*
X158407433Y-88230308D01*
X158477441Y-88103491D01*
X158539554Y-87973803D01*
X158593813Y-87841141D01*
X158640255Y-87705393D01*
X158678917Y-87566458D01*
X158709838Y-87424226D01*
X158733055Y-87278593D01*
X158748607Y-87129451D01*
X158748913Y-87125012D01*
X158749748Y-87106970D01*
X158750469Y-87082759D01*
X158751069Y-87053706D01*
X158751545Y-87021141D01*
X158751887Y-86986389D01*
X158752092Y-86950783D01*
X158752153Y-86915646D01*
X158752065Y-86882307D01*
X158751821Y-86852094D01*
X158751415Y-86826337D01*
X158750842Y-86806361D01*
X158750096Y-86793497D01*
X158749214Y-86783748D01*
X158747804Y-86767705D01*
X158746069Y-86747700D01*
X158744205Y-86725972D01*
X158734577Y-86634493D01*
X158713141Y-86496101D01*
X158683644Y-86358444D01*
X158646311Y-86222173D01*
X158601366Y-86087938D01*
X158549035Y-85956390D01*
X158489542Y-85828179D01*
X158423113Y-85703955D01*
X158349968Y-85584369D01*
X158336710Y-85564265D01*
X158251630Y-85443960D01*
X158160715Y-85329636D01*
X158064208Y-85221437D01*
X157962358Y-85119509D01*
X157855408Y-85023998D01*
X157743605Y-84935048D01*
X157627196Y-84852805D01*
X157506423Y-84777414D01*
X157381533Y-84709021D01*
X157252773Y-84647769D01*
X157120388Y-84593807D01*
X156984622Y-84547278D01*
X156845723Y-84508327D01*
X156703935Y-84477101D01*
X156559505Y-84453742D01*
X156412677Y-84438399D01*
X156393580Y-84437153D01*
X156356828Y-84435531D01*
X156314753Y-84434417D01*
X156269277Y-84433809D01*
X156222326Y-84433707D01*
X156175817Y-84434113D01*
X156131673Y-84435025D01*
X156091818Y-84436444D01*
X156058173Y-84438371D01*
X155955510Y-84447908D01*
X155811033Y-84468377D01*
X155668646Y-84496857D01*
X155528653Y-84533234D01*
X155391359Y-84577400D01*
X155257067Y-84629244D01*
X155126083Y-84688656D01*
X154998710Y-84755525D01*
X154875254Y-84829738D01*
X154756018Y-84911188D01*
X154727649Y-84932095D01*
X154612793Y-85023113D01*
X154504116Y-85119752D01*
X154401757Y-85221757D01*
X154305858Y-85328876D01*
X154216563Y-85440857D01*
X154134009Y-85557445D01*
X154058338Y-85678389D01*
X153989693Y-85803436D01*
X153928213Y-85932332D01*
X153874041Y-86064825D01*
X153827316Y-86200663D01*
X153788179Y-86339591D01*
X153756773Y-86481358D01*
X153733238Y-86625710D01*
X153717716Y-86772396D01*
X153716025Y-86799822D01*
X153714596Y-86836688D01*
X153713638Y-86878473D01*
X153713154Y-86923329D01*
X153713141Y-86969405D01*
X153679379Y-86969405D01*
X153678610Y-86911849D01*
X153684729Y-86768846D01*
X153698985Y-86626793D01*
X153721225Y-86486045D01*
X153751295Y-86346961D01*
X153789041Y-86209893D01*
X153834309Y-86075198D01*
X153886944Y-85943232D01*
X153946794Y-85814349D01*
X154013703Y-85688905D01*
X154087518Y-85567257D01*
X154168085Y-85449757D01*
X154255249Y-85336765D01*
X154348858Y-85228633D01*
X154448757Y-85125718D01*
X154554790Y-85028376D01*
X154618858Y-84974620D01*
X154735822Y-84884840D01*
X154856819Y-84802279D01*
X154981580Y-84727053D01*
X155109840Y-84659281D01*
X155241330Y-84599081D01*
X155375784Y-84546571D01*
X155512934Y-84501871D01*
X155652514Y-84465097D01*
X155794257Y-84436370D01*
X155937895Y-84415806D01*
X156009525Y-84408714D01*
X156143989Y-84400845D01*
X156222326Y-84400217D01*
X156279516Y-84399758D01*
X156414073Y-84405445D01*
G37*
D12*
%TO.C,U4*%
X167977000Y-69409600D02*
X179697000Y-69409600D01*
X167977000Y-70829600D02*
X167977000Y-69409600D01*
X167977000Y-78109600D02*
X167977000Y-79529600D01*
X167977000Y-79529600D02*
X179697000Y-79529600D01*
X169887000Y-71669600D02*
X170487000Y-71969600D01*
X169887000Y-72269600D02*
X169887000Y-71669600D01*
X170487000Y-71969600D02*
X169887000Y-72269600D01*
X172477000Y-70829600D02*
X167977000Y-70829600D01*
X172477000Y-78109600D02*
X167977000Y-78109600D01*
X173587000Y-71719600D02*
X173587000Y-72219600D01*
X173587000Y-72219600D02*
X179087000Y-72219600D01*
X173587000Y-74219600D02*
X173587000Y-74719600D01*
X173587000Y-74719600D02*
X179087000Y-74719600D01*
X173587000Y-76719600D02*
X173587000Y-77219600D01*
X173587000Y-77219600D02*
X179087000Y-77219600D01*
X179087000Y-71719600D02*
X173587000Y-71719600D01*
X179087000Y-72219600D02*
X179087000Y-71719600D01*
X179087000Y-74219600D02*
X173587000Y-74219600D01*
X179087000Y-74719600D02*
X179087000Y-74219600D01*
X179087000Y-76719600D02*
X173587000Y-76719600D01*
X179087000Y-77219600D02*
X179087000Y-76719600D01*
X179697000Y-69409600D02*
X179697000Y-74469600D01*
X179697000Y-79529600D02*
X179697000Y-74469600D01*
%TO.C,R1*%
X164364400Y-90351200D02*
X164694400Y-90351200D01*
X164364400Y-96891200D02*
X164364400Y-90351200D01*
X164694400Y-96891200D02*
X164364400Y-96891200D01*
X166774400Y-96891200D02*
X167104400Y-96891200D01*
X167104400Y-90351200D02*
X166774400Y-90351200D01*
X167104400Y-96891200D02*
X167104400Y-90351200D01*
%TD*%
D15*
X174500000Y-52500000D02*
X174500000Y-111500000D01*
X171500000Y-114500000D02*
X147500000Y-114500000D01*
X144500000Y-111500000D02*
X144500000Y-52500000D01*
X144500000Y-52500000D02*
G75*
G02*
X147500000Y-49500000I3000000J0D01*
G01*
X171500000Y-49500000D02*
G75*
G02*
X174500000Y-52500000I0J-3000000D01*
G01*
X174500000Y-111500000D02*
G75*
G02*
X171500000Y-114500000I-3000000J0D01*
G01*
X147500000Y-114500000D02*
G75*
G02*
X144500000Y-111500000I0J3000000D01*
G01*
X147500000Y-49500000D02*
X171500000Y-49500000D01*
M02*
