%TF.GenerationSoftware,KiCad,Pcbnew,8.0.8*%
%TF.CreationDate,2025-02-25T22:54:27-05:00*%
%TF.ProjectId,TPI_v1,5450495f-7631-42e6-9b69-6361645f7063,rev?*%
%TF.SameCoordinates,Original*%
%TF.FileFunction,Soldermask,Bot*%
%TF.FilePolarity,Negative*%
%FSLAX46Y46*%
G04 Gerber Fmt 4.6, Leading zero omitted, Abs format (unit mm)*
G04 Created by KiCad (PCBNEW 8.0.8) date 2025-02-25 22:54:27*
%MOMM*%
%LPD*%
G01*
G04 APERTURE LIST*
G04 Aperture macros list*
%AMRoundRect*
0 Rectangle with rounded corners*
0 $1 Rounding radius*
0 $2 $3 $4 $5 $6 $7 $8 $9 X,Y pos of 4 corners*
0 Add a 4 corners polygon primitive as box body*
4,1,4,$2,$3,$4,$5,$6,$7,$8,$9,$2,$3,0*
0 Add four circle primitives for the rounded corners*
1,1,$1+$1,$2,$3*
1,1,$1+$1,$4,$5*
1,1,$1+$1,$6,$7*
1,1,$1+$1,$8,$9*
0 Add four rect primitives between the rounded corners*
20,1,$1+$1,$2,$3,$4,$5,0*
20,1,$1+$1,$4,$5,$6,$7,0*
20,1,$1+$1,$6,$7,$8,$9,0*
20,1,$1+$1,$8,$9,$2,$3,0*%
%AMHorizOval*
0 Thick line with rounded ends*
0 $1 width*
0 $2 $3 position (X,Y) of the first rounded end (center of the circle)*
0 $4 $5 position (X,Y) of the second rounded end (center of the circle)*
0 Add line between two ends*
20,1,$1,$2,$3,$4,$5,0*
0 Add two circle primitives to create the rounded ends*
1,1,$1,$2,$3*
1,1,$1,$4,$5*%
G04 Aperture macros list end*
%ADD10C,1.600000*%
%ADD11O,1.600000X1.600000*%
%ADD12C,1.800000*%
%ADD13R,1.800000X1.800000*%
%ADD14O,1.700000X1.700000*%
%ADD15C,1.700000*%
%ADD16HorizOval,1.700000X-0.088388X0.088388X0.088388X-0.088388X0*%
%ADD17RoundRect,0.250000X-0.088388X0.936916X-0.936916X0.088388X0.088388X-0.936916X0.936916X-0.088388X0*%
%ADD18R,1.600000X1.600000*%
%ADD19RoundRect,0.250000X-0.600000X-0.725000X0.600000X-0.725000X0.600000X0.725000X-0.600000X0.725000X0*%
%ADD20O,1.700000X1.950000*%
%ADD21R,1.700000X1.700000*%
%ADD22RoundRect,0.250000X0.600000X0.725000X-0.600000X0.725000X-0.600000X-0.725000X0.600000X-0.725000X0*%
%ADD23C,6.000000*%
%ADD24O,1.700000X2.000000*%
%ADD25RoundRect,0.250000X-0.600000X-0.750000X0.600000X-0.750000X0.600000X0.750000X-0.600000X0.750000X0*%
%TA.AperFunction,Profile*%
%ADD26C,0.050000*%
%TD*%
%TA.AperFunction,Profile*%
%ADD27C,0.100000*%
%TD*%
G04 APERTURE END LIST*
D10*
X182828600Y-103400200D03*
X171881200Y-101215800D03*
D11*
X161899000Y-96466000D03*
D10*
X169519000Y-96466000D03*
D12*
X156793600Y-100453800D03*
D13*
X154253600Y-100453800D03*
D12*
X156920600Y-94027600D03*
D13*
X154380600Y-94027600D03*
D11*
X162178400Y-91259000D03*
D10*
X169798400Y-91259000D03*
D11*
X171551000Y-93773600D03*
D14*
X182854000Y-52549400D03*
X182854000Y-67357600D03*
X182879400Y-72361400D03*
X182803200Y-59966200D03*
D15*
X178282000Y-55978400D03*
X168807800Y-52422400D03*
D14*
X166471000Y-60372600D03*
D16*
X150525099Y-87443701D03*
X152292866Y-85675934D03*
X154060633Y-83908167D03*
D17*
X155828400Y-82140400D03*
D11*
X168096600Y-99539400D03*
X179958400Y-99514000D03*
D15*
X179958400Y-59920800D03*
X179958400Y-62460800D03*
X179958400Y-65000800D03*
X179958400Y-67540800D03*
X179958400Y-70080800D03*
X179958400Y-72620800D03*
X179958400Y-75160800D03*
D11*
X174522800Y-96694600D03*
X174522800Y-94154600D03*
X174522800Y-91614600D03*
X174522800Y-89074600D03*
X174522800Y-86534600D03*
X174522800Y-83994600D03*
X174522800Y-81454600D03*
X174522800Y-78914600D03*
X182142800Y-78914600D03*
X182142800Y-91614600D03*
X182142800Y-94154600D03*
D18*
X182142800Y-96694600D03*
D19*
X173419800Y-111096400D03*
D20*
X175919800Y-111096400D03*
X178419800Y-111096400D03*
D21*
X188401200Y-57705600D03*
D14*
X185861200Y-57705600D03*
X188401200Y-60245600D03*
X185861200Y-60245600D03*
X188401200Y-62785600D03*
X185861200Y-62785600D03*
X188401200Y-65325600D03*
X185861200Y-65325600D03*
X188401200Y-67865600D03*
X185861200Y-67865600D03*
X188401200Y-70405600D03*
X185861200Y-70405600D03*
X188401200Y-72945600D03*
X185861200Y-72945600D03*
X188401200Y-75485600D03*
X185861200Y-75485600D03*
X188401200Y-78025600D03*
X185861200Y-78025600D03*
X188401200Y-80565600D03*
X185861200Y-80565600D03*
X188401200Y-83105600D03*
X185861200Y-83105600D03*
X188401200Y-85645600D03*
X185861200Y-85645600D03*
X188401200Y-88185600D03*
X185861200Y-88185600D03*
X188401200Y-90725600D03*
X185861200Y-90725600D03*
X188401200Y-93265600D03*
X185861200Y-93265600D03*
X188401200Y-95805600D03*
X185861200Y-95805600D03*
X188401200Y-98345600D03*
X185861200Y-98345600D03*
X188401200Y-100885600D03*
X185861200Y-100885600D03*
X188401200Y-103425600D03*
X185861200Y-103425600D03*
X188401200Y-105965600D03*
X185861200Y-105965600D03*
D17*
X154964800Y-61693400D03*
D16*
X153197033Y-63461167D03*
X151429266Y-65228934D03*
X151962666Y-75185734D03*
X153730433Y-73417967D03*
D17*
X155498200Y-71650200D03*
D20*
X150625200Y-52524000D03*
X153125200Y-52524000D03*
D22*
X155625200Y-52524000D03*
D20*
X173292800Y-52498600D03*
X175792800Y-52498600D03*
D22*
X178292800Y-52498600D03*
D11*
X162102200Y-104848000D03*
D10*
X169722200Y-104848000D03*
D23*
X187121600Y-110842400D03*
X164134600Y-110842400D03*
X187121600Y-52828800D03*
D24*
X157504800Y-112036200D03*
D25*
X155004800Y-112036200D03*
D10*
X160598200Y-101596800D03*
X163098200Y-101596800D03*
D14*
X149808600Y-94129200D03*
D21*
X147268600Y-94129200D03*
D23*
X164134600Y-52828800D03*
D11*
X163092800Y-60372600D03*
D10*
X163092800Y-67992600D03*
D26*
X144525400Y-52552200D02*
G75*
G02*
X147525400Y-49552200I3000000J0D01*
G01*
D27*
X187575600Y-49552200D02*
G75*
G02*
X190575600Y-52552200I0J-3000000D01*
G01*
X147525400Y-114474600D02*
G75*
G02*
X144525400Y-111474600I0J3000000D01*
G01*
X190575600Y-111474600D02*
G75*
G02*
X187575600Y-114474600I-3000000J0D01*
G01*
X144525400Y-111474600D02*
X144525400Y-52552200D01*
X147525400Y-49552200D02*
X187575600Y-49552200D01*
X190575600Y-52552200D02*
X190575600Y-111474600D01*
X187575600Y-114474600D02*
X147525400Y-114474600D01*
M02*
