M48
; DRILL file {KiCad 8.0.8} date 2025-02-25T22:55:22-0500
; FORMAT={-:-/ absolute / metric / decimal}
; #@! TF.CreationDate,2025-02-25T22:55:22-05:00
; #@! TF.GenerationSoftware,Kicad,Pcbnew,8.0.8
; #@! TF.FileFunction,Plated,1,2,PTH
FMAT,2
METRIC
; #@! TA.AperFunction,Plated,PTH,ComponentDrill
T1C0.800
; #@! TA.AperFunction,Plated,PTH,ComponentDrill
T2C0.900
; #@! TA.AperFunction,Plated,PTH,ComponentDrill
T3C0.950
; #@! TA.AperFunction,Plated,PTH,ComponentDrill
T4C1.000
%
G90
G05
T1
X160.598Y-101.597
X161.899Y-96.466
X162.102Y-104.848
X162.178Y-91.259
X163.093Y-60.373
X163.093Y-67.993
X163.098Y-101.597
X168.097Y-99.539
X169.519Y-96.466
X169.722Y-104.848
X169.798Y-91.259
X171.551Y-93.774
X171.881Y-101.216
X174.523Y-78.915
X174.523Y-81.455
X174.523Y-83.995
X174.523Y-86.535
X174.523Y-89.075
X174.523Y-91.615
X174.523Y-94.155
X174.523Y-96.695
X179.958Y-99.514
X182.143Y-78.915
X182.143Y-91.615
X182.143Y-94.155
X182.143Y-96.695
X182.829Y-103.4
T2
X154.254Y-100.454
X154.381Y-94.028
X156.794Y-100.454
X156.921Y-94.028
T3
X150.525Y-87.444
X150.625Y-52.524
X151.429Y-65.229
X151.963Y-75.186
X152.293Y-85.676
X153.125Y-52.524
X153.197Y-63.461
X153.73Y-73.418
X154.061Y-83.908
X154.965Y-61.693
X155.498Y-71.65
X155.625Y-52.524
X155.828Y-82.14
X173.293Y-52.499
X173.42Y-111.096
X175.793Y-52.499
X175.92Y-111.096
X178.293Y-52.499
X178.42Y-111.096
T4
X147.269Y-94.129
X149.809Y-94.129
X155.005Y-112.036
X157.505Y-112.036
X166.471Y-60.373
X168.808Y-52.422
X178.282Y-55.978
X179.958Y-59.921
X179.958Y-62.461
X179.958Y-65.001
X179.958Y-67.541
X179.958Y-70.081
X179.958Y-72.621
X179.958Y-75.161
X182.803Y-59.966
X182.854Y-52.549
X182.854Y-67.358
X182.879Y-72.361
X185.861Y-57.706
X185.861Y-60.246
X185.861Y-62.786
X185.861Y-65.326
X185.861Y-67.866
X185.861Y-70.406
X185.861Y-72.946
X185.861Y-75.486
X185.861Y-78.026
X185.861Y-80.566
X185.861Y-83.106
X185.861Y-85.646
X185.861Y-88.186
X185.861Y-90.726
X185.861Y-93.266
X185.861Y-95.806
X185.861Y-98.346
X185.861Y-100.886
X185.861Y-103.426
X185.861Y-105.966
X188.401Y-57.706
X188.401Y-60.246
X188.401Y-62.786
X188.401Y-65.326
X188.401Y-67.866
X188.401Y-70.406
X188.401Y-72.946
X188.401Y-75.486
X188.401Y-78.026
X188.401Y-80.566
X188.401Y-83.106
X188.401Y-85.646
X188.401Y-88.186
X188.401Y-90.726
X188.401Y-93.266
X188.401Y-95.806
X188.401Y-98.346
X188.401Y-100.886
X188.401Y-103.426
X188.401Y-105.966
M30
