%TF.GenerationSoftware,KiCad,Pcbnew,8.0.8*%
%TF.CreationDate,2025-02-25T22:54:27-05:00*%
%TF.ProjectId,TPI_v1,5450495f-7631-42e6-9b69-6361645f7063,rev?*%
%TF.SameCoordinates,Original*%
%TF.FileFunction,Legend,Top*%
%TF.FilePolarity,Positive*%
%FSLAX46Y46*%
G04 Gerber Fmt 4.6, Leading zero omitted, Abs format (unit mm)*
G04 Created by KiCad (PCBNEW 8.0.8) date 2025-02-25 22:54:27*
%MOMM*%
%LPD*%
G01*
G04 APERTURE LIST*
%ADD10C,0.150000*%
%ADD11C,0.100000*%
%ADD12C,0.000000*%
%ADD13C,0.120000*%
%ADD14C,0.050000*%
%TA.AperFunction,Profile*%
%ADD15C,0.050000*%
%TD*%
%TA.AperFunction,Profile*%
%ADD16C,0.100000*%
%TD*%
G04 APERTURE END LIST*
D10*
X165542333Y-96920819D02*
X165209000Y-96444628D01*
X164970905Y-96920819D02*
X164970905Y-95920819D01*
X164970905Y-95920819D02*
X165351857Y-95920819D01*
X165351857Y-95920819D02*
X165447095Y-95968438D01*
X165447095Y-95968438D02*
X165494714Y-96016057D01*
X165494714Y-96016057D02*
X165542333Y-96111295D01*
X165542333Y-96111295D02*
X165542333Y-96254152D01*
X165542333Y-96254152D02*
X165494714Y-96349390D01*
X165494714Y-96349390D02*
X165447095Y-96397009D01*
X165447095Y-96397009D02*
X165351857Y-96444628D01*
X165351857Y-96444628D02*
X164970905Y-96444628D01*
X166399476Y-96254152D02*
X166399476Y-96920819D01*
X166161381Y-95873200D02*
X165923286Y-96587485D01*
X165923286Y-96587485D02*
X166542333Y-96587485D01*
X154785505Y-97948619D02*
X154785505Y-96948619D01*
X154785505Y-96948619D02*
X155023600Y-96948619D01*
X155023600Y-96948619D02*
X155166457Y-96996238D01*
X155166457Y-96996238D02*
X155261695Y-97091476D01*
X155261695Y-97091476D02*
X155309314Y-97186714D01*
X155309314Y-97186714D02*
X155356933Y-97377190D01*
X155356933Y-97377190D02*
X155356933Y-97520047D01*
X155356933Y-97520047D02*
X155309314Y-97710523D01*
X155309314Y-97710523D02*
X155261695Y-97805761D01*
X155261695Y-97805761D02*
X155166457Y-97901000D01*
X155166457Y-97901000D02*
X155023600Y-97948619D01*
X155023600Y-97948619D02*
X154785505Y-97948619D01*
X155737886Y-97043857D02*
X155785505Y-96996238D01*
X155785505Y-96996238D02*
X155880743Y-96948619D01*
X155880743Y-96948619D02*
X156118838Y-96948619D01*
X156118838Y-96948619D02*
X156214076Y-96996238D01*
X156214076Y-96996238D02*
X156261695Y-97043857D01*
X156261695Y-97043857D02*
X156309314Y-97139095D01*
X156309314Y-97139095D02*
X156309314Y-97234333D01*
X156309314Y-97234333D02*
X156261695Y-97377190D01*
X156261695Y-97377190D02*
X155690267Y-97948619D01*
X155690267Y-97948619D02*
X156309314Y-97948619D01*
X154912505Y-91522419D02*
X154912505Y-90522419D01*
X154912505Y-90522419D02*
X155150600Y-90522419D01*
X155150600Y-90522419D02*
X155293457Y-90570038D01*
X155293457Y-90570038D02*
X155388695Y-90665276D01*
X155388695Y-90665276D02*
X155436314Y-90760514D01*
X155436314Y-90760514D02*
X155483933Y-90950990D01*
X155483933Y-90950990D02*
X155483933Y-91093847D01*
X155483933Y-91093847D02*
X155436314Y-91284323D01*
X155436314Y-91284323D02*
X155388695Y-91379561D01*
X155388695Y-91379561D02*
X155293457Y-91474800D01*
X155293457Y-91474800D02*
X155150600Y-91522419D01*
X155150600Y-91522419D02*
X154912505Y-91522419D01*
X156436314Y-91522419D02*
X155864886Y-91522419D01*
X156150600Y-91522419D02*
X156150600Y-90522419D01*
X156150600Y-90522419D02*
X156055362Y-90665276D01*
X156055362Y-90665276D02*
X155960124Y-90760514D01*
X155960124Y-90760514D02*
X155864886Y-90808133D01*
X165821733Y-91713819D02*
X165488400Y-91237628D01*
X165250305Y-91713819D02*
X165250305Y-90713819D01*
X165250305Y-90713819D02*
X165631257Y-90713819D01*
X165631257Y-90713819D02*
X165726495Y-90761438D01*
X165726495Y-90761438D02*
X165774114Y-90809057D01*
X165774114Y-90809057D02*
X165821733Y-90904295D01*
X165821733Y-90904295D02*
X165821733Y-91047152D01*
X165821733Y-91047152D02*
X165774114Y-91142390D01*
X165774114Y-91142390D02*
X165726495Y-91190009D01*
X165726495Y-91190009D02*
X165631257Y-91237628D01*
X165631257Y-91237628D02*
X165250305Y-91237628D01*
X166155067Y-90713819D02*
X166774114Y-90713819D01*
X166774114Y-90713819D02*
X166440781Y-91094771D01*
X166440781Y-91094771D02*
X166583638Y-91094771D01*
X166583638Y-91094771D02*
X166678876Y-91142390D01*
X166678876Y-91142390D02*
X166726495Y-91190009D01*
X166726495Y-91190009D02*
X166774114Y-91285247D01*
X166774114Y-91285247D02*
X166774114Y-91523342D01*
X166774114Y-91523342D02*
X166726495Y-91618580D01*
X166726495Y-91618580D02*
X166678876Y-91666200D01*
X166678876Y-91666200D02*
X166583638Y-91713819D01*
X166583638Y-91713819D02*
X166297924Y-91713819D01*
X166297924Y-91713819D02*
X166202686Y-91666200D01*
X166202686Y-91666200D02*
X166155067Y-91618580D01*
X159956996Y-80720601D02*
X160462072Y-81225677D01*
X160462072Y-81225677D02*
X160529416Y-81360364D01*
X160529416Y-81360364D02*
X160529416Y-81495051D01*
X160529416Y-81495051D02*
X160462072Y-81629738D01*
X160462072Y-81629738D02*
X160394729Y-81697082D01*
X160327385Y-80484898D02*
X160327385Y-80417555D01*
X160327385Y-80417555D02*
X160361057Y-80316540D01*
X160361057Y-80316540D02*
X160529416Y-80148181D01*
X160529416Y-80148181D02*
X160630431Y-80114509D01*
X160630431Y-80114509D02*
X160697775Y-80114509D01*
X160697775Y-80114509D02*
X160798790Y-80148181D01*
X160798790Y-80148181D02*
X160866133Y-80215524D01*
X160866133Y-80215524D02*
X160933477Y-80350211D01*
X160933477Y-80350211D02*
X160933477Y-81158333D01*
X160933477Y-81158333D02*
X161371210Y-80720601D01*
D11*
X175370180Y-66748095D02*
X174560657Y-66748095D01*
X174560657Y-66748095D02*
X174465419Y-66795714D01*
X174465419Y-66795714D02*
X174417800Y-66843333D01*
X174417800Y-66843333D02*
X174370180Y-66938571D01*
X174370180Y-66938571D02*
X174370180Y-67129047D01*
X174370180Y-67129047D02*
X174417800Y-67224285D01*
X174417800Y-67224285D02*
X174465419Y-67271904D01*
X174465419Y-67271904D02*
X174560657Y-67319523D01*
X174560657Y-67319523D02*
X175370180Y-67319523D01*
X174370180Y-68319523D02*
X174370180Y-67748095D01*
X174370180Y-68033809D02*
X175370180Y-68033809D01*
X175370180Y-68033809D02*
X175227323Y-67938571D01*
X175227323Y-67938571D02*
X175132085Y-67843333D01*
X175132085Y-67843333D02*
X175084466Y-67748095D01*
D10*
X175586466Y-105451219D02*
X175586466Y-106165504D01*
X175586466Y-106165504D02*
X175538847Y-106308361D01*
X175538847Y-106308361D02*
X175443609Y-106403600D01*
X175443609Y-106403600D02*
X175300752Y-106451219D01*
X175300752Y-106451219D02*
X175205514Y-106451219D01*
X176491228Y-105784552D02*
X176491228Y-106451219D01*
X176253133Y-105403600D02*
X176015038Y-106117885D01*
X176015038Y-106117885D02*
X176634085Y-106117885D01*
X189074666Y-54595019D02*
X189074666Y-55309304D01*
X189074666Y-55309304D02*
X189027047Y-55452161D01*
X189027047Y-55452161D02*
X188931809Y-55547400D01*
X188931809Y-55547400D02*
X188788952Y-55595019D01*
X188788952Y-55595019D02*
X188693714Y-55595019D01*
X190074666Y-55595019D02*
X189503238Y-55595019D01*
X189788952Y-55595019D02*
X189788952Y-54595019D01*
X189788952Y-54595019D02*
X189693714Y-54737876D01*
X189693714Y-54737876D02*
X189598476Y-54833114D01*
X189598476Y-54833114D02*
X189503238Y-54880733D01*
X158587150Y-60373446D02*
X159159570Y-60945866D01*
X159159570Y-60945866D02*
X159260585Y-60979538D01*
X159260585Y-60979538D02*
X159327929Y-60979538D01*
X159327929Y-60979538D02*
X159428944Y-60945866D01*
X159428944Y-60945866D02*
X159563631Y-60811179D01*
X159563631Y-60811179D02*
X159597303Y-60710164D01*
X159597303Y-60710164D02*
X159597303Y-60642820D01*
X159597303Y-60642820D02*
X159563631Y-60541805D01*
X159563631Y-60541805D02*
X158991211Y-59969385D01*
X159630975Y-59329622D02*
X159496288Y-59464309D01*
X159496288Y-59464309D02*
X159462616Y-59565324D01*
X159462616Y-59565324D02*
X159462616Y-59632668D01*
X159462616Y-59632668D02*
X159496288Y-59801027D01*
X159496288Y-59801027D02*
X159597303Y-59969385D01*
X159597303Y-59969385D02*
X159866677Y-60238759D01*
X159866677Y-60238759D02*
X159967692Y-60272431D01*
X159967692Y-60272431D02*
X160035036Y-60272431D01*
X160035036Y-60272431D02*
X160136051Y-60238759D01*
X160136051Y-60238759D02*
X160270738Y-60104072D01*
X160270738Y-60104072D02*
X160304410Y-60003057D01*
X160304410Y-60003057D02*
X160304410Y-59935714D01*
X160304410Y-59935714D02*
X160270738Y-59834698D01*
X160270738Y-59834698D02*
X160102379Y-59666340D01*
X160102379Y-59666340D02*
X160001364Y-59632668D01*
X160001364Y-59632668D02*
X159934020Y-59632668D01*
X159934020Y-59632668D02*
X159833005Y-59666340D01*
X159833005Y-59666340D02*
X159698318Y-59801027D01*
X159698318Y-59801027D02*
X159664646Y-59902042D01*
X159664646Y-59902042D02*
X159664646Y-59969385D01*
X159664646Y-59969385D02*
X159698318Y-60070401D01*
X159018950Y-70330246D02*
X159591370Y-70902666D01*
X159591370Y-70902666D02*
X159692385Y-70936338D01*
X159692385Y-70936338D02*
X159759729Y-70936338D01*
X159759729Y-70936338D02*
X159860744Y-70902666D01*
X159860744Y-70902666D02*
X159995431Y-70767979D01*
X159995431Y-70767979D02*
X160029103Y-70666964D01*
X160029103Y-70666964D02*
X160029103Y-70599620D01*
X160029103Y-70599620D02*
X159995431Y-70498605D01*
X159995431Y-70498605D02*
X159423011Y-69926185D01*
X160096446Y-69252750D02*
X159759729Y-69589468D01*
X159759729Y-69589468D02*
X160062775Y-69959857D01*
X160062775Y-69959857D02*
X160062775Y-69892514D01*
X160062775Y-69892514D02*
X160096446Y-69791498D01*
X160096446Y-69791498D02*
X160264805Y-69623140D01*
X160264805Y-69623140D02*
X160365820Y-69589468D01*
X160365820Y-69589468D02*
X160433164Y-69589468D01*
X160433164Y-69589468D02*
X160534179Y-69623140D01*
X160534179Y-69623140D02*
X160702538Y-69791498D01*
X160702538Y-69791498D02*
X160736210Y-69892514D01*
X160736210Y-69892514D02*
X160736210Y-69959857D01*
X160736210Y-69959857D02*
X160702538Y-70060872D01*
X160702538Y-70060872D02*
X160534179Y-70229231D01*
X160534179Y-70229231D02*
X160433164Y-70262903D01*
X160433164Y-70262903D02*
X160365820Y-70262903D01*
X152450295Y-54950619D02*
X152450295Y-55760142D01*
X152450295Y-55760142D02*
X152497914Y-55855380D01*
X152497914Y-55855380D02*
X152545533Y-55903000D01*
X152545533Y-55903000D02*
X152640771Y-55950619D01*
X152640771Y-55950619D02*
X152831247Y-55950619D01*
X152831247Y-55950619D02*
X152926485Y-55903000D01*
X152926485Y-55903000D02*
X152974104Y-55855380D01*
X152974104Y-55855380D02*
X153021723Y-55760142D01*
X153021723Y-55760142D02*
X153021723Y-54950619D01*
X153926485Y-55283952D02*
X153926485Y-55950619D01*
X153688390Y-54903000D02*
X153450295Y-55617285D01*
X153450295Y-55617285D02*
X154069342Y-55617285D01*
X175030895Y-57053419D02*
X175030895Y-57862942D01*
X175030895Y-57862942D02*
X175078514Y-57958180D01*
X175078514Y-57958180D02*
X175126133Y-58005800D01*
X175126133Y-58005800D02*
X175221371Y-58053419D01*
X175221371Y-58053419D02*
X175411847Y-58053419D01*
X175411847Y-58053419D02*
X175507085Y-58005800D01*
X175507085Y-58005800D02*
X175554704Y-57958180D01*
X175554704Y-57958180D02*
X175602323Y-57862942D01*
X175602323Y-57862942D02*
X175602323Y-57053419D01*
X176030895Y-57148657D02*
X176078514Y-57101038D01*
X176078514Y-57101038D02*
X176173752Y-57053419D01*
X176173752Y-57053419D02*
X176411847Y-57053419D01*
X176411847Y-57053419D02*
X176507085Y-57101038D01*
X176507085Y-57101038D02*
X176554704Y-57148657D01*
X176554704Y-57148657D02*
X176602323Y-57243895D01*
X176602323Y-57243895D02*
X176602323Y-57339133D01*
X176602323Y-57339133D02*
X176554704Y-57481990D01*
X176554704Y-57481990D02*
X175983276Y-58053419D01*
X175983276Y-58053419D02*
X176602323Y-58053419D01*
X165745533Y-105302819D02*
X165412200Y-104826628D01*
X165174105Y-105302819D02*
X165174105Y-104302819D01*
X165174105Y-104302819D02*
X165555057Y-104302819D01*
X165555057Y-104302819D02*
X165650295Y-104350438D01*
X165650295Y-104350438D02*
X165697914Y-104398057D01*
X165697914Y-104398057D02*
X165745533Y-104493295D01*
X165745533Y-104493295D02*
X165745533Y-104636152D01*
X165745533Y-104636152D02*
X165697914Y-104731390D01*
X165697914Y-104731390D02*
X165650295Y-104779009D01*
X165650295Y-104779009D02*
X165555057Y-104826628D01*
X165555057Y-104826628D02*
X165174105Y-104826628D01*
X166126486Y-104398057D02*
X166174105Y-104350438D01*
X166174105Y-104350438D02*
X166269343Y-104302819D01*
X166269343Y-104302819D02*
X166507438Y-104302819D01*
X166507438Y-104302819D02*
X166602676Y-104350438D01*
X166602676Y-104350438D02*
X166650295Y-104398057D01*
X166650295Y-104398057D02*
X166697914Y-104493295D01*
X166697914Y-104493295D02*
X166697914Y-104588533D01*
X166697914Y-104588533D02*
X166650295Y-104731390D01*
X166650295Y-104731390D02*
X166078867Y-105302819D01*
X166078867Y-105302819D02*
X166697914Y-105302819D01*
X155789066Y-108341419D02*
X155789066Y-109055704D01*
X155789066Y-109055704D02*
X155741447Y-109198561D01*
X155741447Y-109198561D02*
X155646209Y-109293800D01*
X155646209Y-109293800D02*
X155503352Y-109341419D01*
X155503352Y-109341419D02*
X155408114Y-109341419D01*
X156170019Y-108341419D02*
X156789066Y-108341419D01*
X156789066Y-108341419D02*
X156455733Y-108722371D01*
X156455733Y-108722371D02*
X156598590Y-108722371D01*
X156598590Y-108722371D02*
X156693828Y-108769990D01*
X156693828Y-108769990D02*
X156741447Y-108817609D01*
X156741447Y-108817609D02*
X156789066Y-108912847D01*
X156789066Y-108912847D02*
X156789066Y-109150942D01*
X156789066Y-109150942D02*
X156741447Y-109246180D01*
X156741447Y-109246180D02*
X156693828Y-109293800D01*
X156693828Y-109293800D02*
X156598590Y-109341419D01*
X156598590Y-109341419D02*
X156312876Y-109341419D01*
X156312876Y-109341419D02*
X156217638Y-109293800D01*
X156217638Y-109293800D02*
X156170019Y-109246180D01*
X161681533Y-104006380D02*
X161633914Y-104054000D01*
X161633914Y-104054000D02*
X161491057Y-104101619D01*
X161491057Y-104101619D02*
X161395819Y-104101619D01*
X161395819Y-104101619D02*
X161252962Y-104054000D01*
X161252962Y-104054000D02*
X161157724Y-103958761D01*
X161157724Y-103958761D02*
X161110105Y-103863523D01*
X161110105Y-103863523D02*
X161062486Y-103673047D01*
X161062486Y-103673047D02*
X161062486Y-103530190D01*
X161062486Y-103530190D02*
X161110105Y-103339714D01*
X161110105Y-103339714D02*
X161157724Y-103244476D01*
X161157724Y-103244476D02*
X161252962Y-103149238D01*
X161252962Y-103149238D02*
X161395819Y-103101619D01*
X161395819Y-103101619D02*
X161491057Y-103101619D01*
X161491057Y-103101619D02*
X161633914Y-103149238D01*
X161633914Y-103149238D02*
X161681533Y-103196857D01*
X162633914Y-104101619D02*
X162062486Y-104101619D01*
X162348200Y-104101619D02*
X162348200Y-103101619D01*
X162348200Y-103101619D02*
X162252962Y-103244476D01*
X162252962Y-103244476D02*
X162157724Y-103339714D01*
X162157724Y-103339714D02*
X162062486Y-103387333D01*
X145436666Y-90891619D02*
X145436666Y-91605904D01*
X145436666Y-91605904D02*
X145389047Y-91748761D01*
X145389047Y-91748761D02*
X145293809Y-91844000D01*
X145293809Y-91844000D02*
X145150952Y-91891619D01*
X145150952Y-91891619D02*
X145055714Y-91891619D01*
X146389047Y-90891619D02*
X145912857Y-90891619D01*
X145912857Y-90891619D02*
X145865238Y-91367809D01*
X145865238Y-91367809D02*
X145912857Y-91320190D01*
X145912857Y-91320190D02*
X146008095Y-91272571D01*
X146008095Y-91272571D02*
X146246190Y-91272571D01*
X146246190Y-91272571D02*
X146341428Y-91320190D01*
X146341428Y-91320190D02*
X146389047Y-91367809D01*
X146389047Y-91367809D02*
X146436666Y-91463047D01*
X146436666Y-91463047D02*
X146436666Y-91701142D01*
X146436666Y-91701142D02*
X146389047Y-91796380D01*
X146389047Y-91796380D02*
X146341428Y-91844000D01*
X146341428Y-91844000D02*
X146246190Y-91891619D01*
X146246190Y-91891619D02*
X146008095Y-91891619D01*
X146008095Y-91891619D02*
X145912857Y-91844000D01*
X145912857Y-91844000D02*
X145865238Y-91796380D01*
X163674619Y-64095266D02*
X163198428Y-64428599D01*
X163674619Y-64666694D02*
X162674619Y-64666694D01*
X162674619Y-64666694D02*
X162674619Y-64285742D01*
X162674619Y-64285742D02*
X162722238Y-64190504D01*
X162722238Y-64190504D02*
X162769857Y-64142885D01*
X162769857Y-64142885D02*
X162865095Y-64095266D01*
X162865095Y-64095266D02*
X163007952Y-64095266D01*
X163007952Y-64095266D02*
X163103190Y-64142885D01*
X163103190Y-64142885D02*
X163150809Y-64190504D01*
X163150809Y-64190504D02*
X163198428Y-64285742D01*
X163198428Y-64285742D02*
X163198428Y-64666694D01*
X163674619Y-63142885D02*
X163674619Y-63714313D01*
X163674619Y-63428599D02*
X162674619Y-63428599D01*
X162674619Y-63428599D02*
X162817476Y-63523837D01*
X162817476Y-63523837D02*
X162912714Y-63619075D01*
X162912714Y-63619075D02*
X162960333Y-63714313D01*
D12*
G36*
X150668732Y-111330840D02*
G01*
X150668732Y-111871841D01*
X150294194Y-111871841D01*
X149919656Y-111871841D01*
X149919656Y-111330840D01*
X149919656Y-110789843D01*
X150294194Y-110789843D01*
X150668732Y-110789843D01*
X150668732Y-111330840D01*
G37*
G36*
X149553441Y-111330840D02*
G01*
X149553441Y-111871841D01*
X147955415Y-111871841D01*
X146357385Y-111871841D01*
X146357385Y-111330840D01*
X146357385Y-110789843D01*
X147955415Y-110789843D01*
X149553441Y-110789843D01*
X149553441Y-111330840D01*
G37*
G36*
X149854077Y-103617718D02*
G01*
X149903133Y-103624340D01*
X149975517Y-103634542D01*
X150066433Y-103647642D01*
X150171081Y-103662962D01*
X150243086Y-103673620D01*
X150353928Y-103689996D01*
X150454032Y-103704592D01*
X150538619Y-103716727D01*
X150602913Y-103725722D01*
X150642130Y-103730893D01*
X150651873Y-103731882D01*
X150654160Y-103748172D01*
X150656285Y-103795617D01*
X150658250Y-103872087D01*
X150660055Y-103975440D01*
X150661700Y-104103546D01*
X150663187Y-104254267D01*
X150664515Y-104425467D01*
X150665683Y-104615012D01*
X150666696Y-104820767D01*
X150667548Y-105040598D01*
X150668243Y-105272365D01*
X150668784Y-105513938D01*
X150669168Y-105763178D01*
X150669392Y-106017953D01*
X150669463Y-106276125D01*
X150669380Y-106535560D01*
X150669140Y-106794122D01*
X150668748Y-107049677D01*
X150668200Y-107300087D01*
X150667497Y-107543220D01*
X150666643Y-107776936D01*
X150665636Y-107999107D01*
X150664476Y-108207592D01*
X150663163Y-108400257D01*
X150661699Y-108574969D01*
X150660083Y-108729591D01*
X150658316Y-108861987D01*
X150656400Y-108970022D01*
X150654333Y-109051562D01*
X150652115Y-109104470D01*
X150650881Y-109120182D01*
X150611417Y-109361200D01*
X150549533Y-109580240D01*
X150465770Y-109776452D01*
X150360669Y-109948978D01*
X150234775Y-110096964D01*
X150088632Y-110219555D01*
X149922784Y-110315895D01*
X149878040Y-110335891D01*
X149722977Y-110385836D01*
X149550102Y-110414704D01*
X149367109Y-110422825D01*
X149181691Y-110410521D01*
X149001541Y-110378124D01*
X148834350Y-110325951D01*
X148748955Y-110288076D01*
X148563020Y-110176509D01*
X148396480Y-110038137D01*
X148249951Y-109873651D01*
X148124061Y-109683741D01*
X148027438Y-109488180D01*
X147986143Y-109379132D01*
X147946339Y-109252516D01*
X147911043Y-109119827D01*
X147883269Y-108992553D01*
X147866032Y-108882186D01*
X147864487Y-108867214D01*
X147857636Y-108800993D01*
X147850469Y-108741956D01*
X147844880Y-108704914D01*
X147836247Y-108659135D01*
X148218266Y-108659135D01*
X148600279Y-108659135D01*
X148620413Y-108763174D01*
X148662762Y-108912673D01*
X148727024Y-109038136D01*
X148812628Y-109138815D01*
X148919014Y-109213955D01*
X148979991Y-109241778D01*
X149081331Y-109268804D01*
X149199664Y-109281482D01*
X149322392Y-109279788D01*
X149436924Y-109263699D01*
X149508201Y-109242820D01*
X149630798Y-109181029D01*
X149731500Y-109098071D01*
X149811060Y-108992622D01*
X149870230Y-108863356D01*
X149909764Y-108708950D01*
X149930409Y-108528083D01*
X149931999Y-108496835D01*
X149940797Y-108292921D01*
X148149095Y-108292921D01*
X146357385Y-108292921D01*
X146357385Y-107735280D01*
X146357385Y-107177635D01*
X148088585Y-107177635D01*
X149819779Y-107177635D01*
X149819817Y-106998687D01*
X149820328Y-106927744D01*
X149821731Y-106831472D01*
X149823876Y-106717821D01*
X149826604Y-106594740D01*
X149829763Y-106470176D01*
X149830796Y-106432796D01*
X149841737Y-106045851D01*
X148103726Y-106041612D01*
X146365709Y-106037372D01*
X146361324Y-105483888D01*
X146356937Y-104930405D01*
X148098272Y-104930405D01*
X149839604Y-104930405D01*
X149827370Y-104272880D01*
X149824304Y-104091154D01*
X149822493Y-103941197D01*
X149821945Y-103821508D01*
X149822679Y-103730588D01*
X149824703Y-103666938D01*
X149828032Y-103629056D01*
X149832678Y-103615444D01*
X149833145Y-103615359D01*
X149854077Y-103617718D01*
G37*
G36*
X150692703Y-98722130D02*
G01*
X150788672Y-98888547D01*
X150885535Y-99056250D01*
X150980838Y-99221006D01*
X151072126Y-99378583D01*
X151156944Y-99524748D01*
X151232837Y-99655267D01*
X151297349Y-99765907D01*
X151348027Y-99852433D01*
X151359982Y-99872747D01*
X151418598Y-99972816D01*
X151473596Y-100067881D01*
X151521765Y-100152303D01*
X151559897Y-100220445D01*
X151584783Y-100266666D01*
X151589358Y-100275768D01*
X151627562Y-100354480D01*
X151076108Y-101316963D01*
X150975704Y-101492197D01*
X150876317Y-101665646D01*
X150779923Y-101833864D01*
X150688497Y-101993401D01*
X150604014Y-102140814D01*
X150528450Y-102272654D01*
X150463779Y-102385475D01*
X150411978Y-102475830D01*
X150375022Y-102540274D01*
X150372876Y-102544012D01*
X150221101Y-102808579D01*
X149586444Y-102804645D01*
X149420599Y-102803452D01*
X149229236Y-102801793D01*
X149020973Y-102799763D01*
X148804429Y-102797452D01*
X148588216Y-102794951D01*
X148380950Y-102792355D01*
X148196389Y-102789827D01*
X147440987Y-102778943D01*
X147289399Y-102512125D01*
X147246749Y-102437248D01*
X147189928Y-102337787D01*
X147121801Y-102218737D01*
X147045231Y-102085100D01*
X146963083Y-101941871D01*
X146878220Y-101794051D01*
X146793508Y-101646637D01*
X146774604Y-101613763D01*
X146647276Y-101392339D01*
X146535922Y-101198625D01*
X146439484Y-101030748D01*
X146356897Y-100886833D01*
X146287104Y-100765009D01*
X146229042Y-100663400D01*
X146181651Y-100580136D01*
X146143869Y-100513341D01*
X146114635Y-100461143D01*
X146092890Y-100421668D01*
X146077571Y-100393043D01*
X146067617Y-100373396D01*
X146067223Y-100372521D01*
X146792587Y-100372521D01*
X146800894Y-100401133D01*
X146824523Y-100455291D01*
X146861533Y-100531087D01*
X146909987Y-100624616D01*
X146967943Y-100731968D01*
X146997589Y-100785508D01*
X147059365Y-100895716D01*
X147133968Y-101027992D01*
X147217144Y-101174843D01*
X147304640Y-101328777D01*
X147392204Y-101482304D01*
X147475583Y-101627932D01*
X147496852Y-101664969D01*
X147791111Y-102177033D01*
X148847693Y-102185567D01*
X149093766Y-102187272D01*
X149309046Y-102188168D01*
X149493051Y-102188258D01*
X149645300Y-102187547D01*
X149765314Y-102186039D01*
X149852610Y-102183736D01*
X149906709Y-102180643D01*
X149926844Y-102177033D01*
X149938395Y-102160142D01*
X149965018Y-102116722D01*
X150004901Y-102049915D01*
X150056232Y-101962861D01*
X150117198Y-101858701D01*
X150185988Y-101740576D01*
X150260789Y-101611627D01*
X150339790Y-101474996D01*
X150421178Y-101333822D01*
X150503141Y-101191249D01*
X150583866Y-101050414D01*
X150661541Y-100914461D01*
X150734356Y-100786530D01*
X150800496Y-100669762D01*
X150858151Y-100567298D01*
X150905507Y-100482279D01*
X150923924Y-100448817D01*
X150982320Y-100342139D01*
X150924383Y-100235459D01*
X150883486Y-100161417D01*
X150830339Y-100067151D01*
X150766961Y-99956094D01*
X150695370Y-99831682D01*
X150617588Y-99697351D01*
X150535631Y-99556536D01*
X150451520Y-99412672D01*
X150367275Y-99269194D01*
X150284913Y-99129538D01*
X150206455Y-98997139D01*
X150133920Y-98875431D01*
X150069327Y-98767851D01*
X150014695Y-98677834D01*
X149972043Y-98608815D01*
X149943392Y-98564229D01*
X149934944Y-98552168D01*
X149904589Y-98511925D01*
X149809374Y-98663203D01*
X149751975Y-98756103D01*
X149681976Y-98872479D01*
X149598749Y-99013411D01*
X149501662Y-99179982D01*
X149390086Y-99373273D01*
X149263389Y-99594366D01*
X149122476Y-99841644D01*
X149046288Y-99975231D01*
X148984694Y-100082005D01*
X148935704Y-100164993D01*
X148897328Y-100227222D01*
X148867580Y-100271720D01*
X148844469Y-100301512D01*
X148826011Y-100319628D01*
X148810211Y-100329093D01*
X148800304Y-100332065D01*
X148759300Y-100336990D01*
X148696364Y-100340373D01*
X148617943Y-100342295D01*
X148530479Y-100342843D01*
X148440419Y-100342101D01*
X148354207Y-100340152D01*
X148278289Y-100337083D01*
X148219109Y-100332978D01*
X148183112Y-100327920D01*
X148175159Y-100323869D01*
X148180223Y-100307787D01*
X148195949Y-100274076D01*
X148223138Y-100221287D01*
X148262590Y-100147967D01*
X148315108Y-100052665D01*
X148381490Y-99933929D01*
X148462540Y-99790308D01*
X148559058Y-99620352D01*
X148671844Y-99422607D01*
X148692600Y-99386286D01*
X148799067Y-99199128D01*
X148888764Y-99039391D01*
X148962608Y-98905293D01*
X149021507Y-98795053D01*
X149066376Y-98706889D01*
X149098124Y-98639019D01*
X149117667Y-98589661D01*
X149125913Y-98557034D01*
X149124972Y-98541730D01*
X149102230Y-98525113D01*
X149057007Y-98516703D01*
X148999962Y-98516514D01*
X148941755Y-98524564D01*
X148893048Y-98540869D01*
X148892071Y-98541368D01*
X148874864Y-98551078D01*
X148857716Y-98563269D01*
X148839388Y-98579913D01*
X148818639Y-98602984D01*
X148794232Y-98634457D01*
X148764928Y-98676301D01*
X148729489Y-98730491D01*
X148686676Y-98798999D01*
X148635251Y-98883799D01*
X148573974Y-98986863D01*
X148501608Y-99110163D01*
X148416913Y-99255674D01*
X148318651Y-99425367D01*
X148205584Y-99621216D01*
X148109775Y-99787403D01*
X147785154Y-100350673D01*
X147442490Y-100355292D01*
X147338536Y-100356263D01*
X147247266Y-100356290D01*
X147173779Y-100355443D01*
X147123172Y-100353785D01*
X147100545Y-100351387D01*
X147099825Y-100350806D01*
X147108045Y-100334419D01*
X147131422Y-100291872D01*
X147168034Y-100226563D01*
X147215959Y-100141893D01*
X147273272Y-100041256D01*
X147338053Y-99928053D01*
X147401830Y-99817053D01*
X147484378Y-99673317D01*
X147572287Y-99519660D01*
X147661358Y-99363460D01*
X147747395Y-99212092D01*
X147826201Y-99072933D01*
X147893577Y-98953361D01*
X147913703Y-98917466D01*
X147981622Y-98796038D01*
X148033513Y-98701354D01*
X148069724Y-98630205D01*
X148090606Y-98579382D01*
X148096509Y-98545675D01*
X148087783Y-98525878D01*
X148064776Y-98516779D01*
X148027840Y-98515173D01*
X147977322Y-98517848D01*
X147957122Y-98519163D01*
X147895467Y-98524368D01*
X147855369Y-98534136D01*
X147824274Y-98554332D01*
X147789625Y-98590822D01*
X147780040Y-98601897D01*
X147741845Y-98651620D01*
X147691705Y-98725164D01*
X147631513Y-98819134D01*
X147563164Y-98930133D01*
X147488550Y-99054768D01*
X147409566Y-99189641D01*
X147328105Y-99331358D01*
X147246061Y-99476524D01*
X147165328Y-99621742D01*
X147087797Y-99763618D01*
X147015365Y-99898756D01*
X146949923Y-100023760D01*
X146893366Y-100135236D01*
X146847587Y-100229787D01*
X146814479Y-100304018D01*
X146795938Y-100354532D01*
X146792587Y-100372521D01*
X146067223Y-100372521D01*
X146061969Y-100360852D01*
X146059564Y-100353538D01*
X146059239Y-100350673D01*
X146067577Y-100332787D01*
X146091303Y-100288403D01*
X146128705Y-100220568D01*
X146178071Y-100132332D01*
X146237689Y-100026741D01*
X146305848Y-99906844D01*
X146380835Y-99775689D01*
X146442739Y-99667921D01*
X146537798Y-99502736D01*
X146640968Y-99323397D01*
X146748097Y-99137130D01*
X146855030Y-98951157D01*
X146957614Y-98772702D01*
X147051695Y-98608990D01*
X147133120Y-98467243D01*
X147137104Y-98460304D01*
X147448315Y-97918369D01*
X148013759Y-97918369D01*
X148155640Y-97918101D01*
X148324492Y-97917336D01*
X148513156Y-97916133D01*
X148714471Y-97914549D01*
X148921272Y-97912644D01*
X149126403Y-97910475D01*
X149322701Y-97908100D01*
X149397898Y-97907095D01*
X149904589Y-97900118D01*
X150216596Y-97895821D01*
X150692703Y-98722130D01*
G37*
D13*
X162439000Y-95096000D02*
X162439000Y-95426000D01*
X162439000Y-97836000D02*
X162439000Y-97506000D01*
X168979000Y-95096000D02*
X162439000Y-95096000D01*
X168979000Y-95426000D02*
X168979000Y-95096000D01*
X168979000Y-97506000D02*
X168979000Y-97836000D01*
X168979000Y-97836000D02*
X162439000Y-97836000D01*
X157194997Y-101533861D02*
G75*
G02*
X153963600Y-101689316I-1671397J1080061D01*
G01*
X156564510Y-101533849D02*
G75*
G02*
X154482639Y-101533800I-1040910J1080049D01*
G01*
X154482639Y-99373800D02*
G75*
G02*
X156564510Y-99373751I1040961J-1080000D01*
G01*
X153963600Y-99218284D02*
G75*
G02*
X157194997Y-99373739I1560000J-1235516D01*
G01*
X153963600Y-101533800D02*
X153963600Y-101689800D01*
X153963600Y-99217800D02*
X153963600Y-99373800D01*
X157321997Y-95107661D02*
G75*
G02*
X154090600Y-95263116I-1671397J1080061D01*
G01*
X156691510Y-95107649D02*
G75*
G02*
X154609639Y-95107600I-1040910J1080049D01*
G01*
X154609639Y-92947600D02*
G75*
G02*
X156691510Y-92947551I1040961J-1080000D01*
G01*
X154090600Y-92792084D02*
G75*
G02*
X157321997Y-92947539I1560000J-1235516D01*
G01*
X154090600Y-95107600D02*
X154090600Y-95263600D01*
X154090600Y-92791600D02*
X154090600Y-92947600D01*
X162718400Y-89889000D02*
X162718400Y-90219000D01*
X162718400Y-92629000D02*
X162718400Y-92299000D01*
X169258400Y-89889000D02*
X162718400Y-89889000D01*
X169258400Y-90219000D02*
X169258400Y-89889000D01*
X169258400Y-92299000D02*
X169258400Y-92629000D01*
X169258400Y-92629000D02*
X162718400Y-92629000D01*
X146232961Y-86771949D02*
X150454388Y-90993377D01*
X150454388Y-90993377D02*
X159378076Y-82069689D01*
X148863398Y-89388245D02*
X149393728Y-88857914D01*
X149924058Y-90448905D02*
X150454388Y-90979235D01*
X150454388Y-90979235D02*
X151727181Y-89706443D01*
X147307763Y-86771949D02*
X151232206Y-82847507D01*
X149393728Y-88857914D02*
X147307763Y-86771949D01*
X151196851Y-89176112D02*
X149924058Y-90448905D01*
X151727181Y-89706443D02*
X151196851Y-89176112D01*
X152257511Y-88115452D02*
X152787841Y-88645782D01*
X152787841Y-88645782D02*
X157030482Y-84403142D01*
X156500151Y-83872812D02*
X152257511Y-88115452D01*
X157030482Y-84403142D02*
X156500151Y-83872812D01*
X157560812Y-82812151D02*
X158091142Y-83342482D01*
X158091142Y-83342482D02*
X159363934Y-82069689D01*
X158904314Y-82953573D02*
X159788198Y-82069689D01*
X155156649Y-78923064D02*
X151232206Y-82847507D01*
X157242614Y-81009029D02*
X155156649Y-78923064D01*
X157772944Y-80478699D02*
X157242614Y-81009029D01*
X158833604Y-81539359D02*
X157560812Y-82812151D01*
X159363934Y-82069689D02*
X158833604Y-81539359D01*
X155156649Y-77848262D02*
X146232961Y-86771949D01*
X159378076Y-82069689D02*
X155156649Y-77848262D01*
X159788198Y-82069689D02*
X158904314Y-81185806D01*
D14*
X173678400Y-74410800D02*
G75*
G02*
X170678400Y-74410800I-1500000J0D01*
G01*
X170678400Y-74410800D02*
G75*
G02*
X173678400Y-74410800I1500000J0D01*
G01*
X173678400Y-60860800D02*
G75*
G02*
X170678400Y-60860800I-1500000J0D01*
G01*
X170678400Y-60860800D02*
G75*
G02*
X173678400Y-60860800I1500000J0D01*
G01*
D11*
X170378400Y-76560800D02*
G75*
G02*
X168378400Y-74560800I0J2000000D01*
G01*
X168378400Y-60560800D02*
G75*
G02*
X170378400Y-58560800I1999999J1D01*
G01*
X181378400Y-74560800D02*
G75*
G02*
X179378400Y-76560800I-2000000J0D01*
G01*
X179378400Y-58560800D02*
G75*
G02*
X181378400Y-60560800I1J-1999999D01*
G01*
X168378400Y-74560800D02*
X168378400Y-60560800D01*
X179378400Y-76560800D02*
X170378400Y-76560800D01*
X170378400Y-58560800D02*
X179378400Y-58560800D01*
X181378400Y-60560800D02*
X181378400Y-74560800D01*
D13*
X177332800Y-98024600D02*
G75*
G02*
X179332800Y-98024600I1000000J0D01*
G01*
X180982800Y-98024600D02*
X180982800Y-77584600D01*
X180982800Y-77584600D02*
X175682800Y-77584600D01*
X179332800Y-98024600D02*
X180982800Y-98024600D01*
X175682800Y-98024600D02*
X177332800Y-98024600D01*
X175682800Y-77584600D02*
X175682800Y-98024600D01*
X170859800Y-107086400D02*
X172279800Y-107086400D01*
X170859800Y-118806400D02*
X170859800Y-107086400D01*
X172279800Y-107086400D02*
X172279800Y-111586400D01*
X173119800Y-108996400D02*
X173719800Y-108996400D01*
X173169800Y-112696400D02*
X173169800Y-118196400D01*
X173169800Y-118196400D02*
X173669800Y-118196400D01*
X173419800Y-109596400D02*
X173119800Y-108996400D01*
X173669800Y-112696400D02*
X173169800Y-112696400D01*
X173669800Y-118196400D02*
X173669800Y-112696400D01*
X173719800Y-108996400D02*
X173419800Y-109596400D01*
X175669800Y-112696400D02*
X175669800Y-118196400D01*
X175669800Y-118196400D02*
X176169800Y-118196400D01*
X175919800Y-118806400D02*
X170859800Y-118806400D01*
X175919800Y-118806400D02*
X180979800Y-118806400D01*
X176169800Y-112696400D02*
X175669800Y-112696400D01*
X176169800Y-118196400D02*
X176169800Y-112696400D01*
X178169800Y-112696400D02*
X178169800Y-118196400D01*
X178169800Y-118196400D02*
X178669800Y-118196400D01*
X178669800Y-112696400D02*
X178169800Y-112696400D01*
X178669800Y-118196400D02*
X178669800Y-112696400D01*
X179559800Y-107086400D02*
X179559800Y-111586400D01*
X180979800Y-107086400D02*
X179559800Y-107086400D01*
X180979800Y-118806400D02*
X180979800Y-107086400D01*
X184531200Y-56375600D02*
X184531200Y-107295600D01*
X187131200Y-56375600D02*
X184531200Y-56375600D01*
X187131200Y-58975600D02*
X187131200Y-56375600D01*
X189731200Y-56375600D02*
X188401200Y-56375600D01*
X189731200Y-57705600D02*
X189731200Y-56375600D01*
X189731200Y-58975600D02*
X187131200Y-58975600D01*
X189731200Y-58975600D02*
X189731200Y-107295600D01*
X189731200Y-107295600D02*
X184531200Y-107295600D01*
X158924598Y-61622689D02*
X158040714Y-60738806D01*
X158514476Y-61622689D02*
X154293049Y-57401262D01*
X154293049Y-57401262D02*
X147137128Y-64557182D01*
X158500334Y-61622689D02*
X157970004Y-61092359D01*
X157970004Y-61092359D02*
X156697212Y-62365151D01*
X156909344Y-60031699D02*
X156379014Y-60562029D01*
X156379014Y-60562029D02*
X154293049Y-58476064D01*
X154293049Y-58476064D02*
X151252489Y-61516623D01*
X158040714Y-62506573D02*
X158924598Y-61622689D01*
X157227542Y-62895482D02*
X158500334Y-61622689D01*
X156697212Y-62365151D02*
X157227542Y-62895482D01*
X156166882Y-63956142D02*
X155636551Y-63425812D01*
X155636551Y-63425812D02*
X153161678Y-65900685D01*
X153692008Y-66431015D02*
X156166882Y-63956142D01*
X153161678Y-65900685D02*
X153692008Y-66431015D01*
X152631348Y-67491676D02*
X152101018Y-66961346D01*
X152101018Y-66961346D02*
X150828225Y-68234138D01*
X150297895Y-66643147D02*
X148211930Y-64557182D01*
X148211930Y-64557182D02*
X151252489Y-61516623D01*
X151358555Y-68764468D02*
X152631348Y-67491676D01*
X150828225Y-68234138D02*
X151358555Y-68764468D01*
X149767565Y-67173478D02*
X150297895Y-66643147D01*
X151358555Y-68778610D02*
X158514476Y-61622689D01*
X147137128Y-64557182D02*
X151358555Y-68778610D01*
X147670528Y-74513982D02*
X151891955Y-78735410D01*
X151891955Y-78735410D02*
X159047876Y-71579489D01*
X150300965Y-77130278D02*
X150831295Y-76599947D01*
X151361625Y-78190938D02*
X151891955Y-78721268D01*
X151891955Y-78721268D02*
X153164748Y-77448476D01*
X148745330Y-74513982D02*
X151785889Y-71473423D01*
X150831295Y-76599947D02*
X148745330Y-74513982D01*
X152634418Y-76918146D02*
X151361625Y-78190938D01*
X153164748Y-77448476D02*
X152634418Y-76918146D01*
X153695078Y-75857485D02*
X154225408Y-76387815D01*
X154225408Y-76387815D02*
X156700282Y-73912942D01*
X156169951Y-73382612D02*
X153695078Y-75857485D01*
X156700282Y-73912942D02*
X156169951Y-73382612D01*
X157230612Y-72321951D02*
X157760942Y-72852282D01*
X157760942Y-72852282D02*
X159033734Y-71579489D01*
X158574114Y-72463373D02*
X159457998Y-71579489D01*
X154826449Y-68432864D02*
X151785889Y-71473423D01*
X156912414Y-70518829D02*
X154826449Y-68432864D01*
X157442744Y-69988499D02*
X156912414Y-70518829D01*
X158503404Y-71049159D02*
X157230612Y-72321951D01*
X159033734Y-71579489D02*
X158503404Y-71049159D01*
X154826449Y-67358062D02*
X147670528Y-74513982D01*
X159047876Y-71579489D02*
X154826449Y-67358062D01*
X159457998Y-71579489D02*
X158574114Y-70695606D01*
X148065200Y-44814000D02*
X148065200Y-56534000D01*
X148065200Y-56534000D02*
X149485200Y-56534000D01*
X149485200Y-56534000D02*
X149485200Y-52034000D01*
X150375200Y-45424000D02*
X150375200Y-50924000D01*
X150375200Y-50924000D02*
X150875200Y-50924000D01*
X150875200Y-45424000D02*
X150375200Y-45424000D01*
X150875200Y-50924000D02*
X150875200Y-45424000D01*
X152875200Y-45424000D02*
X152875200Y-50924000D01*
X152875200Y-50924000D02*
X153375200Y-50924000D01*
X153125200Y-44814000D02*
X148065200Y-44814000D01*
X153125200Y-44814000D02*
X158185200Y-44814000D01*
X153375200Y-45424000D02*
X152875200Y-45424000D01*
X153375200Y-50924000D02*
X153375200Y-45424000D01*
X155325200Y-54624000D02*
X155625200Y-54024000D01*
X155375200Y-45424000D02*
X155375200Y-50924000D01*
X155375200Y-50924000D02*
X155875200Y-50924000D01*
X155625200Y-54024000D02*
X155925200Y-54624000D01*
X155875200Y-45424000D02*
X155375200Y-45424000D01*
X155875200Y-50924000D02*
X155875200Y-45424000D01*
X155925200Y-54624000D02*
X155325200Y-54624000D01*
X156765200Y-56534000D02*
X156765200Y-52034000D01*
X158185200Y-44814000D02*
X158185200Y-56534000D01*
X158185200Y-56534000D02*
X156765200Y-56534000D01*
X170732800Y-44788600D02*
X170732800Y-56508600D01*
X170732800Y-56508600D02*
X172152800Y-56508600D01*
X172152800Y-56508600D02*
X172152800Y-52008600D01*
X173042800Y-45398600D02*
X173042800Y-50898600D01*
X173042800Y-50898600D02*
X173542800Y-50898600D01*
X173542800Y-45398600D02*
X173042800Y-45398600D01*
X173542800Y-50898600D02*
X173542800Y-45398600D01*
X175542800Y-45398600D02*
X175542800Y-50898600D01*
X175542800Y-50898600D02*
X176042800Y-50898600D01*
X175792800Y-44788600D02*
X170732800Y-44788600D01*
X175792800Y-44788600D02*
X180852800Y-44788600D01*
X176042800Y-45398600D02*
X175542800Y-45398600D01*
X176042800Y-50898600D02*
X176042800Y-45398600D01*
X177992800Y-54598600D02*
X178292800Y-53998600D01*
X178042800Y-45398600D02*
X178042800Y-50898600D01*
X178042800Y-50898600D02*
X178542800Y-50898600D01*
X178292800Y-53998600D02*
X178592800Y-54598600D01*
X178542800Y-45398600D02*
X178042800Y-45398600D01*
X178542800Y-50898600D02*
X178542800Y-45398600D01*
X178592800Y-54598600D02*
X177992800Y-54598600D01*
X179432800Y-56508600D02*
X179432800Y-52008600D01*
X180852800Y-44788600D02*
X180852800Y-56508600D01*
X180852800Y-56508600D02*
X179432800Y-56508600D01*
X169182200Y-103478000D02*
X162642200Y-103478000D01*
X169182200Y-103808000D02*
X169182200Y-103478000D01*
X162642200Y-103478000D02*
X162642200Y-103808000D01*
X162642200Y-106218000D02*
X162642200Y-105888000D01*
X169182200Y-106218000D02*
X162642200Y-106218000D01*
X169182200Y-105888000D02*
X169182200Y-106218000D01*
X156254800Y-119746200D02*
X152444800Y-119746200D01*
X152444800Y-119746200D02*
X152444800Y-108026200D01*
X153864800Y-108026200D02*
X153864800Y-112526200D01*
X152444800Y-108026200D02*
X153864800Y-108026200D01*
X155004800Y-110536200D02*
X154704800Y-109936200D01*
X154754800Y-113636200D02*
X154754800Y-119136200D01*
X155254800Y-113636200D02*
X154754800Y-113636200D01*
X155304800Y-109936200D02*
X155004800Y-110536200D01*
X154754800Y-119136200D02*
X155254800Y-119136200D01*
X155254800Y-119136200D02*
X155254800Y-113636200D01*
X154704800Y-109936200D02*
X155304800Y-109936200D01*
X157254800Y-113636200D02*
X157254800Y-119136200D01*
X157754800Y-113636200D02*
X157254800Y-113636200D01*
X157254800Y-119136200D02*
X157754800Y-119136200D01*
X157754800Y-119136200D02*
X157754800Y-113636200D01*
X158644800Y-108026200D02*
X158644800Y-112526200D01*
X160064800Y-108026200D02*
X158644800Y-108026200D01*
X156254800Y-119746200D02*
X160064800Y-119746200D01*
X160064800Y-119746200D02*
X160064800Y-108026200D01*
X162477200Y-100676800D02*
X161219200Y-100676800D01*
X162477200Y-102516800D02*
X161219200Y-102516800D01*
X151138600Y-95459200D02*
X151138600Y-92799200D01*
X148538600Y-95459200D02*
X148538600Y-92859200D01*
X151138600Y-95459200D02*
X148538600Y-95459200D01*
X151138600Y-92799200D02*
X145938600Y-92799200D01*
X145938600Y-92859200D02*
X145938600Y-92799200D01*
X148538600Y-92859200D02*
X145938600Y-92859200D01*
X145938600Y-95459200D02*
X145938600Y-94129200D01*
X147268600Y-95459200D02*
X145938600Y-95459200D01*
X164462800Y-67452600D02*
X164462800Y-60912600D01*
X164132800Y-67452600D02*
X164462800Y-67452600D01*
X164462800Y-60912600D02*
X164132800Y-60912600D01*
X161722800Y-60912600D02*
X162052800Y-60912600D01*
X161722800Y-67452600D02*
X161722800Y-60912600D01*
X162052800Y-67452600D02*
X161722800Y-67452600D01*
D15*
X144525400Y-52552200D02*
G75*
G02*
X147525400Y-49552200I3000000J0D01*
G01*
D16*
X187575600Y-49552200D02*
G75*
G02*
X190575600Y-52552200I0J-3000000D01*
G01*
X147525400Y-114474600D02*
G75*
G02*
X144525400Y-111474600I0J3000000D01*
G01*
X190575600Y-111474600D02*
G75*
G02*
X187575600Y-114474600I-3000000J0D01*
G01*
X144525400Y-111474600D02*
X144525400Y-52552200D01*
X147525400Y-49552200D02*
X187575600Y-49552200D01*
X190575600Y-52552200D02*
X190575600Y-111474600D01*
X187575600Y-114474600D02*
X147525400Y-114474600D01*
M02*
