%TF.GenerationSoftware,KiCad,Pcbnew,8.0.8*%
%TF.CreationDate,2025-02-21T13:51:55-05:00*%
%TF.ProjectId,TPI_v1,5450495f-7631-42e6-9b69-6361645f7063,rev?*%
%TF.SameCoordinates,Original*%
%TF.FileFunction,Copper,L1,Top*%
%TF.FilePolarity,Positive*%
%FSLAX46Y46*%
G04 Gerber Fmt 4.6, Leading zero omitted, Abs format (unit mm)*
G04 Created by KiCad (PCBNEW 8.0.8) date 2025-02-21 13:51:55*
%MOMM*%
%LPD*%
G01*
G04 APERTURE LIST*
G04 Aperture macros list*
%AMRoundRect*
0 Rectangle with rounded corners*
0 $1 Rounding radius*
0 $2 $3 $4 $5 $6 $7 $8 $9 X,Y pos of 4 corners*
0 Add a 4 corners polygon primitive as box body*
4,1,4,$2,$3,$4,$5,$6,$7,$8,$9,$2,$3,0*
0 Add four circle primitives for the rounded corners*
1,1,$1+$1,$2,$3*
1,1,$1+$1,$4,$5*
1,1,$1+$1,$6,$7*
1,1,$1+$1,$8,$9*
0 Add four rect primitives between the rounded corners*
20,1,$1+$1,$2,$3,$4,$5,0*
20,1,$1+$1,$4,$5,$6,$7,0*
20,1,$1+$1,$6,$7,$8,$9,0*
20,1,$1+$1,$8,$9,$2,$3,0*%
G04 Aperture macros list end*
%TA.AperFunction,ComponentPad*%
%ADD10R,1.700000X1.700000*%
%TD*%
%TA.AperFunction,ComponentPad*%
%ADD11O,1.700000X1.700000*%
%TD*%
%TA.AperFunction,ComponentPad*%
%ADD12R,1.600000X1.600000*%
%TD*%
%TA.AperFunction,ComponentPad*%
%ADD13O,1.600000X1.600000*%
%TD*%
%TA.AperFunction,ComponentPad*%
%ADD14RoundRect,0.250000X-0.600000X-0.725000X0.600000X-0.725000X0.600000X0.725000X-0.600000X0.725000X0*%
%TD*%
%TA.AperFunction,ComponentPad*%
%ADD15O,1.700000X1.950000*%
%TD*%
%TA.AperFunction,ComponentPad*%
%ADD16RoundRect,0.250000X-0.725000X0.600000X-0.725000X-0.600000X0.725000X-0.600000X0.725000X0.600000X0*%
%TD*%
%TA.AperFunction,ComponentPad*%
%ADD17O,1.950000X1.700000*%
%TD*%
%TA.AperFunction,ComponentPad*%
%ADD18C,1.600000*%
%TD*%
%TA.AperFunction,ComponentPad*%
%ADD19C,1.524000*%
%TD*%
%TA.AperFunction,ComponentPad*%
%ADD20RoundRect,0.250000X0.600000X0.750000X-0.600000X0.750000X-0.600000X-0.750000X0.600000X-0.750000X0*%
%TD*%
%TA.AperFunction,ComponentPad*%
%ADD21O,1.700000X2.000000*%
%TD*%
%TA.AperFunction,ComponentPad*%
%ADD22RoundRect,0.250000X0.600000X0.725000X-0.600000X0.725000X-0.600000X-0.725000X0.600000X-0.725000X0*%
%TD*%
%TA.AperFunction,Conductor*%
%ADD23C,0.400000*%
%TD*%
%TA.AperFunction,Profile*%
%ADD24C,0.200000*%
%TD*%
G04 APERTURE END LIST*
D10*
%TO.P,J1,1,3.3V*%
%TO.N,+3.3V*%
X149309800Y-57705600D03*
D11*
%TO.P,J1,2,5V*%
%TO.N,+5V*%
X146769800Y-57705600D03*
%TO.P,J1,3,GPIO2*%
%TO.N,SDA*%
X149309800Y-60245600D03*
%TO.P,J1,4,5V*%
%TO.N,+5V*%
X146769800Y-60245600D03*
%TO.P,J1,5,GPIO3*%
%TO.N,SCL*%
X149309800Y-62785600D03*
%TO.P,J1,6,GND*%
%TO.N,GND*%
X146769800Y-62785600D03*
%TO.P,J1,7,GPIO4*%
%TO.N,DQ*%
X149309800Y-65325600D03*
%TO.P,J1,8,GPIO14*%
%TO.N,unconnected-(J1-GPIO14-Pad8)*%
X146769800Y-65325600D03*
%TO.P,J1,9,GND*%
%TO.N,GND*%
X149309800Y-67865600D03*
%TO.P,J1,10,GPIO15*%
%TO.N,unconnected-(J1-GPIO15-Pad10)*%
X146769800Y-67865600D03*
%TO.P,J1,11,GPIO17*%
%TO.N,unconnected-(J1-GPIO17-Pad11)*%
X149309800Y-70405600D03*
%TO.P,J1,12,GPIO18*%
%TO.N,unconnected-(J1-GPIO18-Pad12)*%
X146769800Y-70405600D03*
%TO.P,J1,13,GPIO27*%
%TO.N,unconnected-(J1-GPIO27-Pad13)*%
X149309800Y-72945600D03*
%TO.P,J1,14,GND*%
%TO.N,GND*%
X146769800Y-72945600D03*
%TO.P,J1,15,GPIO22*%
%TO.N,unconnected-(J1-GPIO22-Pad15)*%
X149309800Y-75485600D03*
%TO.P,J1,16,GPIO23*%
%TO.N,unconnected-(J1-GPIO23-Pad16)*%
X146769800Y-75485600D03*
%TO.P,J1,17,3.3V*%
%TO.N,unconnected-(J1-3.3V-Pad17)*%
X149309800Y-78025600D03*
%TO.P,J1,18,GPIO24*%
%TO.N,unconnected-(J1-GPIO24-Pad18)*%
X146769800Y-78025600D03*
%TO.P,J1,19,GPIO10*%
%TO.N,MOSI*%
X149309800Y-80565600D03*
%TO.P,J1,20,GND*%
%TO.N,unconnected-(J1-GND-Pad20)*%
X146769800Y-80565600D03*
%TO.P,J1,21,GPIO9*%
%TO.N,MISO*%
X149309800Y-83105600D03*
%TO.P,J1,22,GPIO25*%
%TO.N,unconnected-(J1-GPIO25-Pad22)*%
X146769800Y-83105600D03*
%TO.P,J1,23,GPIO11*%
%TO.N,SCLK*%
X149309800Y-85645600D03*
%TO.P,J1,24,GPIO8*%
%TO.N,~{CS}*%
X146769800Y-85645600D03*
%TO.P,J1,25,GND*%
%TO.N,GND*%
X149309800Y-88185600D03*
%TO.P,J1,26,GPIO7*%
%TO.N,unconnected-(J1-GPIO7-Pad26)*%
X146769800Y-88185600D03*
%TO.P,J1,27,SDA0*%
%TO.N,unconnected-(J1-SDA0-Pad27)*%
X149309800Y-90725600D03*
%TO.P,J1,28,SCL0*%
%TO.N,unconnected-(J1-SCL0-Pad28)*%
X146769800Y-90725600D03*
%TO.P,J1,29,GPIO5*%
%TO.N,unconnected-(J1-GPIO5-Pad29)*%
X149309800Y-93265600D03*
%TO.P,J1,30,GND*%
%TO.N,GND*%
X146769800Y-93265600D03*
%TO.P,J1,31,GPIO6*%
%TO.N,unconnected-(J1-GPIO6-Pad31)*%
X149309800Y-95805600D03*
%TO.P,J1,32,GPIO12*%
%TO.N,unconnected-(J1-GPIO12-Pad32)*%
X146769800Y-95805600D03*
%TO.P,J1,33,GPIO13*%
%TO.N,unconnected-(J1-GPIO13-Pad33)*%
X149309800Y-98345600D03*
%TO.P,J1,34,GND*%
%TO.N,unconnected-(J1-GND-Pad34)*%
X146769800Y-98345600D03*
%TO.P,J1,35,GPIO19*%
%TO.N,unconnected-(J1-GPIO19-Pad35)*%
X149309800Y-100885600D03*
%TO.P,J1,36,GPIO16*%
%TO.N,unconnected-(J1-GPIO16-Pad36)*%
X146769800Y-100885600D03*
%TO.P,J1,37,GPIO26*%
%TO.N,unconnected-(J1-GPIO26-Pad37)*%
X149309800Y-103425600D03*
%TO.P,J1,38,GPIO20*%
%TO.N,unconnected-(J1-GPIO20-Pad38)*%
X146769800Y-103425600D03*
%TO.P,J1,39,GND*%
%TO.N,GND*%
X149309800Y-105965600D03*
%TO.P,J1,40,GPIO21*%
%TO.N,unconnected-(J1-GPIO21-Pad40)*%
X146769800Y-105965600D03*
%TD*%
D12*
%TO.P,U3,1,CH0*%
%TO.N,ADC0*%
X160263400Y-95460400D03*
D13*
%TO.P,U3,2,CH1*%
%TO.N,ADC1*%
X160263400Y-92920400D03*
%TO.P,U3,3,CH2*%
%TO.N,unconnected-(U3-CH2-Pad3)*%
X160263400Y-90380400D03*
%TO.P,U3,4,CH3*%
%TO.N,unconnected-(U3-CH3-Pad4)*%
X160263400Y-87840400D03*
%TO.P,U3,5,CH4*%
%TO.N,unconnected-(U3-CH4-Pad5)*%
X160263400Y-85300400D03*
%TO.P,U3,6,CH5*%
%TO.N,unconnected-(U3-CH5-Pad6)*%
X160263400Y-82760400D03*
%TO.P,U3,7,CH6*%
%TO.N,unconnected-(U3-CH6-Pad7)*%
X160263400Y-80220400D03*
%TO.P,U3,8,CH7*%
%TO.N,unconnected-(U3-CH7-Pad8)*%
X160263400Y-77680400D03*
%TO.P,U3,9,DGND*%
%TO.N,GND*%
X152643400Y-77680400D03*
%TO.P,U3,10,~{CS}/SHDN*%
%TO.N,~{CS}*%
X152643400Y-80220400D03*
%TO.P,U3,11,Din*%
%TO.N,MOSI*%
X152643400Y-82760400D03*
%TO.P,U3,12,Dout*%
%TO.N,MISO*%
X152643400Y-85300400D03*
%TO.P,U3,13,CLK*%
%TO.N,SCLK*%
X152643400Y-87840400D03*
%TO.P,U3,14,AGND*%
%TO.N,GND*%
X152643400Y-90380400D03*
%TO.P,U3,15,Vref*%
%TO.N,+5V*%
X152643400Y-92920400D03*
%TO.P,U3,16,Vdd*%
X152643400Y-95460400D03*
%TD*%
D14*
%TO.P,J2,1,Pin_1*%
%TO.N,SCL*%
X155857600Y-53082800D03*
D15*
%TO.P,J2,2,Pin_2*%
%TO.N,SDA*%
X158357600Y-53082800D03*
%TO.P,J2,3,Pin_3*%
%TO.N,+3.3V*%
X160857600Y-53082800D03*
%TO.P,J2,4,Pin_4*%
%TO.N,GND*%
X163357600Y-53082800D03*
%TD*%
D16*
%TO.P,U6,1,GND*%
%TO.N,GND*%
X171987000Y-95399200D03*
D17*
%TO.P,U6,2,DQ*%
%TO.N,DQ*%
X171987000Y-97899200D03*
%TO.P,U6,3,V_{DD}*%
%TO.N,+5V*%
X171987000Y-100399200D03*
%TD*%
D18*
%TO.P,R2,1*%
%TO.N,+5V*%
X165912200Y-77644600D03*
D13*
%TO.P,R2,2*%
%TO.N,ADC1*%
X165912200Y-85264600D03*
%TD*%
D16*
%TO.P,U5,1,GND*%
%TO.N,GND*%
X171987000Y-60285600D03*
D17*
%TO.P,U5,2,DQ*%
%TO.N,DQ*%
X171987000Y-62785600D03*
%TO.P,U5,3,V_{DD}*%
%TO.N,+5V*%
X171987000Y-65285600D03*
%TD*%
D16*
%TO.P,U2,1,GND*%
%TO.N,GND*%
X171987000Y-83694666D03*
D17*
%TO.P,U2,2,DQ*%
%TO.N,DQ*%
X171987000Y-86194666D03*
%TO.P,U2,3,V_{DD}*%
%TO.N,+5V*%
X171987000Y-88694666D03*
%TD*%
D19*
%TO.P,U1,1,VIN*%
%TO.N,+5V*%
X154431400Y-74342600D03*
%TO.P,U1,2,3.3V*%
%TO.N,unconnected-(U1-3.3V-Pad2)*%
X154431400Y-71802600D03*
%TO.P,U1,3,GND*%
%TO.N,GND*%
X154431400Y-69262600D03*
%TO.P,U1,4,SCL*%
%TO.N,SCL*%
X154431400Y-66722600D03*
%TO.P,U1,5,SDA*%
%TO.N,SDA*%
X154431400Y-64182600D03*
%TO.P,U1,6,CS*%
%TO.N,unconnected-(U1-CS-Pad6)*%
X154431400Y-61642600D03*
%TO.P,U1,7,SAO*%
%TO.N,unconnected-(U1-SAO-Pad7)*%
X154431400Y-59102600D03*
%TO.P,U1,8,OCS*%
%TO.N,unconnected-(U1-OCS-Pad8)*%
X164571400Y-71802600D03*
%TO.P,U1,9,INT2*%
%TO.N,unconnected-(U1-INT2-Pad9)*%
X164571400Y-69262600D03*
%TO.P,U1,10,INT1*%
%TO.N,unconnected-(U1-INT1-Pad10)*%
X164571400Y-66722600D03*
%TO.P,U1,11,SCX*%
%TO.N,unconnected-(U1-SCX-Pad11)*%
X164571400Y-64182600D03*
%TO.P,U1,12*%
%TO.N,N/C*%
X164571400Y-61642600D03*
%TD*%
D20*
%TO.P,J3,1,Pin_1*%
%TO.N,ADC1*%
X164094200Y-112442600D03*
D21*
%TO.P,J3,2,Pin_2*%
%TO.N,GND*%
X161594200Y-112442600D03*
%TD*%
D18*
%TO.P,C1,1*%
%TO.N,ADC1*%
X171099200Y-104949600D03*
%TO.P,C1,2*%
%TO.N,GND*%
X168599200Y-104949600D03*
%TD*%
D22*
%TO.P,J4,1,Pin_1*%
%TO.N,+5V*%
X163804000Y-102587400D03*
D15*
%TO.P,J4,2,Pin_2*%
%TO.N,ADC0*%
X161304000Y-102587400D03*
%TO.P,J4,3,Pin_3*%
%TO.N,GND*%
X158804000Y-102587400D03*
%TD*%
D10*
%TO.P,J5,1,Pin_1*%
%TO.N,+5V*%
X152735000Y-112137400D03*
D11*
%TO.P,J5,2,Pin_2*%
%TO.N,GND*%
X155275000Y-112137400D03*
%TD*%
D16*
%TO.P,U4,1,GND*%
%TO.N,GND*%
X171987000Y-71969600D03*
D17*
%TO.P,U4,2,DQ*%
%TO.N,DQ*%
X171987000Y-74469600D03*
%TO.P,U4,3,V_{DD}*%
%TO.N,+5V*%
X171987000Y-76969600D03*
%TD*%
D18*
%TO.P,R1,1*%
%TO.N,+5V*%
X165734400Y-89811200D03*
D13*
%TO.P,R1,2*%
%TO.N,DQ*%
X165734400Y-97431200D03*
%TD*%
D23*
%TO.N,SCL*%
X149309800Y-62785600D02*
X153246800Y-66722600D01*
X153246800Y-66722600D02*
X154431400Y-66722600D01*
%TO.N,SDA*%
X154431400Y-64182600D02*
X158357600Y-60256400D01*
X149309800Y-60245600D02*
X153246800Y-64182600D01*
X153246800Y-64182600D02*
X154431400Y-64182600D01*
X158357600Y-60256400D02*
X158357600Y-53082800D01*
%TO.N,DQ*%
X168382600Y-97431200D02*
X169950800Y-95863000D01*
X168071200Y-75841200D02*
X169950800Y-77720800D01*
X169950800Y-77720800D02*
X169950800Y-64821800D01*
X169950800Y-95863000D02*
X169950800Y-64821800D01*
X149309800Y-65325600D02*
X151942200Y-67958000D01*
X169950800Y-64821800D02*
X171987000Y-62785600D01*
X151942200Y-74368000D02*
X153415400Y-75841200D01*
X153415400Y-75841200D02*
X168071200Y-75841200D01*
X169950800Y-72433400D02*
X169950800Y-64821800D01*
X171987000Y-86194666D02*
X169950800Y-84158466D01*
X169950800Y-95863000D02*
X169950800Y-77720800D01*
X169950800Y-84158466D02*
X169950800Y-77720800D01*
X171987000Y-97899200D02*
X169950800Y-95863000D01*
X165734400Y-97431200D02*
X168382600Y-97431200D01*
X171987000Y-74469600D02*
X169950800Y-72433400D01*
X151942200Y-67958000D02*
X151942200Y-74368000D01*
%TO.N,ADC1*%
X167309200Y-109445400D02*
X167309200Y-108739600D01*
X167283800Y-111401200D02*
X167283800Y-109470800D01*
X164094200Y-112442600D02*
X166242400Y-112442600D01*
X163448400Y-94891200D02*
X163448400Y-87728400D01*
X167309200Y-108739600D02*
X171099200Y-104949600D01*
X166242400Y-112442600D02*
X167283800Y-111401200D01*
X161477600Y-92920400D02*
X160263400Y-92920400D01*
X167283800Y-109470800D02*
X167309200Y-109445400D01*
X163448400Y-87728400D02*
X165912200Y-85264600D01*
X163448400Y-94891200D02*
X161477600Y-92920400D01*
X171099200Y-104949600D02*
X163448400Y-97298800D01*
X163448400Y-97298800D02*
X163448400Y-94891200D01*
%TO.N,~{CS}*%
X148019800Y-80068400D02*
X148772600Y-79315600D01*
X148019800Y-84395600D02*
X148019800Y-80068400D01*
X151738600Y-79315600D02*
X152643400Y-80220400D01*
X146769800Y-85645600D02*
X148019800Y-84395600D01*
X148772600Y-79315600D02*
X151738600Y-79315600D01*
%TO.N,MOSI*%
X152643400Y-82760400D02*
X151504600Y-82760400D01*
X151504600Y-82760400D02*
X149309800Y-80565600D01*
%TO.N,SCLK*%
X151504600Y-87840400D02*
X149309800Y-85645600D01*
X152643400Y-87840400D02*
X151504600Y-87840400D01*
%TO.N,MISO*%
X152643400Y-85300400D02*
X151504600Y-85300400D01*
X151504600Y-85300400D02*
X149309800Y-83105600D01*
%TO.N,ADC0*%
X161304000Y-99249200D02*
X160263400Y-98208600D01*
X161304000Y-102587400D02*
X161304000Y-99249200D01*
X160263400Y-98208600D02*
X160263400Y-95460400D01*
%TD*%
%TA.AperFunction,Conductor*%
%TO.N,~{CS}*%
G36*
X151432598Y-79119042D02*
G01*
X152936222Y-79478114D01*
X152943472Y-79483368D01*
X152944883Y-79492211D01*
X152944318Y-79493958D01*
X152646253Y-80215909D01*
X152639928Y-80222248D01*
X152639910Y-80222256D01*
X151914517Y-80522318D01*
X151905562Y-80522313D01*
X151899501Y-80516576D01*
X151419337Y-79518004D01*
X151418181Y-79512934D01*
X151418181Y-79130423D01*
X151421608Y-79122150D01*
X151429881Y-79118723D01*
X151432598Y-79119042D01*
G37*
%TD.AperFunction*%
%TD*%
%TA.AperFunction,Conductor*%
%TO.N,SCLK*%
G36*
X150093143Y-85324833D02*
G01*
X150099468Y-85331172D01*
X150099507Y-85331267D01*
X150650413Y-86699085D01*
X150650325Y-86708039D01*
X150647833Y-86711729D01*
X150375929Y-86983633D01*
X150367656Y-86987060D01*
X150363285Y-86986213D01*
X148995467Y-86435307D01*
X148989073Y-86429037D01*
X148988985Y-86420083D01*
X148989024Y-86419988D01*
X149307238Y-85649383D01*
X149313559Y-85643048D01*
X150084188Y-85324824D01*
X150093143Y-85324833D01*
G37*
%TD.AperFunction*%
%TD*%
%TA.AperFunction,Conductor*%
%TO.N,SCLK*%
G36*
X152336231Y-87105115D02*
G01*
X152341178Y-87110759D01*
X152641106Y-87833872D01*
X152641111Y-87842827D01*
X152638562Y-87846638D01*
X152084755Y-88399062D01*
X152076477Y-88402479D01*
X152069649Y-88400269D01*
X152067975Y-88399062D01*
X151048211Y-87663744D01*
X151043506Y-87656127D01*
X151045565Y-87647412D01*
X151046776Y-87645988D01*
X151317685Y-87375079D01*
X151322936Y-87372051D01*
X152327354Y-87103938D01*
X152336231Y-87105115D01*
G37*
%TD.AperFunction*%
%TD*%
%TA.AperFunction,Conductor*%
%TO.N,DQ*%
G36*
X150093143Y-65004833D02*
G01*
X150099468Y-65011172D01*
X150099507Y-65011267D01*
X150650413Y-66379085D01*
X150650325Y-66388039D01*
X150647833Y-66391729D01*
X150375929Y-66663633D01*
X150367656Y-66667060D01*
X150363285Y-66666213D01*
X148995467Y-66115307D01*
X148989073Y-66109037D01*
X148988985Y-66100083D01*
X148989024Y-66099988D01*
X149307238Y-65329383D01*
X149313559Y-65323048D01*
X150084188Y-65004824D01*
X150093143Y-65004833D01*
G37*
%TD.AperFunction*%
%TD*%
%TA.AperFunction,Conductor*%
%TO.N,MISO*%
G36*
X150093143Y-82784833D02*
G01*
X150099468Y-82791172D01*
X150099507Y-82791267D01*
X150650413Y-84159085D01*
X150650325Y-84168039D01*
X150647833Y-84171729D01*
X150375929Y-84443633D01*
X150367656Y-84447060D01*
X150363285Y-84446213D01*
X148995467Y-83895307D01*
X148989073Y-83889037D01*
X148988985Y-83880083D01*
X148989024Y-83879988D01*
X149307238Y-83109383D01*
X149313559Y-83103048D01*
X150084188Y-82784824D01*
X150093143Y-82784833D01*
G37*
%TD.AperFunction*%
%TD*%
%TA.AperFunction,Conductor*%
%TO.N,ADC1*%
G36*
X164930491Y-111598723D02*
G01*
X165789493Y-112239091D01*
X165794078Y-112246783D01*
X165794200Y-112248471D01*
X165794200Y-112636728D01*
X165790773Y-112645001D01*
X165789493Y-112646108D01*
X164930491Y-113286476D01*
X164921810Y-113288674D01*
X164915123Y-113285265D01*
X164101166Y-112450767D01*
X164097844Y-112442454D01*
X164101166Y-112434432D01*
X164915124Y-111599932D01*
X164923352Y-111596404D01*
X164930491Y-111598723D01*
G37*
%TD.AperFunction*%
%TD*%
%TA.AperFunction,Conductor*%
%TO.N,SCL*%
G36*
X154138439Y-66022648D02*
G01*
X154143938Y-66028592D01*
X154430245Y-66718819D01*
X154430250Y-66727774D01*
X154430242Y-66727793D01*
X154145111Y-67413804D01*
X154138771Y-67420128D01*
X154129816Y-67420117D01*
X154128072Y-67419213D01*
X152877788Y-66631839D01*
X152872614Y-66624531D01*
X152874123Y-66615704D01*
X152875746Y-66613670D01*
X153146246Y-66343170D01*
X153150895Y-66340319D01*
X154129512Y-66021949D01*
X154138439Y-66022648D01*
G37*
%TD.AperFunction*%
%TD*%
%TA.AperFunction,Conductor*%
%TO.N,SDA*%
G36*
X155373163Y-62969103D02*
G01*
X155644896Y-63240836D01*
X155648323Y-63249109D01*
X155647412Y-63253635D01*
X155139896Y-64463477D01*
X155133536Y-64469780D01*
X155124643Y-64469766D01*
X154435188Y-64185162D01*
X154428848Y-64178837D01*
X154428837Y-64178811D01*
X154144233Y-63489356D01*
X154144244Y-63480402D01*
X154150520Y-63474104D01*
X155360366Y-62966586D01*
X155369319Y-62966547D01*
X155373163Y-62969103D01*
G37*
%TD.AperFunction*%
%TD*%
%TA.AperFunction,Conductor*%
%TO.N,GND*%
G36*
X171504496Y-50000771D02*
G01*
X171792298Y-50018180D01*
X171810134Y-50020346D01*
X172089307Y-50071506D01*
X172106772Y-50075811D01*
X172377730Y-50160245D01*
X172394546Y-50166622D01*
X172653362Y-50283106D01*
X172669293Y-50291468D01*
X172912163Y-50438288D01*
X172926971Y-50448509D01*
X173150377Y-50623536D01*
X173163845Y-50635467D01*
X173364532Y-50836154D01*
X173376463Y-50849622D01*
X173551490Y-51073028D01*
X173561711Y-51087836D01*
X173708531Y-51330706D01*
X173716893Y-51346637D01*
X173833375Y-51605449D01*
X173839755Y-51622273D01*
X173924187Y-51893225D01*
X173928493Y-51910695D01*
X173979651Y-52189852D01*
X173981820Y-52207714D01*
X173999228Y-52495503D01*
X173999500Y-52504499D01*
X173999500Y-111495500D01*
X173999228Y-111504496D01*
X173981820Y-111792285D01*
X173979651Y-111810147D01*
X173928493Y-112089304D01*
X173924187Y-112106774D01*
X173839755Y-112377726D01*
X173833375Y-112394550D01*
X173716893Y-112653362D01*
X173708531Y-112669293D01*
X173561711Y-112912163D01*
X173551490Y-112926971D01*
X173376463Y-113150377D01*
X173364532Y-113163845D01*
X173163845Y-113364532D01*
X173150377Y-113376463D01*
X172926971Y-113551490D01*
X172912163Y-113561711D01*
X172669293Y-113708531D01*
X172653362Y-113716893D01*
X172394550Y-113833375D01*
X172377726Y-113839755D01*
X172106774Y-113924187D01*
X172089304Y-113928493D01*
X171810147Y-113979651D01*
X171792285Y-113981820D01*
X171504497Y-113999228D01*
X171495501Y-113999500D01*
X165064048Y-113999500D01*
X164989548Y-113979538D01*
X164935010Y-113925000D01*
X164915048Y-113850500D01*
X164935010Y-113776000D01*
X164989546Y-113721463D01*
X164997032Y-113717139D01*
X164997041Y-113717136D01*
X165122482Y-113620882D01*
X165171073Y-113557555D01*
X165200223Y-113528807D01*
X165879206Y-113022640D01*
X165950867Y-112994119D01*
X165968260Y-112993100D01*
X166314875Y-112993100D01*
X166454885Y-112955584D01*
X166580415Y-112883110D01*
X167724310Y-111739215D01*
X167796784Y-111613685D01*
X167834300Y-111473674D01*
X167834300Y-111328726D01*
X167834300Y-110714470D01*
X169341300Y-110714470D01*
X169341300Y-110970330D01*
X169373071Y-111170917D01*
X169381327Y-111223045D01*
X169460390Y-111466377D01*
X169518276Y-111579983D01*
X169574265Y-111689867D01*
X169576549Y-111694348D01*
X169576549Y-111694349D01*
X169627000Y-111763789D01*
X169726938Y-111901342D01*
X169907858Y-112082262D01*
X170114853Y-112232652D01*
X170234470Y-112293600D01*
X170342822Y-112348809D01*
X170342824Y-112348809D01*
X170342825Y-112348810D01*
X170483599Y-112394550D01*
X170586155Y-112427872D01*
X170586161Y-112427874D01*
X170838870Y-112467900D01*
X170838875Y-112467900D01*
X171094725Y-112467900D01*
X171094730Y-112467900D01*
X171347439Y-112427874D01*
X171590775Y-112348810D01*
X171818747Y-112232652D01*
X172025742Y-112082262D01*
X172206662Y-111901342D01*
X172357052Y-111694347D01*
X172473210Y-111466375D01*
X172552274Y-111223039D01*
X172592300Y-110970330D01*
X172592300Y-110714470D01*
X172552274Y-110461761D01*
X172473210Y-110218425D01*
X172473209Y-110218424D01*
X172473209Y-110218422D01*
X172432534Y-110138594D01*
X172357052Y-109990453D01*
X172206662Y-109783458D01*
X172025742Y-109602538D01*
X171818747Y-109452148D01*
X171713110Y-109398323D01*
X171590777Y-109335990D01*
X171347444Y-109256927D01*
X171347445Y-109256927D01*
X171347439Y-109256926D01*
X171094730Y-109216900D01*
X170838870Y-109216900D01*
X170616658Y-109252095D01*
X170586154Y-109256927D01*
X170342822Y-109335990D01*
X170114851Y-109452149D01*
X170114850Y-109452149D01*
X169907859Y-109602537D01*
X169907856Y-109602539D01*
X169726939Y-109783456D01*
X169726937Y-109783459D01*
X169576549Y-109990450D01*
X169576549Y-109990451D01*
X169460390Y-110218422D01*
X169381327Y-110461754D01*
X169381326Y-110461761D01*
X169341300Y-110714470D01*
X167834300Y-110714470D01*
X167834300Y-109632283D01*
X167839377Y-109593718D01*
X167859700Y-109517874D01*
X167859700Y-109372926D01*
X167859700Y-109029342D01*
X167879662Y-108954842D01*
X167903337Y-108923987D01*
X170277264Y-106550059D01*
X170325884Y-106517646D01*
X171529874Y-106021886D01*
X171529873Y-106021885D01*
X171566853Y-106006659D01*
X171592010Y-105992500D01*
X171614219Y-105983898D01*
X171795502Y-105871652D01*
X171953072Y-105728007D01*
X172081566Y-105557855D01*
X172176605Y-105366989D01*
X172234956Y-105161910D01*
X172248011Y-105021017D01*
X172254629Y-104949604D01*
X172254629Y-104949595D01*
X172241822Y-104811387D01*
X172234956Y-104737290D01*
X172176605Y-104532211D01*
X172081566Y-104341345D01*
X172081564Y-104341343D01*
X172081563Y-104341340D01*
X171953072Y-104171193D01*
X171795502Y-104027548D01*
X171795501Y-104027547D01*
X171614222Y-103915303D01*
X171614219Y-103915302D01*
X171565570Y-103896455D01*
X171540757Y-103884075D01*
X171529874Y-103877312D01*
X170325888Y-103381554D01*
X170277261Y-103349136D01*
X165761864Y-98833739D01*
X165723300Y-98766944D01*
X165723300Y-98689816D01*
X165761864Y-98623021D01*
X165828659Y-98584457D01*
X165839845Y-98581917D01*
X165841006Y-98581700D01*
X165841010Y-98581700D01*
X166050598Y-98542521D01*
X166147818Y-98504857D01*
X166167745Y-98498703D01*
X166188086Y-98493953D01*
X167187931Y-98077352D01*
X167389991Y-97993161D01*
X167447298Y-97981700D01*
X168455075Y-97981700D01*
X168595085Y-97944184D01*
X168599481Y-97941646D01*
X168720615Y-97871710D01*
X169845442Y-96746881D01*
X169912235Y-96708319D01*
X169989363Y-96708319D01*
X170056158Y-96746883D01*
X170254612Y-96945337D01*
X170290273Y-97002588D01*
X170686474Y-98163987D01*
X170690330Y-98177283D01*
X170691056Y-98180307D01*
X170691060Y-98180318D01*
X170749453Y-98360032D01*
X170749457Y-98360041D01*
X170749458Y-98360042D01*
X170780560Y-98421084D01*
X170835240Y-98528399D01*
X170946310Y-98681273D01*
X171079927Y-98814890D01*
X171232801Y-98925960D01*
X171355310Y-98988381D01*
X171412628Y-99039989D01*
X171436462Y-99113342D01*
X171420426Y-99188785D01*
X171368818Y-99246103D01*
X171355311Y-99253901D01*
X171206593Y-99329677D01*
X171047363Y-99445365D01*
X171047352Y-99445374D01*
X170908174Y-99584552D01*
X170908165Y-99584563D01*
X170792477Y-99743793D01*
X170792474Y-99743798D01*
X170703121Y-99919163D01*
X170703117Y-99919172D01*
X170703116Y-99919175D01*
X170642291Y-100106374D01*
X170611500Y-100300783D01*
X170611500Y-100497617D01*
X170642291Y-100692026D01*
X170703116Y-100879225D01*
X170703119Y-100879230D01*
X170703121Y-100879236D01*
X170706364Y-100885600D01*
X170792476Y-101054605D01*
X170908172Y-101213846D01*
X171047354Y-101353028D01*
X171206595Y-101468724D01*
X171381975Y-101558084D01*
X171569174Y-101618909D01*
X171763583Y-101649700D01*
X171763588Y-101649700D01*
X172210412Y-101649700D01*
X172210417Y-101649700D01*
X172404826Y-101618909D01*
X172592025Y-101558084D01*
X172767405Y-101468724D01*
X172926646Y-101353028D01*
X173065828Y-101213846D01*
X173181524Y-101054605D01*
X173270884Y-100879225D01*
X173331709Y-100692026D01*
X173362500Y-100497617D01*
X173362500Y-100300783D01*
X173331709Y-100106374D01*
X173270884Y-99919175D01*
X173181524Y-99743795D01*
X173065828Y-99584554D01*
X172926646Y-99445372D01*
X172767405Y-99329676D01*
X172684551Y-99287460D01*
X172618688Y-99253901D01*
X172561371Y-99202292D01*
X172537537Y-99128939D01*
X172553573Y-99053496D01*
X172605182Y-98996179D01*
X172618677Y-98988387D01*
X172741199Y-98925960D01*
X172894073Y-98814890D01*
X173027690Y-98681273D01*
X173138760Y-98528399D01*
X173224547Y-98360032D01*
X173282940Y-98180318D01*
X173312500Y-97993681D01*
X173312500Y-97804719D01*
X173282940Y-97618082D01*
X173224547Y-97438368D01*
X173138760Y-97270001D01*
X173027690Y-97117127D01*
X172894073Y-96983510D01*
X172741199Y-96872440D01*
X172659790Y-96830960D01*
X172602472Y-96779351D01*
X172578638Y-96705998D01*
X172594674Y-96630556D01*
X172646283Y-96573238D01*
X172719636Y-96549404D01*
X172727434Y-96549200D01*
X172755059Y-96549200D01*
X172755060Y-96549199D01*
X172843443Y-96538586D01*
X172984096Y-96483120D01*
X173104562Y-96391766D01*
X173104566Y-96391762D01*
X173195920Y-96271296D01*
X173251386Y-96130643D01*
X173261999Y-96042260D01*
X173262000Y-96042258D01*
X173262000Y-95649200D01*
X172391146Y-95649200D01*
X172429630Y-95582543D01*
X172462000Y-95461735D01*
X172462000Y-95336665D01*
X172429630Y-95215857D01*
X172391146Y-95149200D01*
X173262000Y-95149200D01*
X173262000Y-94756141D01*
X173261999Y-94756139D01*
X173251386Y-94667756D01*
X173195920Y-94527103D01*
X173104566Y-94406637D01*
X173104562Y-94406633D01*
X172984095Y-94315279D01*
X172984096Y-94315279D01*
X172843443Y-94259813D01*
X172755060Y-94249200D01*
X172237000Y-94249200D01*
X172237000Y-94995054D01*
X172170343Y-94956570D01*
X172049535Y-94924200D01*
X171924465Y-94924200D01*
X171803657Y-94956570D01*
X171737000Y-94995054D01*
X171737000Y-94249200D01*
X171218939Y-94249200D01*
X171130556Y-94259813D01*
X170989903Y-94315279D01*
X170869437Y-94406633D01*
X170869433Y-94406637D01*
X170771920Y-94535226D01*
X170770008Y-94533776D01*
X170726261Y-94578529D01*
X170651992Y-94599336D01*
X170577270Y-94580222D01*
X170522117Y-94526307D01*
X170501310Y-94452038D01*
X170501300Y-94450346D01*
X170501300Y-89399235D01*
X170521262Y-89324735D01*
X170575800Y-89270197D01*
X170650300Y-89250235D01*
X170724800Y-89270197D01*
X170779338Y-89324735D01*
X170783060Y-89331591D01*
X170792473Y-89350067D01*
X170792476Y-89350071D01*
X170908172Y-89509312D01*
X171047354Y-89648494D01*
X171206595Y-89764190D01*
X171274610Y-89798845D01*
X171370919Y-89847917D01*
X171381975Y-89853550D01*
X171569174Y-89914375D01*
X171763583Y-89945166D01*
X171763588Y-89945166D01*
X172210412Y-89945166D01*
X172210417Y-89945166D01*
X172404826Y-89914375D01*
X172592025Y-89853550D01*
X172767405Y-89764190D01*
X172926646Y-89648494D01*
X173065828Y-89509312D01*
X173181524Y-89350071D01*
X173270884Y-89174691D01*
X173331709Y-88987492D01*
X173362500Y-88793083D01*
X173362500Y-88596249D01*
X173331709Y-88401840D01*
X173270884Y-88214641D01*
X173181524Y-88039261D01*
X173065828Y-87880020D01*
X172926646Y-87740838D01*
X172767405Y-87625142D01*
X172674104Y-87577603D01*
X172618688Y-87549367D01*
X172561371Y-87497758D01*
X172537537Y-87424405D01*
X172553573Y-87348962D01*
X172605182Y-87291645D01*
X172618677Y-87283853D01*
X172741199Y-87221426D01*
X172894073Y-87110356D01*
X173027690Y-86976739D01*
X173138760Y-86823865D01*
X173224547Y-86655498D01*
X173282940Y-86475784D01*
X173312500Y-86289147D01*
X173312500Y-86100185D01*
X173282940Y-85913548D01*
X173224547Y-85733834D01*
X173138760Y-85565467D01*
X173027690Y-85412593D01*
X172894073Y-85278976D01*
X172741199Y-85167906D01*
X172659790Y-85126426D01*
X172602472Y-85074817D01*
X172578638Y-85001464D01*
X172594674Y-84926022D01*
X172646283Y-84868704D01*
X172719636Y-84844870D01*
X172727434Y-84844666D01*
X172755059Y-84844666D01*
X172755060Y-84844665D01*
X172843443Y-84834052D01*
X172984096Y-84778586D01*
X173104562Y-84687232D01*
X173104566Y-84687228D01*
X173195920Y-84566762D01*
X173251386Y-84426109D01*
X173261999Y-84337726D01*
X173262000Y-84337724D01*
X173262000Y-83944666D01*
X172391146Y-83944666D01*
X172429630Y-83878009D01*
X172462000Y-83757201D01*
X172462000Y-83632131D01*
X172429630Y-83511323D01*
X172391146Y-83444666D01*
X173262000Y-83444666D01*
X173262000Y-83051607D01*
X173261999Y-83051605D01*
X173251386Y-82963222D01*
X173195920Y-82822569D01*
X173104566Y-82702103D01*
X173104562Y-82702099D01*
X172984095Y-82610745D01*
X172984096Y-82610745D01*
X172843443Y-82555279D01*
X172755060Y-82544666D01*
X172237000Y-82544666D01*
X172237000Y-83290520D01*
X172170343Y-83252036D01*
X172049535Y-83219666D01*
X171924465Y-83219666D01*
X171803657Y-83252036D01*
X171737000Y-83290520D01*
X171737000Y-82544666D01*
X171218939Y-82544666D01*
X171130556Y-82555279D01*
X170989903Y-82610745D01*
X170869437Y-82702099D01*
X170869433Y-82702103D01*
X170771920Y-82830692D01*
X170770008Y-82829242D01*
X170726261Y-82873995D01*
X170651992Y-82894802D01*
X170577270Y-82875688D01*
X170522117Y-82821773D01*
X170501310Y-82747504D01*
X170501300Y-82745812D01*
X170501300Y-77674169D01*
X170521262Y-77599669D01*
X170575800Y-77545131D01*
X170650300Y-77525169D01*
X170724800Y-77545131D01*
X170779338Y-77599669D01*
X170783060Y-77606525D01*
X170792473Y-77625001D01*
X170792476Y-77625005D01*
X170908172Y-77784246D01*
X171047354Y-77923428D01*
X171206595Y-78039124D01*
X171381975Y-78128484D01*
X171569174Y-78189309D01*
X171763583Y-78220100D01*
X171763588Y-78220100D01*
X172210412Y-78220100D01*
X172210417Y-78220100D01*
X172404826Y-78189309D01*
X172592025Y-78128484D01*
X172767405Y-78039124D01*
X172926646Y-77923428D01*
X173065828Y-77784246D01*
X173181524Y-77625005D01*
X173270884Y-77449625D01*
X173331709Y-77262426D01*
X173362500Y-77068017D01*
X173362500Y-76871183D01*
X173331709Y-76676774D01*
X173270884Y-76489575D01*
X173181524Y-76314195D01*
X173065828Y-76154954D01*
X172926646Y-76015772D01*
X172767405Y-75900076D01*
X172684551Y-75857860D01*
X172618688Y-75824301D01*
X172561371Y-75772692D01*
X172537537Y-75699339D01*
X172553573Y-75623896D01*
X172605182Y-75566579D01*
X172618677Y-75558787D01*
X172741199Y-75496360D01*
X172894073Y-75385290D01*
X173027690Y-75251673D01*
X173138760Y-75098799D01*
X173224547Y-74930432D01*
X173282940Y-74750718D01*
X173312500Y-74564081D01*
X173312500Y-74375119D01*
X173282940Y-74188482D01*
X173224547Y-74008768D01*
X173138760Y-73840401D01*
X173027690Y-73687527D01*
X172894073Y-73553910D01*
X172741199Y-73442840D01*
X172659790Y-73401360D01*
X172602472Y-73349751D01*
X172578638Y-73276398D01*
X172594674Y-73200956D01*
X172646283Y-73143638D01*
X172719636Y-73119804D01*
X172727434Y-73119600D01*
X172755059Y-73119600D01*
X172755060Y-73119599D01*
X172843443Y-73108986D01*
X172984096Y-73053520D01*
X173104562Y-72962166D01*
X173104566Y-72962162D01*
X173195920Y-72841696D01*
X173251386Y-72701043D01*
X173261999Y-72612660D01*
X173262000Y-72612658D01*
X173262000Y-72219600D01*
X172391146Y-72219600D01*
X172429630Y-72152943D01*
X172462000Y-72032135D01*
X172462000Y-71907065D01*
X172429630Y-71786257D01*
X172391146Y-71719600D01*
X173262000Y-71719600D01*
X173262000Y-71326541D01*
X173261999Y-71326539D01*
X173251386Y-71238156D01*
X173195920Y-71097503D01*
X173104566Y-70977037D01*
X173104562Y-70977033D01*
X172984095Y-70885679D01*
X172984096Y-70885679D01*
X172843443Y-70830213D01*
X172755060Y-70819600D01*
X172237000Y-70819600D01*
X172237000Y-71565454D01*
X172170343Y-71526970D01*
X172049535Y-71494600D01*
X171924465Y-71494600D01*
X171803657Y-71526970D01*
X171737000Y-71565454D01*
X171737000Y-70819600D01*
X171218939Y-70819600D01*
X171130556Y-70830213D01*
X170989903Y-70885679D01*
X170869437Y-70977033D01*
X170869433Y-70977037D01*
X170771920Y-71105626D01*
X170770008Y-71104176D01*
X170726261Y-71148929D01*
X170651992Y-71169736D01*
X170577270Y-71150622D01*
X170522117Y-71096707D01*
X170501310Y-71022438D01*
X170501300Y-71020746D01*
X170501300Y-65990169D01*
X170521262Y-65915669D01*
X170575800Y-65861131D01*
X170650300Y-65841169D01*
X170724800Y-65861131D01*
X170779338Y-65915669D01*
X170783060Y-65922525D01*
X170792473Y-65941001D01*
X170792476Y-65941005D01*
X170908172Y-66100246D01*
X171047354Y-66239428D01*
X171206595Y-66355124D01*
X171381975Y-66444484D01*
X171569174Y-66505309D01*
X171763583Y-66536100D01*
X171763588Y-66536100D01*
X172210412Y-66536100D01*
X172210417Y-66536100D01*
X172404826Y-66505309D01*
X172592025Y-66444484D01*
X172767405Y-66355124D01*
X172926646Y-66239428D01*
X173065828Y-66100246D01*
X173181524Y-65941005D01*
X173270884Y-65765625D01*
X173331709Y-65578426D01*
X173362500Y-65384017D01*
X173362500Y-65187183D01*
X173331709Y-64992774D01*
X173270884Y-64805575D01*
X173181524Y-64630195D01*
X173065828Y-64470954D01*
X172926646Y-64331772D01*
X172767405Y-64216076D01*
X172684551Y-64173860D01*
X172618688Y-64140301D01*
X172561371Y-64088692D01*
X172537537Y-64015339D01*
X172553573Y-63939896D01*
X172605182Y-63882579D01*
X172618677Y-63874787D01*
X172741199Y-63812360D01*
X172894073Y-63701290D01*
X173027690Y-63567673D01*
X173138760Y-63414799D01*
X173224547Y-63246432D01*
X173282940Y-63066718D01*
X173312500Y-62880081D01*
X173312500Y-62691119D01*
X173282940Y-62504482D01*
X173224547Y-62324768D01*
X173138760Y-62156401D01*
X173027690Y-62003527D01*
X172894073Y-61869910D01*
X172741199Y-61758840D01*
X172722509Y-61749317D01*
X172659790Y-61717360D01*
X172602472Y-61665751D01*
X172578638Y-61592398D01*
X172594674Y-61516956D01*
X172646283Y-61459638D01*
X172719636Y-61435804D01*
X172727434Y-61435600D01*
X172755059Y-61435600D01*
X172755060Y-61435599D01*
X172843443Y-61424986D01*
X172984096Y-61369520D01*
X173104562Y-61278166D01*
X173104566Y-61278162D01*
X173195920Y-61157696D01*
X173251386Y-61017043D01*
X173261999Y-60928660D01*
X173262000Y-60928658D01*
X173262000Y-60535600D01*
X172391146Y-60535600D01*
X172429630Y-60468943D01*
X172462000Y-60348135D01*
X172462000Y-60223065D01*
X172429630Y-60102257D01*
X172391146Y-60035600D01*
X173262000Y-60035600D01*
X173262000Y-59642541D01*
X173261999Y-59642539D01*
X173251386Y-59554156D01*
X173195920Y-59413503D01*
X173104566Y-59293037D01*
X173104562Y-59293033D01*
X172984095Y-59201679D01*
X172984096Y-59201679D01*
X172843443Y-59146213D01*
X172755060Y-59135600D01*
X172237000Y-59135600D01*
X172237000Y-59881454D01*
X172170343Y-59842970D01*
X172049535Y-59810600D01*
X171924465Y-59810600D01*
X171803657Y-59842970D01*
X171737000Y-59881454D01*
X171737000Y-59135600D01*
X171218939Y-59135600D01*
X171130556Y-59146213D01*
X170989903Y-59201679D01*
X170869437Y-59293033D01*
X170869433Y-59293037D01*
X170778079Y-59413503D01*
X170722613Y-59554156D01*
X170712000Y-59642539D01*
X170712000Y-60035600D01*
X171582854Y-60035600D01*
X171544370Y-60102257D01*
X171512000Y-60223065D01*
X171512000Y-60348135D01*
X171544370Y-60468943D01*
X171582854Y-60535600D01*
X170712000Y-60535600D01*
X170712000Y-60928660D01*
X170722613Y-61017043D01*
X170778079Y-61157696D01*
X170869433Y-61278162D01*
X170869437Y-61278166D01*
X170989904Y-61369520D01*
X170989903Y-61369520D01*
X171130556Y-61424986D01*
X171218939Y-61435599D01*
X171218941Y-61435600D01*
X171246566Y-61435600D01*
X171321066Y-61455562D01*
X171375604Y-61510100D01*
X171395566Y-61584600D01*
X171375604Y-61659100D01*
X171321066Y-61713638D01*
X171314210Y-61717360D01*
X171232804Y-61758838D01*
X171232799Y-61758841D01*
X171079936Y-61869903D01*
X171079925Y-61869912D01*
X170946312Y-62003525D01*
X170946303Y-62003536D01*
X170835241Y-62156399D01*
X170835238Y-62156404D01*
X170749458Y-62324757D01*
X170749451Y-62324774D01*
X170691062Y-62504474D01*
X170690338Y-62507490D01*
X170686475Y-62520813D01*
X170290274Y-63682210D01*
X170254613Y-63739461D01*
X169510289Y-64483785D01*
X169455209Y-64579189D01*
X169451160Y-64586203D01*
X169437816Y-64609315D01*
X169426035Y-64653281D01*
X169400300Y-64749323D01*
X169400300Y-76032057D01*
X169380338Y-76106557D01*
X169325800Y-76161095D01*
X169251300Y-76181057D01*
X169176800Y-76161095D01*
X169145941Y-76137416D01*
X168409215Y-75400690D01*
X168283685Y-75328216D01*
X168143675Y-75290700D01*
X155471396Y-75290700D01*
X155396896Y-75270738D01*
X155342358Y-75216200D01*
X155322396Y-75141700D01*
X155342358Y-75067200D01*
X155352491Y-75051907D01*
X155424012Y-74957199D01*
X155520043Y-74764342D01*
X155579001Y-74557124D01*
X155579001Y-74557121D01*
X155579002Y-74557119D01*
X155598880Y-74342604D01*
X155598880Y-74342595D01*
X155579002Y-74128080D01*
X155579001Y-74128077D01*
X155575798Y-74116821D01*
X155520043Y-73920858D01*
X155424012Y-73728001D01*
X155294178Y-73556074D01*
X155134964Y-73410931D01*
X155134963Y-73410930D01*
X154951795Y-73297517D01*
X154951788Y-73297513D01*
X154750902Y-73219690D01*
X154750898Y-73219689D01*
X154750896Y-73219688D01*
X154611498Y-73193629D01*
X154541936Y-73160318D01*
X154498348Y-73096687D01*
X154492415Y-73019788D01*
X154525727Y-72950225D01*
X154589358Y-72906637D01*
X154611499Y-72900704D01*
X154737154Y-72877215D01*
X154929408Y-72802736D01*
X155104703Y-72694198D01*
X155257070Y-72555297D01*
X155381319Y-72390765D01*
X155381321Y-72390759D01*
X155381323Y-72390758D01*
X155473220Y-72206202D01*
X155473456Y-72205375D01*
X155529642Y-72007897D01*
X155529642Y-72007895D01*
X155529643Y-72007892D01*
X155548666Y-71802604D01*
X155548666Y-71802595D01*
X163454134Y-71802595D01*
X163454134Y-71802604D01*
X163473156Y-72007892D01*
X163473157Y-72007896D01*
X163529579Y-72206202D01*
X163621476Y-72390758D01*
X163621480Y-72390763D01*
X163621481Y-72390765D01*
X163745730Y-72555297D01*
X163898096Y-72694197D01*
X163898101Y-72694201D01*
X164073385Y-72802732D01*
X164073396Y-72802738D01*
X164173960Y-72841696D01*
X164265646Y-72877215D01*
X164468312Y-72915100D01*
X164468315Y-72915100D01*
X164674485Y-72915100D01*
X164674488Y-72915100D01*
X164877154Y-72877215D01*
X165069408Y-72802736D01*
X165244703Y-72694198D01*
X165397070Y-72555297D01*
X165521319Y-72390765D01*
X165521321Y-72390759D01*
X165521323Y-72390758D01*
X165613220Y-72206202D01*
X165613456Y-72205375D01*
X165669642Y-72007897D01*
X165669642Y-72007895D01*
X165669643Y-72007892D01*
X165688666Y-71802604D01*
X165688666Y-71802595D01*
X165669643Y-71597307D01*
X165669642Y-71597303D01*
X165613220Y-71398997D01*
X165521323Y-71214441D01*
X165521320Y-71214437D01*
X165521319Y-71214435D01*
X165397070Y-71049903D01*
X165244703Y-70911002D01*
X165244698Y-70910998D01*
X165069414Y-70802467D01*
X165069403Y-70802461D01*
X164877160Y-70727987D01*
X164877156Y-70727986D01*
X164877154Y-70727985D01*
X164836620Y-70720408D01*
X164674492Y-70690100D01*
X164674488Y-70690100D01*
X164468312Y-70690100D01*
X164468307Y-70690100D01*
X164265646Y-70727985D01*
X164265639Y-70727987D01*
X164073396Y-70802461D01*
X164073385Y-70802467D01*
X163898101Y-70910998D01*
X163898096Y-70911002D01*
X163745730Y-71049903D01*
X163621476Y-71214441D01*
X163529579Y-71398997D01*
X163473157Y-71597303D01*
X163473156Y-71597307D01*
X163454134Y-71802595D01*
X155548666Y-71802595D01*
X155529643Y-71597307D01*
X155529642Y-71597303D01*
X155473220Y-71398997D01*
X155381323Y-71214441D01*
X155381320Y-71214437D01*
X155381319Y-71214435D01*
X155257070Y-71049903D01*
X155104703Y-70911002D01*
X155104698Y-70910998D01*
X154929414Y-70802467D01*
X154929403Y-70802461D01*
X154737160Y-70727987D01*
X154737156Y-70727986D01*
X154737154Y-70727985D01*
X154696620Y-70720408D01*
X154534492Y-70690100D01*
X154534488Y-70690100D01*
X154328312Y-70690100D01*
X154328307Y-70690100D01*
X154125646Y-70727985D01*
X154125639Y-70727987D01*
X153933396Y-70802461D01*
X153933385Y-70802467D01*
X153758101Y-70910998D01*
X153758096Y-70911002D01*
X153605730Y-71049903D01*
X153481476Y-71214441D01*
X153389579Y-71398997D01*
X153333157Y-71597303D01*
X153333156Y-71597307D01*
X153314134Y-71802595D01*
X153314134Y-71802604D01*
X153333156Y-72007892D01*
X153333157Y-72007896D01*
X153389579Y-72206202D01*
X153481476Y-72390758D01*
X153481480Y-72390763D01*
X153481481Y-72390765D01*
X153605730Y-72555297D01*
X153758096Y-72694197D01*
X153758101Y-72694201D01*
X153933385Y-72802732D01*
X153933396Y-72802738D01*
X154033960Y-72841696D01*
X154125646Y-72877215D01*
X154240073Y-72898605D01*
X154251300Y-72900704D01*
X154320864Y-72934016D01*
X154364451Y-72997647D01*
X154370384Y-73074546D01*
X154337072Y-73144110D01*
X154273441Y-73187697D01*
X154251300Y-73193630D01*
X154111904Y-73219688D01*
X154111897Y-73219690D01*
X153911011Y-73297513D01*
X153911004Y-73297517D01*
X153727836Y-73410930D01*
X153727835Y-73410931D01*
X153604491Y-73523374D01*
X153571004Y-73553903D01*
X153568619Y-73556077D01*
X153438787Y-73728001D01*
X153342756Y-73920858D01*
X153283798Y-74128077D01*
X153283797Y-74128080D01*
X153263920Y-74342595D01*
X153263920Y-74342604D01*
X153283912Y-74558357D01*
X153270909Y-74634381D01*
X153221636Y-74693718D01*
X153149296Y-74720469D01*
X153073272Y-74707466D01*
X153030189Y-74677464D01*
X152536341Y-74183616D01*
X152497777Y-74116821D01*
X152492700Y-74078257D01*
X152492700Y-69262600D01*
X153364261Y-69262600D01*
X153384767Y-69470792D01*
X153445491Y-69670973D01*
X153445494Y-69670980D01*
X153523508Y-69816935D01*
X153523509Y-69816936D01*
X154050400Y-69290044D01*
X154050400Y-69312760D01*
X154076364Y-69409661D01*
X154126524Y-69496540D01*
X154197460Y-69567476D01*
X154284339Y-69617636D01*
X154381240Y-69643600D01*
X154403954Y-69643600D01*
X153877062Y-70170490D01*
X154023020Y-70248506D01*
X154223207Y-70309232D01*
X154431400Y-70329738D01*
X154639592Y-70309232D01*
X154839776Y-70248507D01*
X154985736Y-70170490D01*
X154458846Y-69643600D01*
X154481560Y-69643600D01*
X154578461Y-69617636D01*
X154665340Y-69567476D01*
X154736276Y-69496540D01*
X154786436Y-69409661D01*
X154812400Y-69312760D01*
X154812400Y-69290046D01*
X155339290Y-69816936D01*
X155417307Y-69670976D01*
X155478032Y-69470792D01*
X155498538Y-69262600D01*
X155498538Y-69262595D01*
X163454134Y-69262595D01*
X163454134Y-69262604D01*
X163473156Y-69467892D01*
X163473157Y-69467896D01*
X163529579Y-69666202D01*
X163621476Y-69850758D01*
X163621480Y-69850763D01*
X163621481Y-69850765D01*
X163745730Y-70015297D01*
X163898096Y-70154197D01*
X163898101Y-70154201D01*
X164073385Y-70262732D01*
X164073396Y-70262738D01*
X164190625Y-70308152D01*
X164265646Y-70337215D01*
X164468312Y-70375100D01*
X164468315Y-70375100D01*
X164674485Y-70375100D01*
X164674488Y-70375100D01*
X164877154Y-70337215D01*
X165069408Y-70262736D01*
X165244703Y-70154198D01*
X165397070Y-70015297D01*
X165521319Y-69850765D01*
X165521321Y-69850759D01*
X165521323Y-69850758D01*
X165610843Y-69670976D01*
X165613220Y-69666203D01*
X165669642Y-69467897D01*
X165669642Y-69467895D01*
X165669643Y-69467892D01*
X165688666Y-69262604D01*
X165688666Y-69262595D01*
X165669643Y-69057307D01*
X165669642Y-69057303D01*
X165613220Y-68858997D01*
X165521323Y-68674441D01*
X165521320Y-68674437D01*
X165521319Y-68674435D01*
X165397070Y-68509903D01*
X165244703Y-68371002D01*
X165244698Y-68370998D01*
X165069414Y-68262467D01*
X165069403Y-68262461D01*
X164877160Y-68187987D01*
X164877156Y-68187986D01*
X164877154Y-68187985D01*
X164836620Y-68180408D01*
X164674492Y-68150100D01*
X164674488Y-68150100D01*
X164468312Y-68150100D01*
X164468307Y-68150100D01*
X164265646Y-68187985D01*
X164265639Y-68187987D01*
X164073396Y-68262461D01*
X164073385Y-68262467D01*
X163898101Y-68370998D01*
X163898096Y-68371002D01*
X163745730Y-68509903D01*
X163621476Y-68674441D01*
X163529579Y-68858997D01*
X163473157Y-69057303D01*
X163473156Y-69057307D01*
X163454134Y-69262595D01*
X155498538Y-69262595D01*
X155478032Y-69054407D01*
X155417306Y-68854220D01*
X155339290Y-68708262D01*
X154812400Y-69235152D01*
X154812400Y-69212440D01*
X154786436Y-69115539D01*
X154736276Y-69028660D01*
X154665340Y-68957724D01*
X154578461Y-68907564D01*
X154481560Y-68881600D01*
X154458844Y-68881600D01*
X154985736Y-68354709D01*
X154985735Y-68354708D01*
X154839780Y-68276694D01*
X154839773Y-68276691D01*
X154639592Y-68215967D01*
X154431400Y-68195461D01*
X154223207Y-68215967D01*
X154023027Y-68276691D01*
X153877063Y-68354709D01*
X154403954Y-68881600D01*
X154381240Y-68881600D01*
X154284339Y-68907564D01*
X154197460Y-68957724D01*
X154126524Y-69028660D01*
X154076364Y-69115539D01*
X154050400Y-69212440D01*
X154050400Y-69235154D01*
X153523509Y-68708263D01*
X153445491Y-68854227D01*
X153384767Y-69054407D01*
X153364261Y-69262600D01*
X152492700Y-69262600D01*
X152492700Y-67885525D01*
X152492699Y-67885523D01*
X152479189Y-67835100D01*
X152455184Y-67745515D01*
X152449016Y-67734832D01*
X152382710Y-67619985D01*
X150982226Y-66219501D01*
X150949374Y-66169808D01*
X150944721Y-66158256D01*
X150570702Y-65229622D01*
X150561387Y-65153060D01*
X150591600Y-65082096D01*
X150653248Y-65035746D01*
X150729811Y-65026430D01*
X150800775Y-65056643D01*
X150814273Y-65068598D01*
X152908785Y-67163110D01*
X153034315Y-67235584D01*
X153174325Y-67273100D01*
X153174326Y-67273100D01*
X153185930Y-67273100D01*
X153260430Y-67293062D01*
X153265331Y-67296019D01*
X153719022Y-67581734D01*
X153739999Y-67597701D01*
X153758090Y-67614193D01*
X153758094Y-67614195D01*
X153758097Y-67614198D01*
X153852431Y-67672607D01*
X153933390Y-67722735D01*
X153933395Y-67722738D01*
X153957887Y-67732226D01*
X153963689Y-67734716D01*
X153963713Y-67734662D01*
X153966207Y-67735731D01*
X153966216Y-67735736D01*
X154013972Y-67756213D01*
X154013977Y-67756215D01*
X154022508Y-67758722D01*
X154022417Y-67759030D01*
X154038429Y-67763427D01*
X154125646Y-67797215D01*
X154328312Y-67835100D01*
X154328315Y-67835100D01*
X154534485Y-67835100D01*
X154534488Y-67835100D01*
X154737154Y-67797215D01*
X154929408Y-67722736D01*
X155104703Y-67614198D01*
X155257070Y-67475297D01*
X155381319Y-67310765D01*
X155381321Y-67310759D01*
X155381323Y-67310758D01*
X155473220Y-67126202D01*
X155475216Y-67119189D01*
X155529642Y-66927897D01*
X155529642Y-66927895D01*
X155529643Y-66927892D01*
X155548666Y-66722604D01*
X155548666Y-66722595D01*
X163454134Y-66722595D01*
X163454134Y-66722604D01*
X163473156Y-66927892D01*
X163473157Y-66927896D01*
X163529579Y-67126202D01*
X163621476Y-67310758D01*
X163621480Y-67310763D01*
X163621481Y-67310765D01*
X163745730Y-67475297D01*
X163862486Y-67581734D01*
X163898096Y-67614197D01*
X163898101Y-67614201D01*
X164073385Y-67722732D01*
X164073396Y-67722738D01*
X164159812Y-67756215D01*
X164265646Y-67797215D01*
X164468312Y-67835100D01*
X164468315Y-67835100D01*
X164674485Y-67835100D01*
X164674488Y-67835100D01*
X164877154Y-67797215D01*
X165069408Y-67722736D01*
X165244703Y-67614198D01*
X165397070Y-67475297D01*
X165521319Y-67310765D01*
X165521321Y-67310759D01*
X165521323Y-67310758D01*
X165613220Y-67126202D01*
X165615216Y-67119189D01*
X165669642Y-66927897D01*
X165669642Y-66927895D01*
X165669643Y-66927892D01*
X165688666Y-66722604D01*
X165688666Y-66722595D01*
X165669643Y-66517307D01*
X165669642Y-66517303D01*
X165613220Y-66318997D01*
X165521323Y-66134441D01*
X165521320Y-66134437D01*
X165521319Y-66134435D01*
X165397070Y-65969903D01*
X165244703Y-65831002D01*
X165244698Y-65830998D01*
X165069414Y-65722467D01*
X165069403Y-65722461D01*
X164877160Y-65647987D01*
X164877156Y-65647986D01*
X164877154Y-65647985D01*
X164836620Y-65640408D01*
X164674492Y-65610100D01*
X164674488Y-65610100D01*
X164468312Y-65610100D01*
X164468307Y-65610100D01*
X164265646Y-65647985D01*
X164265639Y-65647987D01*
X164073396Y-65722461D01*
X164073385Y-65722467D01*
X163898101Y-65830998D01*
X163898096Y-65831002D01*
X163745730Y-65969903D01*
X163621476Y-66134441D01*
X163529579Y-66318997D01*
X163473157Y-66517303D01*
X163473156Y-66517307D01*
X163454134Y-66722595D01*
X155548666Y-66722595D01*
X155529643Y-66517307D01*
X155529642Y-66517303D01*
X155473220Y-66318997D01*
X155381323Y-66134441D01*
X155381320Y-66134437D01*
X155381319Y-66134435D01*
X155257070Y-65969903D01*
X155104703Y-65831002D01*
X155104698Y-65830998D01*
X154929414Y-65722467D01*
X154929403Y-65722461D01*
X154737160Y-65647987D01*
X154737156Y-65647986D01*
X154737154Y-65647985D01*
X154696620Y-65640408D01*
X154534492Y-65610100D01*
X154534488Y-65610100D01*
X154328312Y-65610100D01*
X154328307Y-65610100D01*
X154125646Y-65647985D01*
X154056850Y-65674635D01*
X154025189Y-65683038D01*
X154019532Y-65683888D01*
X154019523Y-65683890D01*
X153327027Y-65909178D01*
X153250006Y-65913243D01*
X153181271Y-65878253D01*
X153175572Y-65872847D01*
X150982226Y-63679501D01*
X150949374Y-63629808D01*
X150944721Y-63618256D01*
X150570702Y-62689622D01*
X150561387Y-62613060D01*
X150591600Y-62542096D01*
X150653248Y-62495746D01*
X150729811Y-62486430D01*
X150800775Y-62516643D01*
X150814273Y-62528598D01*
X152908785Y-64623110D01*
X153000805Y-64676237D01*
X153034315Y-64695584D01*
X153174325Y-64733100D01*
X153174326Y-64733100D01*
X153185930Y-64733100D01*
X153260430Y-64753062D01*
X153265331Y-64756019D01*
X153719022Y-65041734D01*
X153739999Y-65057701D01*
X153758090Y-65074193D01*
X153758094Y-65074195D01*
X153758097Y-65074198D01*
X153885464Y-65153060D01*
X153933390Y-65182735D01*
X153933395Y-65182738D01*
X153957887Y-65192226D01*
X153963689Y-65194716D01*
X153963713Y-65194662D01*
X153966207Y-65195731D01*
X153966216Y-65195736D01*
X154013972Y-65216213D01*
X154013977Y-65216215D01*
X154022508Y-65218722D01*
X154022417Y-65219030D01*
X154038429Y-65223427D01*
X154125646Y-65257215D01*
X154328312Y-65295100D01*
X154328315Y-65295100D01*
X154534485Y-65295100D01*
X154534488Y-65295100D01*
X154737154Y-65257215D01*
X154929408Y-65182736D01*
X155104703Y-65074198D01*
X155257070Y-64935297D01*
X155381319Y-64770765D01*
X155455506Y-64621774D01*
X155462840Y-64608734D01*
X155467720Y-64600996D01*
X155643234Y-64182595D01*
X163454134Y-64182595D01*
X163454134Y-64182604D01*
X163473156Y-64387892D01*
X163473157Y-64387896D01*
X163529579Y-64586201D01*
X163621476Y-64770758D01*
X163621480Y-64770763D01*
X163621481Y-64770765D01*
X163745730Y-64935297D01*
X163862486Y-65041734D01*
X163898096Y-65074197D01*
X163898101Y-65074201D01*
X164073385Y-65182732D01*
X164073396Y-65182738D01*
X164159812Y-65216215D01*
X164265646Y-65257215D01*
X164468312Y-65295100D01*
X164468315Y-65295100D01*
X164674485Y-65295100D01*
X164674488Y-65295100D01*
X164877154Y-65257215D01*
X165069408Y-65182736D01*
X165244703Y-65074198D01*
X165397070Y-64935297D01*
X165521319Y-64770765D01*
X165521321Y-64770759D01*
X165521323Y-64770758D01*
X165613221Y-64586201D01*
X165669642Y-64387896D01*
X165669643Y-64387892D01*
X165688666Y-64182604D01*
X165688666Y-64182595D01*
X165669643Y-63977307D01*
X165669642Y-63977303D01*
X165613220Y-63778997D01*
X165521323Y-63594441D01*
X165521320Y-63594437D01*
X165521319Y-63594435D01*
X165397070Y-63429903D01*
X165244703Y-63291002D01*
X165244698Y-63290998D01*
X165069414Y-63182467D01*
X165069403Y-63182461D01*
X164877160Y-63107987D01*
X164877156Y-63107986D01*
X164877154Y-63107985D01*
X164836620Y-63100408D01*
X164674492Y-63070100D01*
X164674488Y-63070100D01*
X164468312Y-63070100D01*
X164468307Y-63070100D01*
X164265646Y-63107985D01*
X164265639Y-63107987D01*
X164073396Y-63182461D01*
X164073385Y-63182467D01*
X163898101Y-63290998D01*
X163898096Y-63291002D01*
X163745730Y-63429903D01*
X163621476Y-63594441D01*
X163529579Y-63778997D01*
X163473157Y-63977303D01*
X163473156Y-63977307D01*
X163454134Y-64182595D01*
X155643234Y-64182595D01*
X155945020Y-63463181D01*
X155977057Y-63415466D01*
X157749929Y-61642595D01*
X163454134Y-61642595D01*
X163454134Y-61642604D01*
X163473156Y-61847892D01*
X163473157Y-61847896D01*
X163529579Y-62046202D01*
X163621476Y-62230758D01*
X163621480Y-62230763D01*
X163621481Y-62230765D01*
X163745730Y-62395297D01*
X163891954Y-62528598D01*
X163898096Y-62534197D01*
X163898101Y-62534201D01*
X164073385Y-62642732D01*
X164073396Y-62642738D01*
X164190625Y-62688152D01*
X164265646Y-62717215D01*
X164468312Y-62755100D01*
X164468315Y-62755100D01*
X164674485Y-62755100D01*
X164674488Y-62755100D01*
X164877154Y-62717215D01*
X165069408Y-62642736D01*
X165244703Y-62534198D01*
X165397070Y-62395297D01*
X165521319Y-62230765D01*
X165521321Y-62230759D01*
X165521323Y-62230758D01*
X165613220Y-62046202D01*
X165615216Y-62039189D01*
X165669642Y-61847897D01*
X165669642Y-61847895D01*
X165669643Y-61847892D01*
X165688666Y-61642604D01*
X165688666Y-61642595D01*
X165669643Y-61437307D01*
X165669642Y-61437303D01*
X165613220Y-61238997D01*
X165521323Y-61054441D01*
X165521320Y-61054437D01*
X165521319Y-61054435D01*
X165397070Y-60889903D01*
X165244703Y-60751002D01*
X165244698Y-60750998D01*
X165069414Y-60642467D01*
X165069403Y-60642461D01*
X164877160Y-60567987D01*
X164877156Y-60567986D01*
X164877154Y-60567985D01*
X164836620Y-60560408D01*
X164674492Y-60530100D01*
X164674488Y-60530100D01*
X164468312Y-60530100D01*
X164468307Y-60530100D01*
X164265646Y-60567985D01*
X164265639Y-60567987D01*
X164073396Y-60642461D01*
X164073385Y-60642467D01*
X163898101Y-60750998D01*
X163898096Y-60751002D01*
X163745730Y-60889903D01*
X163621476Y-61054441D01*
X163529579Y-61238997D01*
X163473157Y-61437303D01*
X163473156Y-61437307D01*
X163454134Y-61642595D01*
X157749929Y-61642595D01*
X158798110Y-60594415D01*
X158870584Y-60468885D01*
X158875233Y-60451534D01*
X158908100Y-60328875D01*
X158908100Y-55004685D01*
X158919642Y-54947186D01*
X159145060Y-54408300D01*
X159380411Y-53845667D01*
X159385079Y-53835586D01*
X159470147Y-53668632D01*
X159470147Y-53668630D01*
X159472805Y-53663415D01*
X159473899Y-53663972D01*
X159516885Y-53607943D01*
X159588140Y-53578422D01*
X159664609Y-53588484D01*
X159725803Y-53635431D01*
X159742058Y-53663587D01*
X159742395Y-53663416D01*
X159745058Y-53668642D01*
X159830840Y-53836999D01*
X159941910Y-53989873D01*
X160075527Y-54123490D01*
X160228401Y-54234560D01*
X160396768Y-54320347D01*
X160576482Y-54378740D01*
X160763119Y-54408300D01*
X160763124Y-54408300D01*
X160952076Y-54408300D01*
X160952081Y-54408300D01*
X161138718Y-54378740D01*
X161318432Y-54320347D01*
X161486799Y-54234560D01*
X161639673Y-54123490D01*
X161773290Y-53989873D01*
X161884360Y-53836999D01*
X161970147Y-53668632D01*
X161992443Y-53600011D01*
X162034448Y-53535330D01*
X162103170Y-53500314D01*
X162180192Y-53504350D01*
X162244877Y-53546357D01*
X162275856Y-53600014D01*
X162291853Y-53649249D01*
X162374032Y-53810532D01*
X162374033Y-53810533D01*
X162480428Y-53956973D01*
X162480430Y-53956976D01*
X162608423Y-54084969D01*
X162608426Y-54084971D01*
X162754866Y-54191366D01*
X162754867Y-54191367D01*
X162916150Y-54273546D01*
X163088302Y-54329481D01*
X163107600Y-54332537D01*
X163107600Y-53486945D01*
X163174257Y-53525430D01*
X163295065Y-53557800D01*
X163420135Y-53557800D01*
X163540943Y-53525430D01*
X163607600Y-53486945D01*
X163607600Y-54332537D01*
X163626897Y-54329481D01*
X163799049Y-54273546D01*
X163960332Y-54191367D01*
X163960333Y-54191366D01*
X164106773Y-54084971D01*
X164106776Y-54084969D01*
X164234769Y-53956976D01*
X164234771Y-53956973D01*
X164341166Y-53810533D01*
X164341167Y-53810532D01*
X164423346Y-53649249D01*
X164479281Y-53477098D01*
X164502137Y-53332800D01*
X163761746Y-53332800D01*
X163800230Y-53266143D01*
X163832600Y-53145335D01*
X163832600Y-53020265D01*
X163800230Y-52899457D01*
X163761746Y-52832800D01*
X164502136Y-52832800D01*
X164481240Y-52700870D01*
X169341300Y-52700870D01*
X169341300Y-52956730D01*
X169371173Y-53145335D01*
X169381327Y-53209445D01*
X169460390Y-53452777D01*
X169529537Y-53588484D01*
X169576548Y-53680747D01*
X169726938Y-53887742D01*
X169907858Y-54068662D01*
X170114853Y-54219052D01*
X170262994Y-54294534D01*
X170342822Y-54335209D01*
X170586155Y-54414272D01*
X170586161Y-54414274D01*
X170838870Y-54454300D01*
X170838875Y-54454300D01*
X171094725Y-54454300D01*
X171094730Y-54454300D01*
X171347439Y-54414274D01*
X171590775Y-54335210D01*
X171818747Y-54219052D01*
X172025742Y-54068662D01*
X172206662Y-53887742D01*
X172357052Y-53680747D01*
X172473210Y-53452775D01*
X172552274Y-53209439D01*
X172592300Y-52956730D01*
X172592300Y-52700870D01*
X172552274Y-52448161D01*
X172510125Y-52318440D01*
X172473209Y-52204822D01*
X172390302Y-52042110D01*
X172357052Y-51976853D01*
X172355148Y-51974233D01*
X172261438Y-51845251D01*
X172206662Y-51769858D01*
X172025742Y-51588938D01*
X171818747Y-51438548D01*
X171744676Y-51400806D01*
X171590777Y-51322390D01*
X171347444Y-51243327D01*
X171347445Y-51243327D01*
X171347439Y-51243326D01*
X171094730Y-51203300D01*
X170838870Y-51203300D01*
X170616658Y-51238495D01*
X170586154Y-51243327D01*
X170342822Y-51322390D01*
X170114851Y-51438549D01*
X170114850Y-51438549D01*
X169907859Y-51588937D01*
X169907856Y-51588939D01*
X169726939Y-51769856D01*
X169726937Y-51769859D01*
X169576549Y-51976850D01*
X169576549Y-51976851D01*
X169460390Y-52204822D01*
X169381327Y-52448154D01*
X169381326Y-52448161D01*
X169341300Y-52700870D01*
X164481240Y-52700870D01*
X164479281Y-52688501D01*
X164423346Y-52516350D01*
X164341167Y-52355067D01*
X164341166Y-52355066D01*
X164234771Y-52208626D01*
X164234769Y-52208623D01*
X164106776Y-52080630D01*
X164106773Y-52080628D01*
X163960333Y-51974233D01*
X163960332Y-51974232D01*
X163799053Y-51892055D01*
X163626892Y-51836117D01*
X163626884Y-51836116D01*
X163607600Y-51833061D01*
X163607600Y-52678654D01*
X163540943Y-52640170D01*
X163420135Y-52607800D01*
X163295065Y-52607800D01*
X163174257Y-52640170D01*
X163107600Y-52678654D01*
X163107600Y-51833061D01*
X163088315Y-51836116D01*
X163088307Y-51836117D01*
X162916146Y-51892055D01*
X162754867Y-51974232D01*
X162754866Y-51974233D01*
X162608426Y-52080628D01*
X162608423Y-52080630D01*
X162480430Y-52208623D01*
X162480428Y-52208626D01*
X162374033Y-52355066D01*
X162374032Y-52355067D01*
X162291854Y-52516349D01*
X162275856Y-52565586D01*
X162233848Y-52630271D01*
X162165126Y-52665285D01*
X162088104Y-52661248D01*
X162023419Y-52619240D01*
X161992442Y-52565585D01*
X161980931Y-52530159D01*
X161970147Y-52496968D01*
X161884360Y-52328601D01*
X161773290Y-52175727D01*
X161639673Y-52042110D01*
X161486799Y-51931040D01*
X161318432Y-51845253D01*
X161138718Y-51786860D01*
X160952081Y-51757300D01*
X160763119Y-51757300D01*
X160576482Y-51786860D01*
X160424886Y-51836117D01*
X160396768Y-51845253D01*
X160396763Y-51845255D01*
X160396757Y-51845258D01*
X160228404Y-51931038D01*
X160228399Y-51931041D01*
X160075536Y-52042103D01*
X160075525Y-52042112D01*
X159941912Y-52175725D01*
X159941903Y-52175736D01*
X159830841Y-52328599D01*
X159830838Y-52328604D01*
X159742395Y-52502184D01*
X159741302Y-52501627D01*
X159698306Y-52557662D01*
X159627049Y-52587178D01*
X159550581Y-52577111D01*
X159489391Y-52530159D01*
X159473140Y-52502012D01*
X159472805Y-52502184D01*
X159397845Y-52355067D01*
X159384360Y-52328601D01*
X159273290Y-52175727D01*
X159139673Y-52042110D01*
X158986799Y-51931040D01*
X158818432Y-51845253D01*
X158638718Y-51786860D01*
X158452081Y-51757300D01*
X158263119Y-51757300D01*
X158076482Y-51786860D01*
X157924886Y-51836117D01*
X157896768Y-51845253D01*
X157896763Y-51845255D01*
X157896757Y-51845258D01*
X157728404Y-51931038D01*
X157728399Y-51931041D01*
X157575536Y-52042103D01*
X157575525Y-52042112D01*
X157441912Y-52175725D01*
X157441903Y-52175736D01*
X157330841Y-52328599D01*
X157327779Y-52333596D01*
X157325787Y-52332375D01*
X157281356Y-52381682D01*
X157207993Y-52405486D01*
X157132557Y-52389420D01*
X157075260Y-52337788D01*
X157052529Y-52276135D01*
X157042644Y-52201038D01*
X156982136Y-52054959D01*
X156885882Y-51929518D01*
X156861352Y-51910695D01*
X156760440Y-51833263D01*
X156680544Y-51800169D01*
X156614362Y-51772756D01*
X156614360Y-51772755D01*
X156614356Y-51772754D01*
X156614359Y-51772754D01*
X156496963Y-51757300D01*
X155218243Y-51757300D01*
X155100838Y-51772756D01*
X154954759Y-51833263D01*
X154829318Y-51929517D01*
X154829317Y-51929518D01*
X154733063Y-52054959D01*
X154672554Y-52201042D01*
X154657100Y-52318433D01*
X154657100Y-53847156D01*
X154672556Y-53964561D01*
X154733063Y-54110640D01*
X154828149Y-54234558D01*
X154829318Y-54236082D01*
X154954759Y-54332336D01*
X155100838Y-54392844D01*
X155100841Y-54392844D01*
X155100843Y-54392845D01*
X155100840Y-54392845D01*
X155165297Y-54401330D01*
X155218239Y-54408300D01*
X156496960Y-54408299D01*
X156614362Y-54392844D01*
X156760441Y-54332336D01*
X156885882Y-54236082D01*
X156982136Y-54110641D01*
X157042644Y-53964562D01*
X157052405Y-53890421D01*
X157081920Y-53819164D01*
X157143109Y-53772210D01*
X157219577Y-53762143D01*
X157290834Y-53791658D01*
X157337588Y-53852368D01*
X157395103Y-53989863D01*
X157795557Y-54947186D01*
X157795558Y-54947187D01*
X157807100Y-55004687D01*
X157807100Y-59966656D01*
X157787138Y-60041156D01*
X157763459Y-60072015D01*
X155753208Y-62082265D01*
X155686413Y-62120829D01*
X155609285Y-62120829D01*
X155542490Y-62082265D01*
X155503926Y-62015470D01*
X155503926Y-61938342D01*
X155504505Y-61936245D01*
X155529642Y-61847897D01*
X155529642Y-61847892D01*
X155529643Y-61847892D01*
X155548666Y-61642604D01*
X155548666Y-61642595D01*
X155529643Y-61437307D01*
X155529642Y-61437303D01*
X155473220Y-61238997D01*
X155381323Y-61054441D01*
X155381320Y-61054437D01*
X155381319Y-61054435D01*
X155257070Y-60889903D01*
X155104703Y-60751002D01*
X155104698Y-60750998D01*
X154929414Y-60642467D01*
X154929403Y-60642461D01*
X154737160Y-60567987D01*
X154737156Y-60567986D01*
X154737154Y-60567985D01*
X154696620Y-60560408D01*
X154534492Y-60530100D01*
X154534488Y-60530100D01*
X154328312Y-60530100D01*
X154328307Y-60530100D01*
X154125646Y-60567985D01*
X154125639Y-60567987D01*
X153933396Y-60642461D01*
X153933385Y-60642467D01*
X153758101Y-60750998D01*
X153758096Y-60751002D01*
X153605730Y-60889903D01*
X153481476Y-61054441D01*
X153389579Y-61238997D01*
X153333157Y-61437303D01*
X153333156Y-61437307D01*
X153314134Y-61642595D01*
X153314134Y-61642604D01*
X153333156Y-61847892D01*
X153333157Y-61847896D01*
X153389579Y-62046202D01*
X153481476Y-62230758D01*
X153481480Y-62230763D01*
X153481481Y-62230765D01*
X153605730Y-62395297D01*
X153751954Y-62528598D01*
X153758096Y-62534197D01*
X153758101Y-62534201D01*
X153933385Y-62642732D01*
X153933396Y-62642738D01*
X154050625Y-62688152D01*
X154125646Y-62717215D01*
X154266231Y-62743495D01*
X154335794Y-62776807D01*
X154379382Y-62840437D01*
X154385315Y-62917337D01*
X154352003Y-62986900D01*
X154296490Y-63027358D01*
X154021510Y-63142709D01*
X154009968Y-63146999D01*
X153327027Y-63369178D01*
X153250006Y-63373243D01*
X153181271Y-63338253D01*
X153175572Y-63332847D01*
X150982226Y-61139501D01*
X150949374Y-61089808D01*
X150948174Y-61086828D01*
X150429265Y-59798453D01*
X150428373Y-59796259D01*
X150428334Y-59796164D01*
X150419018Y-59775391D01*
X150351122Y-59680074D01*
X150344797Y-59673735D01*
X150311777Y-59644513D01*
X150208912Y-59588711D01*
X150208910Y-59588710D01*
X150208909Y-59588710D01*
X150172090Y-59582528D01*
X150101924Y-59550505D01*
X150081589Y-59530115D01*
X150056210Y-59499190D01*
X150056207Y-59499187D01*
X150056205Y-59499185D01*
X149896252Y-59367917D01*
X149896250Y-59367915D01*
X149896246Y-59367913D01*
X149896242Y-59367910D01*
X149713755Y-59270368D01*
X149515736Y-59210300D01*
X149515737Y-59210300D01*
X149309800Y-59190017D01*
X149103862Y-59210300D01*
X148905844Y-59270368D01*
X148723357Y-59367910D01*
X148723347Y-59367917D01*
X148563390Y-59499189D01*
X148563389Y-59499190D01*
X148432117Y-59659147D01*
X148432110Y-59659157D01*
X148334568Y-59841644D01*
X148274500Y-60039662D01*
X148254217Y-60245600D01*
X148274500Y-60451537D01*
X148334568Y-60649555D01*
X148432110Y-60832042D01*
X148432113Y-60832046D01*
X148432115Y-60832050D01*
X148511399Y-60928658D01*
X148563389Y-60992009D01*
X148563391Y-60992011D01*
X148592088Y-61015562D01*
X148637014Y-61078256D01*
X148639946Y-61086828D01*
X148671237Y-61188286D01*
X148671240Y-61188293D01*
X148740165Y-61282857D01*
X148740170Y-61282863D01*
X148746564Y-61289133D01*
X148762777Y-61304073D01*
X148862653Y-61365065D01*
X148933855Y-61393742D01*
X149119520Y-61468522D01*
X149181168Y-61514872D01*
X149211381Y-61585836D01*
X149202065Y-61662399D01*
X149155715Y-61724047D01*
X149107106Y-61749317D01*
X148905844Y-61810368D01*
X148723357Y-61907910D01*
X148723347Y-61907917D01*
X148563390Y-62039189D01*
X148563389Y-62039190D01*
X148432117Y-62199147D01*
X148432110Y-62199157D01*
X148334568Y-62381644D01*
X148274500Y-62579662D01*
X148254217Y-62785600D01*
X148274500Y-62991537D01*
X148334568Y-63189555D01*
X148432110Y-63372042D01*
X148432113Y-63372046D01*
X148432115Y-63372050D01*
X148484740Y-63436174D01*
X148563389Y-63532009D01*
X148563391Y-63532011D01*
X148592088Y-63555562D01*
X148637014Y-63618256D01*
X148639946Y-63626828D01*
X148671237Y-63728286D01*
X148671240Y-63728293D01*
X148740165Y-63822857D01*
X148740170Y-63822863D01*
X148746564Y-63829133D01*
X148762777Y-63844073D01*
X148862653Y-63905065D01*
X148871892Y-63908786D01*
X149119520Y-64008522D01*
X149181168Y-64054872D01*
X149211381Y-64125836D01*
X149202065Y-64202399D01*
X149155715Y-64264047D01*
X149107106Y-64289317D01*
X148905844Y-64350368D01*
X148723357Y-64447910D01*
X148723347Y-64447917D01*
X148563390Y-64579189D01*
X148563389Y-64579190D01*
X148432117Y-64739147D01*
X148432110Y-64739157D01*
X148334568Y-64921644D01*
X148274500Y-65119662D01*
X148254217Y-65325600D01*
X148274500Y-65531537D01*
X148334568Y-65729555D01*
X148432110Y-65912042D01*
X148432113Y-65912046D01*
X148432115Y-65912050D01*
X148496225Y-65990169D01*
X148563389Y-66072009D01*
X148563391Y-66072011D01*
X148592088Y-66095562D01*
X148637014Y-66158256D01*
X148639946Y-66166828D01*
X148671237Y-66268286D01*
X148671240Y-66268293D01*
X148740165Y-66362857D01*
X148740170Y-66362863D01*
X148746564Y-66369133D01*
X148762777Y-66384073D01*
X148862653Y-66445065D01*
X148862658Y-66445067D01*
X148862663Y-66445070D01*
X148969013Y-66487903D01*
X149030661Y-66534252D01*
X149060875Y-66605216D01*
X149051559Y-66681779D01*
X149005210Y-66743427D01*
X148967174Y-66765052D01*
X148795006Y-66831751D01*
X148613799Y-66943949D01*
X148456298Y-67087531D01*
X148327864Y-67257603D01*
X148232861Y-67448396D01*
X148185287Y-67615600D01*
X148876788Y-67615600D01*
X148843875Y-67672607D01*
X148809800Y-67799774D01*
X148809800Y-67931426D01*
X148843875Y-68058593D01*
X148876788Y-68115600D01*
X148185288Y-68115600D01*
X148232861Y-68282803D01*
X148327864Y-68473596D01*
X148456298Y-68643668D01*
X148613799Y-68787250D01*
X148795006Y-68899448D01*
X148795009Y-68899450D01*
X148993733Y-68976436D01*
X148993751Y-68976441D01*
X149059799Y-68988786D01*
X149059800Y-68988786D01*
X149059800Y-68298612D01*
X149116807Y-68331525D01*
X149243974Y-68365600D01*
X149375626Y-68365600D01*
X149502793Y-68331525D01*
X149559800Y-68298612D01*
X149559800Y-68988786D01*
X149625848Y-68976441D01*
X149625866Y-68976436D01*
X149824590Y-68899450D01*
X149824593Y-68899448D01*
X150005800Y-68787250D01*
X150163301Y-68643668D01*
X150291735Y-68473596D01*
X150386738Y-68282803D01*
X150434312Y-68115600D01*
X149742812Y-68115600D01*
X149775725Y-68058593D01*
X149809800Y-67931426D01*
X149809800Y-67799774D01*
X149775725Y-67672607D01*
X149742812Y-67615600D01*
X150434312Y-67615600D01*
X150437203Y-67611771D01*
X150436243Y-67549443D01*
X150473774Y-67482062D01*
X150539967Y-67442474D01*
X150617086Y-67441286D01*
X150684467Y-67478817D01*
X150686102Y-67480427D01*
X151348059Y-68142384D01*
X151386623Y-68209179D01*
X151391700Y-68247743D01*
X151391700Y-74295526D01*
X151391700Y-74440474D01*
X151429216Y-74580485D01*
X151501690Y-74706015D01*
X153077385Y-76281710D01*
X153202915Y-76354184D01*
X153342925Y-76391700D01*
X159635573Y-76391700D01*
X159710073Y-76411662D01*
X159764611Y-76466200D01*
X159784573Y-76540700D01*
X159764611Y-76615200D01*
X159714012Y-76667382D01*
X159567098Y-76758347D01*
X159567097Y-76758348D01*
X159409527Y-76901993D01*
X159281036Y-77072140D01*
X159185994Y-77263012D01*
X159185993Y-77263014D01*
X159127643Y-77468094D01*
X159107971Y-77680395D01*
X159107971Y-77680404D01*
X159127643Y-77892705D01*
X159127643Y-77892707D01*
X159127644Y-77892710D01*
X159136384Y-77923428D01*
X159185993Y-78097785D01*
X159185994Y-78097787D01*
X159281036Y-78288659D01*
X159409527Y-78458806D01*
X159567097Y-78602451D01*
X159567098Y-78602452D01*
X159748377Y-78714696D01*
X159748383Y-78714699D01*
X159772005Y-78723850D01*
X159947202Y-78791721D01*
X160012552Y-78803937D01*
X160082116Y-78837249D01*
X160125703Y-78900880D01*
X160131636Y-78977779D01*
X160098324Y-79047343D01*
X160034693Y-79090930D01*
X160012553Y-79096862D01*
X159947202Y-79109079D01*
X159947195Y-79109081D01*
X159748383Y-79186100D01*
X159748377Y-79186103D01*
X159567098Y-79298347D01*
X159567097Y-79298348D01*
X159409527Y-79441993D01*
X159281036Y-79612140D01*
X159185994Y-79803012D01*
X159185993Y-79803014D01*
X159127643Y-80008094D01*
X159107971Y-80220395D01*
X159107971Y-80220404D01*
X159127643Y-80432705D01*
X159185993Y-80637785D01*
X159185994Y-80637787D01*
X159281036Y-80828659D01*
X159409527Y-80998806D01*
X159567097Y-81142451D01*
X159567098Y-81142452D01*
X159748377Y-81254696D01*
X159748383Y-81254699D01*
X159835589Y-81288482D01*
X159947202Y-81331721D01*
X160012552Y-81343937D01*
X160082116Y-81377249D01*
X160125703Y-81440880D01*
X160131636Y-81517779D01*
X160098324Y-81587343D01*
X160034693Y-81630930D01*
X160012553Y-81636862D01*
X159979347Y-81643070D01*
X159947202Y-81649079D01*
X159947195Y-81649081D01*
X159748383Y-81726100D01*
X159748377Y-81726103D01*
X159567098Y-81838347D01*
X159567097Y-81838348D01*
X159409527Y-81981993D01*
X159281036Y-82152140D01*
X159185994Y-82343012D01*
X159185993Y-82343014D01*
X159127643Y-82548094D01*
X159107971Y-82760395D01*
X159107971Y-82760404D01*
X159127643Y-82972705D01*
X159185993Y-83177785D01*
X159185994Y-83177787D01*
X159281036Y-83368659D01*
X159409527Y-83538806D01*
X159567097Y-83682451D01*
X159567098Y-83682452D01*
X159748377Y-83794696D01*
X159748383Y-83794699D01*
X159835589Y-83828482D01*
X159947202Y-83871721D01*
X160012552Y-83883937D01*
X160082116Y-83917249D01*
X160125703Y-83980880D01*
X160131636Y-84057779D01*
X160098324Y-84127343D01*
X160034693Y-84170930D01*
X160012553Y-84176862D01*
X159981808Y-84182610D01*
X159947202Y-84189079D01*
X159947195Y-84189081D01*
X159748383Y-84266100D01*
X159748377Y-84266103D01*
X159567098Y-84378347D01*
X159567097Y-84378348D01*
X159409527Y-84521993D01*
X159281036Y-84692140D01*
X159185994Y-84883012D01*
X159185993Y-84883014D01*
X159127643Y-85088094D01*
X159107971Y-85300395D01*
X159107971Y-85300404D01*
X159127643Y-85512705D01*
X159185993Y-85717785D01*
X159185994Y-85717787D01*
X159281036Y-85908659D01*
X159399454Y-86065467D01*
X159409528Y-86078807D01*
X159527827Y-86186651D01*
X159567097Y-86222451D01*
X159567098Y-86222452D01*
X159748377Y-86334696D01*
X159748383Y-86334699D01*
X159822243Y-86363312D01*
X159947202Y-86411721D01*
X160012552Y-86423937D01*
X160082116Y-86457249D01*
X160125703Y-86520880D01*
X160131636Y-86597779D01*
X160098324Y-86667343D01*
X160034693Y-86710930D01*
X160012553Y-86716862D01*
X159947202Y-86729079D01*
X159947195Y-86729081D01*
X159748383Y-86806100D01*
X159748377Y-86806103D01*
X159567098Y-86918347D01*
X159567097Y-86918348D01*
X159409527Y-87061993D01*
X159281036Y-87232140D01*
X159185994Y-87423012D01*
X159185993Y-87423014D01*
X159127643Y-87628094D01*
X159107971Y-87840395D01*
X159107971Y-87840404D01*
X159127643Y-88052705D01*
X159185993Y-88257785D01*
X159185994Y-88257787D01*
X159281036Y-88448659D01*
X159392496Y-88596253D01*
X159409528Y-88618807D01*
X159533643Y-88731953D01*
X159567097Y-88762451D01*
X159567098Y-88762452D01*
X159748377Y-88874696D01*
X159748383Y-88874699D01*
X159835589Y-88908482D01*
X159947202Y-88951721D01*
X160012552Y-88963937D01*
X160082116Y-88997249D01*
X160125703Y-89060880D01*
X160131636Y-89137779D01*
X160098324Y-89207343D01*
X160034693Y-89250930D01*
X160012553Y-89256862D01*
X159947202Y-89269079D01*
X159947195Y-89269081D01*
X159748383Y-89346100D01*
X159748377Y-89346103D01*
X159567098Y-89458347D01*
X159567097Y-89458348D01*
X159409527Y-89601993D01*
X159281036Y-89772140D01*
X159185994Y-89963012D01*
X159185993Y-89963014D01*
X159127643Y-90168094D01*
X159107971Y-90380395D01*
X159107971Y-90380404D01*
X159127643Y-90592705D01*
X159127643Y-90592707D01*
X159127644Y-90592710D01*
X159137118Y-90626006D01*
X159185993Y-90797785D01*
X159185994Y-90797787D01*
X159281036Y-90988659D01*
X159409527Y-91158806D01*
X159567097Y-91302451D01*
X159567098Y-91302452D01*
X159748377Y-91414696D01*
X159748383Y-91414699D01*
X159821285Y-91442941D01*
X159947202Y-91491721D01*
X160012552Y-91503937D01*
X160082116Y-91537249D01*
X160125703Y-91600880D01*
X160131636Y-91677779D01*
X160098324Y-91747343D01*
X160034693Y-91790930D01*
X160012553Y-91796862D01*
X159947202Y-91809079D01*
X159947195Y-91809081D01*
X159748383Y-91886100D01*
X159748377Y-91886103D01*
X159567098Y-91998347D01*
X159567097Y-91998348D01*
X159409527Y-92141993D01*
X159281036Y-92312140D01*
X159185994Y-92503012D01*
X159185993Y-92503014D01*
X159127643Y-92708094D01*
X159107971Y-92920395D01*
X159107971Y-92920404D01*
X159127643Y-93132705D01*
X159127643Y-93132707D01*
X159127644Y-93132710D01*
X159130269Y-93141936D01*
X159185993Y-93337785D01*
X159185994Y-93337787D01*
X159281036Y-93528659D01*
X159397442Y-93682803D01*
X159409528Y-93698807D01*
X159516070Y-93795933D01*
X159567097Y-93842451D01*
X159567098Y-93842452D01*
X159748377Y-93954696D01*
X159748383Y-93954699D01*
X159922010Y-94021962D01*
X159984268Y-94067488D01*
X160015422Y-94138044D01*
X160007123Y-94214725D01*
X159961597Y-94276983D01*
X159891041Y-94308137D01*
X159868185Y-94309900D01*
X159430131Y-94309900D01*
X159362006Y-94319826D01*
X159362005Y-94319826D01*
X159256918Y-94371200D01*
X159174200Y-94453918D01*
X159122826Y-94559005D01*
X159122826Y-94559006D01*
X159112900Y-94627131D01*
X159112900Y-96225467D01*
X159112644Y-96231877D01*
X159112900Y-96237854D01*
X159112900Y-96293668D01*
X159122826Y-96361793D01*
X159122826Y-96361794D01*
X159174200Y-96466881D01*
X159181357Y-96476904D01*
X159181387Y-96476882D01*
X159185082Y-96481809D01*
X159185084Y-96481812D01*
X159683100Y-97145833D01*
X159711830Y-97217409D01*
X159712900Y-97235232D01*
X159712900Y-98281075D01*
X159734056Y-98360032D01*
X159746943Y-98408124D01*
X159750416Y-98421084D01*
X159750416Y-98421086D01*
X159820526Y-98542521D01*
X159822890Y-98546615D01*
X160288022Y-99011747D01*
X160709859Y-99433583D01*
X160748423Y-99500378D01*
X160753500Y-99538942D01*
X160753500Y-100665510D01*
X160741958Y-100723010D01*
X160281180Y-101824542D01*
X160276482Y-101834686D01*
X160191458Y-102001556D01*
X160191453Y-102001567D01*
X160169157Y-102070187D01*
X160127149Y-102134871D01*
X160058427Y-102169885D01*
X159981404Y-102165848D01*
X159916720Y-102123840D01*
X159885742Y-102070184D01*
X159869744Y-102020946D01*
X159787567Y-101859667D01*
X159787566Y-101859666D01*
X159681171Y-101713226D01*
X159681169Y-101713223D01*
X159553176Y-101585230D01*
X159553173Y-101585228D01*
X159406733Y-101478833D01*
X159406732Y-101478832D01*
X159245453Y-101396655D01*
X159073292Y-101340717D01*
X159073284Y-101340716D01*
X159054000Y-101337661D01*
X159054000Y-102183254D01*
X158987343Y-102144770D01*
X158866535Y-102112400D01*
X158741465Y-102112400D01*
X158620657Y-102144770D01*
X158554000Y-102183254D01*
X158554000Y-101337661D01*
X158534715Y-101340716D01*
X158534707Y-101340717D01*
X158362546Y-101396655D01*
X158201267Y-101478832D01*
X158201266Y-101478833D01*
X158054826Y-101585228D01*
X158054823Y-101585230D01*
X157926830Y-101713223D01*
X157926828Y-101713226D01*
X157820433Y-101859666D01*
X157820432Y-101859667D01*
X157738253Y-102020950D01*
X157682318Y-102193101D01*
X157659463Y-102337400D01*
X158399854Y-102337400D01*
X158361370Y-102404057D01*
X158329000Y-102524865D01*
X158329000Y-102649935D01*
X158361370Y-102770743D01*
X158399854Y-102837400D01*
X157659463Y-102837400D01*
X157682318Y-102981698D01*
X157738253Y-103153849D01*
X157820432Y-103315132D01*
X157820433Y-103315133D01*
X157926828Y-103461573D01*
X157926830Y-103461576D01*
X158054823Y-103589569D01*
X158054826Y-103589571D01*
X158201266Y-103695966D01*
X158201267Y-103695967D01*
X158362550Y-103778146D01*
X158534702Y-103834081D01*
X158554000Y-103837137D01*
X158554000Y-102991545D01*
X158620657Y-103030030D01*
X158741465Y-103062400D01*
X158866535Y-103062400D01*
X158987343Y-103030030D01*
X159054000Y-102991545D01*
X159054000Y-103837137D01*
X159073297Y-103834081D01*
X159245449Y-103778146D01*
X159406732Y-103695967D01*
X159406733Y-103695966D01*
X159553173Y-103589571D01*
X159553176Y-103589569D01*
X159681169Y-103461576D01*
X159681171Y-103461573D01*
X159787566Y-103315133D01*
X159787567Y-103315132D01*
X159869744Y-103153851D01*
X159885742Y-103104616D01*
X159927748Y-103039930D01*
X159996470Y-103004914D01*
X160073492Y-103008950D01*
X160138178Y-103050956D01*
X160169157Y-103104613D01*
X160191453Y-103173232D01*
X160277240Y-103341599D01*
X160388310Y-103494473D01*
X160521927Y-103628090D01*
X160674801Y-103739160D01*
X160843168Y-103824947D01*
X161022882Y-103883340D01*
X161209519Y-103912900D01*
X161209524Y-103912900D01*
X161398476Y-103912900D01*
X161398481Y-103912900D01*
X161585118Y-103883340D01*
X161764832Y-103824947D01*
X161933199Y-103739160D01*
X162086073Y-103628090D01*
X162219690Y-103494473D01*
X162297950Y-103386757D01*
X162357886Y-103338223D01*
X162434065Y-103326157D01*
X162506070Y-103353797D01*
X162554608Y-103413737D01*
X162561573Y-103432770D01*
X162602255Y-103572797D01*
X162602256Y-103572798D01*
X162685919Y-103714265D01*
X162802135Y-103830481D01*
X162943602Y-103914144D01*
X163101428Y-103959997D01*
X163101427Y-103959997D01*
X163101431Y-103959998D01*
X163138306Y-103962900D01*
X163138313Y-103962900D01*
X164469687Y-103962900D01*
X164469694Y-103962900D01*
X164506569Y-103959998D01*
X164664398Y-103914144D01*
X164805865Y-103830481D01*
X164922081Y-103714265D01*
X165005744Y-103572798D01*
X165051598Y-103414969D01*
X165054500Y-103378094D01*
X165054500Y-101796706D01*
X165051598Y-101759831D01*
X165005744Y-101602002D01*
X164922081Y-101460535D01*
X164805865Y-101344319D01*
X164664398Y-101260656D01*
X164598279Y-101241446D01*
X164506571Y-101214802D01*
X164506572Y-101214802D01*
X164494294Y-101213836D01*
X164469694Y-101211900D01*
X163138306Y-101211900D01*
X163113722Y-101213834D01*
X163101428Y-101214802D01*
X162943599Y-101260657D01*
X162802136Y-101344318D01*
X162802133Y-101344320D01*
X162685920Y-101460533D01*
X162685918Y-101460536D01*
X162602256Y-101602001D01*
X162568922Y-101716733D01*
X162528967Y-101782705D01*
X162461379Y-101819860D01*
X162384267Y-101818244D01*
X162318295Y-101778289D01*
X162288383Y-101732663D01*
X161866042Y-100723012D01*
X161854500Y-100665513D01*
X161854500Y-99176725D01*
X161854499Y-99176723D01*
X161816984Y-99036715D01*
X161802569Y-99011747D01*
X161801955Y-99010683D01*
X161801955Y-99010684D01*
X161744510Y-98911186D01*
X160857541Y-98024216D01*
X160818977Y-97957421D01*
X160813900Y-97918857D01*
X160813900Y-97235232D01*
X160833862Y-97160732D01*
X160843700Y-97145832D01*
X160865231Y-97117125D01*
X161086369Y-96822273D01*
X161345311Y-96477018D01*
X161345791Y-96477378D01*
X161345886Y-96477260D01*
X161345424Y-96476930D01*
X161352597Y-96466884D01*
X161352597Y-96466883D01*
X161352598Y-96466883D01*
X161403973Y-96361793D01*
X161413900Y-96293660D01*
X161413900Y-96253036D01*
X161414544Y-96240638D01*
X161414181Y-96234723D01*
X161413900Y-96225581D01*
X161413900Y-94627141D01*
X161413899Y-94627131D01*
X161403973Y-94559006D01*
X161403973Y-94559005D01*
X161352599Y-94453918D01*
X161269881Y-94371200D01*
X161164794Y-94319826D01*
X161096668Y-94309900D01*
X161096660Y-94309900D01*
X160658615Y-94309900D01*
X160584115Y-94289938D01*
X160529577Y-94235400D01*
X160509615Y-94160900D01*
X160529577Y-94086400D01*
X160584115Y-94031862D01*
X160604788Y-94021963D01*
X160649321Y-94004710D01*
X160682722Y-93996054D01*
X160685798Y-93995628D01*
X160685799Y-93995627D01*
X160685803Y-93995627D01*
X161429044Y-93763320D01*
X161506105Y-93760149D01*
X161574430Y-93795933D01*
X161578852Y-93800177D01*
X162854259Y-95075584D01*
X162892823Y-95142379D01*
X162897900Y-95180943D01*
X162897900Y-97371277D01*
X162912867Y-97427135D01*
X162912868Y-97427135D01*
X162935416Y-97511285D01*
X162997075Y-97618082D01*
X163007890Y-97636815D01*
X168999887Y-103628812D01*
X169038451Y-103695607D01*
X169038451Y-103772735D01*
X168999887Y-103839530D01*
X168933092Y-103878094D01*
X168867150Y-103880634D01*
X168701136Y-103849600D01*
X168497265Y-103849600D01*
X168296882Y-103887058D01*
X168106785Y-103960702D01*
X168018512Y-104015358D01*
X168552754Y-104549600D01*
X168546539Y-104549600D01*
X168444806Y-104576859D01*
X168353594Y-104629520D01*
X168279120Y-104703994D01*
X168226459Y-104795206D01*
X168199200Y-104896939D01*
X168199200Y-104903154D01*
X167661733Y-104365687D01*
X167661732Y-104365687D01*
X167659958Y-104368037D01*
X167659950Y-104368051D01*
X167569086Y-104550530D01*
X167513296Y-104746614D01*
X167494487Y-104949595D01*
X167494487Y-104949604D01*
X167513296Y-105152585D01*
X167569085Y-105348664D01*
X167659954Y-105531156D01*
X167661733Y-105533512D01*
X168199200Y-104996044D01*
X168199200Y-105002261D01*
X168226459Y-105103994D01*
X168279120Y-105195206D01*
X168353594Y-105269680D01*
X168444806Y-105322341D01*
X168546539Y-105349600D01*
X168552752Y-105349600D01*
X168018512Y-105883840D01*
X168106781Y-105938496D01*
X168296882Y-106012141D01*
X168497265Y-106049599D01*
X168497273Y-106049600D01*
X168701127Y-106049600D01*
X168701133Y-106049599D01*
X168867148Y-106018565D01*
X168944047Y-106024498D01*
X169007678Y-106068085D01*
X169040990Y-106137649D01*
X169035057Y-106214548D01*
X168999886Y-106270387D01*
X166868690Y-108401584D01*
X166796217Y-108527113D01*
X166758700Y-108667124D01*
X166758700Y-109283915D01*
X166753623Y-109322480D01*
X166733300Y-109398323D01*
X166733300Y-111111457D01*
X166713338Y-111185957D01*
X166689659Y-111216816D01*
X166064680Y-111841794D01*
X165997885Y-111880358D01*
X165920757Y-111880358D01*
X165870267Y-111855894D01*
X165200225Y-111356392D01*
X165171069Y-111327638D01*
X165122482Y-111264318D01*
X165122481Y-111264317D01*
X164997040Y-111168063D01*
X164917144Y-111134969D01*
X164850962Y-111107556D01*
X164850960Y-111107555D01*
X164850956Y-111107554D01*
X164850959Y-111107554D01*
X164733563Y-111092100D01*
X163454843Y-111092100D01*
X163337438Y-111107556D01*
X163191359Y-111168063D01*
X163065918Y-111264317D01*
X163065917Y-111264318D01*
X162969663Y-111389759D01*
X162909154Y-111535842D01*
X162893700Y-111653233D01*
X162893700Y-111689289D01*
X162873738Y-111763789D01*
X162819200Y-111818327D01*
X162744700Y-111838289D01*
X162670200Y-111818327D01*
X162615662Y-111763789D01*
X162611941Y-111756935D01*
X162577770Y-111689872D01*
X162577766Y-111689866D01*
X162471371Y-111543426D01*
X162471369Y-111543423D01*
X162343376Y-111415430D01*
X162343373Y-111415428D01*
X162196933Y-111309033D01*
X162196932Y-111309032D01*
X162035653Y-111226855D01*
X161863492Y-111170917D01*
X161863484Y-111170916D01*
X161844200Y-111167861D01*
X161844200Y-112009588D01*
X161787193Y-111976675D01*
X161660026Y-111942600D01*
X161528374Y-111942600D01*
X161401207Y-111976675D01*
X161344200Y-112009588D01*
X161344200Y-111167861D01*
X161324915Y-111170916D01*
X161324907Y-111170917D01*
X161152746Y-111226855D01*
X160991467Y-111309032D01*
X160991466Y-111309033D01*
X160845026Y-111415428D01*
X160845023Y-111415430D01*
X160717030Y-111543423D01*
X160717028Y-111543426D01*
X160610633Y-111689866D01*
X160610632Y-111689867D01*
X160528453Y-111851150D01*
X160472517Y-112023304D01*
X160445704Y-112192600D01*
X161161188Y-112192600D01*
X161128275Y-112249607D01*
X161094200Y-112376774D01*
X161094200Y-112508426D01*
X161128275Y-112635593D01*
X161161188Y-112692600D01*
X160445704Y-112692600D01*
X160472517Y-112861895D01*
X160528453Y-113034049D01*
X160610632Y-113195332D01*
X160610633Y-113195333D01*
X160717028Y-113341773D01*
X160717030Y-113341776D01*
X160845023Y-113469769D01*
X160845026Y-113469771D01*
X160991466Y-113576166D01*
X160991467Y-113576167D01*
X161152750Y-113658346D01*
X161308009Y-113708793D01*
X161372694Y-113750800D01*
X161407709Y-113819522D01*
X161403672Y-113896544D01*
X161361665Y-113961229D01*
X161292943Y-113996244D01*
X161261965Y-113999500D01*
X147504499Y-113999500D01*
X147495503Y-113999228D01*
X147207714Y-113981820D01*
X147189852Y-113979651D01*
X146910695Y-113928493D01*
X146893225Y-113924187D01*
X146622273Y-113839755D01*
X146605449Y-113833375D01*
X146346637Y-113716893D01*
X146330706Y-113708531D01*
X146087836Y-113561711D01*
X146073028Y-113551490D01*
X145849622Y-113376463D01*
X145836154Y-113364532D01*
X145635467Y-113163845D01*
X145623536Y-113150377D01*
X145523461Y-113022641D01*
X145448509Y-112926971D01*
X145438288Y-112912163D01*
X145340019Y-112749607D01*
X145291467Y-112669291D01*
X145283106Y-112653362D01*
X145275109Y-112635593D01*
X145166622Y-112394546D01*
X145160244Y-112377726D01*
X145159947Y-112376774D01*
X145075811Y-112106772D01*
X145071506Y-112089304D01*
X145020346Y-111810134D01*
X145018180Y-111792298D01*
X145000772Y-111504496D01*
X145000500Y-111495500D01*
X145000500Y-110714470D01*
X146354300Y-110714470D01*
X146354300Y-110970330D01*
X146386071Y-111170917D01*
X146394327Y-111223045D01*
X146473390Y-111466377D01*
X146531276Y-111579983D01*
X146587265Y-111689867D01*
X146589549Y-111694348D01*
X146589549Y-111694349D01*
X146640000Y-111763789D01*
X146739938Y-111901342D01*
X146920858Y-112082262D01*
X147127853Y-112232652D01*
X147247470Y-112293600D01*
X147355822Y-112348809D01*
X147355824Y-112348809D01*
X147355825Y-112348810D01*
X147496599Y-112394550D01*
X147599155Y-112427872D01*
X147599161Y-112427874D01*
X147851870Y-112467900D01*
X147851875Y-112467900D01*
X148107725Y-112467900D01*
X148107730Y-112467900D01*
X148360439Y-112427874D01*
X148603775Y-112348810D01*
X148831747Y-112232652D01*
X149038742Y-112082262D01*
X149219662Y-111901342D01*
X149370052Y-111694347D01*
X149486210Y-111466375D01*
X149554603Y-111255881D01*
X151484500Y-111255881D01*
X151484500Y-111255882D01*
X151484500Y-111255885D01*
X151484500Y-113018918D01*
X151499354Y-113112704D01*
X151556950Y-113225742D01*
X151646658Y-113315450D01*
X151759696Y-113373046D01*
X151853481Y-113387900D01*
X153616518Y-113387899D01*
X153710304Y-113373046D01*
X153823342Y-113315450D01*
X153913050Y-113225742D01*
X153970646Y-113112704D01*
X153985500Y-113018919D01*
X153985499Y-112761230D01*
X154005461Y-112686733D01*
X154059999Y-112632195D01*
X154134498Y-112612233D01*
X154208999Y-112632195D01*
X154263537Y-112686733D01*
X154267878Y-112694817D01*
X154293063Y-112745394D01*
X154421498Y-112915468D01*
X154578999Y-113059050D01*
X154760206Y-113171248D01*
X154760209Y-113171250D01*
X154958933Y-113248236D01*
X154958951Y-113248241D01*
X155024999Y-113260586D01*
X155025000Y-113260586D01*
X155025000Y-112570412D01*
X155082007Y-112603325D01*
X155209174Y-112637400D01*
X155340826Y-112637400D01*
X155467993Y-112603325D01*
X155525000Y-112570412D01*
X155525000Y-113260586D01*
X155591048Y-113248241D01*
X155591066Y-113248236D01*
X155789790Y-113171250D01*
X155789793Y-113171248D01*
X155971000Y-113059050D01*
X156128501Y-112915468D01*
X156256935Y-112745396D01*
X156351938Y-112554603D01*
X156399512Y-112387400D01*
X155708012Y-112387400D01*
X155740925Y-112330393D01*
X155775000Y-112203226D01*
X155775000Y-112071574D01*
X155740925Y-111944407D01*
X155708012Y-111887400D01*
X156399512Y-111887400D01*
X156351938Y-111720196D01*
X156256935Y-111529403D01*
X156128501Y-111359331D01*
X155971000Y-111215749D01*
X155789793Y-111103551D01*
X155789790Y-111103549D01*
X155591065Y-111026563D01*
X155525000Y-111014212D01*
X155525000Y-111704388D01*
X155467993Y-111671475D01*
X155340826Y-111637400D01*
X155209174Y-111637400D01*
X155082007Y-111671475D01*
X155025000Y-111704388D01*
X155025000Y-111014213D01*
X155024999Y-111014212D01*
X154958934Y-111026563D01*
X154760209Y-111103549D01*
X154760206Y-111103551D01*
X154578999Y-111215749D01*
X154421498Y-111359331D01*
X154293063Y-111529405D01*
X154293062Y-111529405D01*
X154267878Y-111579983D01*
X154216801Y-111637774D01*
X154143671Y-111662284D01*
X154068083Y-111646946D01*
X154010292Y-111595869D01*
X153985782Y-111522739D01*
X153985499Y-111513567D01*
X153985499Y-111255881D01*
X153980902Y-111226855D01*
X153970646Y-111162096D01*
X153913050Y-111049058D01*
X153823342Y-110959350D01*
X153710305Y-110901754D01*
X153694673Y-110899278D01*
X153616519Y-110886900D01*
X153616514Y-110886900D01*
X151853481Y-110886900D01*
X151759695Y-110901754D01*
X151759693Y-110901755D01*
X151646657Y-110959350D01*
X151556950Y-111049057D01*
X151499354Y-111162094D01*
X151499354Y-111162096D01*
X151484500Y-111255881D01*
X149554603Y-111255881D01*
X149565274Y-111223039D01*
X149605300Y-110970330D01*
X149605300Y-110714470D01*
X149565274Y-110461761D01*
X149486210Y-110218425D01*
X149486209Y-110218424D01*
X149486209Y-110218422D01*
X149445534Y-110138594D01*
X149370052Y-109990453D01*
X149219662Y-109783458D01*
X149038742Y-109602538D01*
X148831747Y-109452148D01*
X148726110Y-109398323D01*
X148603777Y-109335990D01*
X148360444Y-109256927D01*
X148360445Y-109256927D01*
X148360439Y-109256926D01*
X148107730Y-109216900D01*
X147851870Y-109216900D01*
X147629658Y-109252095D01*
X147599154Y-109256927D01*
X147355822Y-109335990D01*
X147127851Y-109452149D01*
X147127850Y-109452149D01*
X146920859Y-109602537D01*
X146920856Y-109602539D01*
X146739939Y-109783456D01*
X146739937Y-109783459D01*
X146589549Y-109990450D01*
X146589549Y-109990451D01*
X146473390Y-110218422D01*
X146394327Y-110461754D01*
X146394326Y-110461761D01*
X146354300Y-110714470D01*
X145000500Y-110714470D01*
X145000500Y-105965600D01*
X145714217Y-105965600D01*
X145734500Y-106171537D01*
X145794568Y-106369555D01*
X145892110Y-106552042D01*
X145892113Y-106552046D01*
X145892115Y-106552050D01*
X146023390Y-106712010D01*
X146183350Y-106843285D01*
X146365846Y-106940832D01*
X146563863Y-107000899D01*
X146563866Y-107000900D01*
X146769800Y-107021183D01*
X146975734Y-107000900D01*
X147173754Y-106940832D01*
X147356250Y-106843285D01*
X147516210Y-106712010D01*
X147647485Y-106552050D01*
X147745032Y-106369554D01*
X147805100Y-106171534D01*
X147825383Y-105965600D01*
X147805100Y-105759666D01*
X147795496Y-105728007D01*
X147791732Y-105715600D01*
X148185287Y-105715600D01*
X148876788Y-105715600D01*
X148843875Y-105772607D01*
X148809800Y-105899774D01*
X148809800Y-106031426D01*
X148843875Y-106158593D01*
X148876788Y-106215600D01*
X148185288Y-106215600D01*
X148232861Y-106382803D01*
X148327864Y-106573596D01*
X148456298Y-106743668D01*
X148613799Y-106887250D01*
X148795006Y-106999448D01*
X148795009Y-106999450D01*
X148993733Y-107076436D01*
X148993751Y-107076441D01*
X149059799Y-107088786D01*
X149059800Y-107088786D01*
X149059800Y-106398612D01*
X149116807Y-106431525D01*
X149243974Y-106465600D01*
X149375626Y-106465600D01*
X149502793Y-106431525D01*
X149559800Y-106398612D01*
X149559800Y-107088786D01*
X149625848Y-107076441D01*
X149625866Y-107076436D01*
X149824590Y-106999450D01*
X149824593Y-106999448D01*
X150005800Y-106887250D01*
X150163301Y-106743668D01*
X150291735Y-106573596D01*
X150386738Y-106382803D01*
X150434312Y-106215600D01*
X149742812Y-106215600D01*
X149775725Y-106158593D01*
X149809800Y-106031426D01*
X149809800Y-105899774D01*
X149775725Y-105772607D01*
X149742812Y-105715600D01*
X150434312Y-105715600D01*
X150386738Y-105548396D01*
X150291735Y-105357603D01*
X150163301Y-105187531D01*
X150005800Y-105043949D01*
X149824593Y-104931751D01*
X149824590Y-104931749D01*
X149625865Y-104854763D01*
X149559800Y-104842412D01*
X149559800Y-105532588D01*
X149502793Y-105499675D01*
X149375626Y-105465600D01*
X149243974Y-105465600D01*
X149116807Y-105499675D01*
X149059800Y-105532588D01*
X149059800Y-104842413D01*
X149059799Y-104842412D01*
X148993734Y-104854763D01*
X148795009Y-104931749D01*
X148795006Y-104931751D01*
X148613799Y-105043949D01*
X148456298Y-105187531D01*
X148327864Y-105357603D01*
X148232861Y-105548396D01*
X148185287Y-105715600D01*
X147791732Y-105715600D01*
X147745031Y-105561644D01*
X147647489Y-105379157D01*
X147647487Y-105379155D01*
X147647485Y-105379150D01*
X147516210Y-105219190D01*
X147356250Y-105087915D01*
X147356246Y-105087913D01*
X147356242Y-105087910D01*
X147173755Y-104990368D01*
X146975736Y-104930300D01*
X146975737Y-104930300D01*
X146769800Y-104910017D01*
X146563862Y-104930300D01*
X146365844Y-104990368D01*
X146183357Y-105087910D01*
X146183347Y-105087917D01*
X146023390Y-105219189D01*
X146023389Y-105219190D01*
X145892117Y-105379147D01*
X145892110Y-105379157D01*
X145794568Y-105561644D01*
X145734500Y-105759662D01*
X145714217Y-105965600D01*
X145000500Y-105965600D01*
X145000500Y-103425600D01*
X145714217Y-103425600D01*
X145734500Y-103631537D01*
X145794568Y-103829555D01*
X145892110Y-104012042D01*
X145892113Y-104012046D01*
X145892115Y-104012050D01*
X145892117Y-104012052D01*
X146022719Y-104171193D01*
X146023390Y-104172010D01*
X146183350Y-104303285D01*
X146183355Y-104303287D01*
X146183357Y-104303289D01*
X146365844Y-104400831D01*
X146365846Y-104400832D01*
X146563863Y-104460899D01*
X146563866Y-104460900D01*
X146769800Y-104481183D01*
X146975734Y-104460900D01*
X147173754Y-104400832D01*
X147356250Y-104303285D01*
X147516210Y-104172010D01*
X147647485Y-104012050D01*
X147745032Y-103829554D01*
X147805100Y-103631534D01*
X147825383Y-103425600D01*
X148254217Y-103425600D01*
X148274500Y-103631537D01*
X148334568Y-103829555D01*
X148432110Y-104012042D01*
X148432113Y-104012046D01*
X148432115Y-104012050D01*
X148432117Y-104012052D01*
X148562719Y-104171193D01*
X148563390Y-104172010D01*
X148723350Y-104303285D01*
X148723355Y-104303287D01*
X148723357Y-104303289D01*
X148905844Y-104400831D01*
X148905846Y-104400832D01*
X149103863Y-104460899D01*
X149103866Y-104460900D01*
X149309800Y-104481183D01*
X149515734Y-104460900D01*
X149713754Y-104400832D01*
X149896250Y-104303285D01*
X150056210Y-104172010D01*
X150187485Y-104012050D01*
X150285032Y-103829554D01*
X150345100Y-103631534D01*
X150365383Y-103425600D01*
X150345100Y-103219666D01*
X150285032Y-103021646D01*
X150278246Y-103008950D01*
X150187489Y-102839157D01*
X150187487Y-102839155D01*
X150187485Y-102839150D01*
X150056210Y-102679190D01*
X150020562Y-102649935D01*
X149896252Y-102547917D01*
X149896250Y-102547915D01*
X149896246Y-102547913D01*
X149896242Y-102547910D01*
X149713755Y-102450368D01*
X149515736Y-102390300D01*
X149515737Y-102390300D01*
X149309800Y-102370017D01*
X149103862Y-102390300D01*
X148905844Y-102450368D01*
X148723357Y-102547910D01*
X148723347Y-102547917D01*
X148563390Y-102679189D01*
X148563389Y-102679190D01*
X148432117Y-102839147D01*
X148432110Y-102839157D01*
X148334568Y-103021644D01*
X148274500Y-103219662D01*
X148254217Y-103425600D01*
X147825383Y-103425600D01*
X147805100Y-103219666D01*
X147745032Y-103021646D01*
X147738246Y-103008950D01*
X147647489Y-102839157D01*
X147647487Y-102839155D01*
X147647485Y-102839150D01*
X147516210Y-102679190D01*
X147480562Y-102649935D01*
X147356252Y-102547917D01*
X147356250Y-102547915D01*
X147356246Y-102547913D01*
X147356242Y-102547910D01*
X147173755Y-102450368D01*
X146975736Y-102390300D01*
X146975737Y-102390300D01*
X146769800Y-102370017D01*
X146563862Y-102390300D01*
X146365844Y-102450368D01*
X146183357Y-102547910D01*
X146183347Y-102547917D01*
X146023390Y-102679189D01*
X146023389Y-102679190D01*
X145892117Y-102839147D01*
X145892110Y-102839157D01*
X145794568Y-103021644D01*
X145734500Y-103219662D01*
X145714217Y-103425600D01*
X145000500Y-103425600D01*
X145000500Y-100885600D01*
X145714217Y-100885600D01*
X145734500Y-101091537D01*
X145794568Y-101289555D01*
X145892110Y-101472042D01*
X145892113Y-101472046D01*
X145892115Y-101472050D01*
X145892117Y-101472052D01*
X146012637Y-101618908D01*
X146023390Y-101632010D01*
X146183350Y-101763285D01*
X146183355Y-101763287D01*
X146183357Y-101763289D01*
X146363666Y-101859667D01*
X146365846Y-101860832D01*
X146563863Y-101920899D01*
X146563866Y-101920900D01*
X146769800Y-101941183D01*
X146975734Y-101920900D01*
X147173754Y-101860832D01*
X147356250Y-101763285D01*
X147516210Y-101632010D01*
X147647485Y-101472050D01*
X147745032Y-101289554D01*
X147805100Y-101091534D01*
X147825383Y-100885600D01*
X148254217Y-100885600D01*
X148274500Y-101091537D01*
X148334568Y-101289555D01*
X148432110Y-101472042D01*
X148432113Y-101472046D01*
X148432115Y-101472050D01*
X148432117Y-101472052D01*
X148552637Y-101618908D01*
X148563390Y-101632010D01*
X148723350Y-101763285D01*
X148723355Y-101763287D01*
X148723357Y-101763289D01*
X148903666Y-101859667D01*
X148905846Y-101860832D01*
X149103863Y-101920899D01*
X149103866Y-101920900D01*
X149309800Y-101941183D01*
X149515734Y-101920900D01*
X149713754Y-101860832D01*
X149896250Y-101763285D01*
X150056210Y-101632010D01*
X150187485Y-101472050D01*
X150285032Y-101289554D01*
X150345100Y-101091534D01*
X150365383Y-100885600D01*
X150345100Y-100679666D01*
X150285032Y-100481646D01*
X150187485Y-100299150D01*
X150056210Y-100139190D01*
X149896250Y-100007915D01*
X149896246Y-100007913D01*
X149896242Y-100007910D01*
X149713755Y-99910368D01*
X149515736Y-99850300D01*
X149515737Y-99850300D01*
X149309800Y-99830017D01*
X149103862Y-99850300D01*
X148905844Y-99910368D01*
X148723357Y-100007910D01*
X148723347Y-100007917D01*
X148563390Y-100139189D01*
X148563389Y-100139190D01*
X148432117Y-100299147D01*
X148432110Y-100299157D01*
X148334568Y-100481644D01*
X148274500Y-100679662D01*
X148254217Y-100885600D01*
X147825383Y-100885600D01*
X147805100Y-100679666D01*
X147745032Y-100481646D01*
X147647485Y-100299150D01*
X147516210Y-100139190D01*
X147356250Y-100007915D01*
X147356246Y-100007913D01*
X147356242Y-100007910D01*
X147173755Y-99910368D01*
X146975736Y-99850300D01*
X146975737Y-99850300D01*
X146769800Y-99830017D01*
X146563862Y-99850300D01*
X146365844Y-99910368D01*
X146183357Y-100007910D01*
X146183347Y-100007917D01*
X146023390Y-100139189D01*
X146023389Y-100139190D01*
X145892117Y-100299147D01*
X145892110Y-100299157D01*
X145794568Y-100481644D01*
X145734500Y-100679662D01*
X145714217Y-100885600D01*
X145000500Y-100885600D01*
X145000500Y-98345600D01*
X145714217Y-98345600D01*
X145734500Y-98551537D01*
X145794568Y-98749555D01*
X145892110Y-98932042D01*
X145892113Y-98932046D01*
X145892115Y-98932050D01*
X146023390Y-99092010D01*
X146183350Y-99223285D01*
X146365846Y-99320832D01*
X146563863Y-99380899D01*
X146563866Y-99380900D01*
X146769800Y-99401183D01*
X146975734Y-99380900D01*
X147173754Y-99320832D01*
X147356250Y-99223285D01*
X147516210Y-99092010D01*
X147647485Y-98932050D01*
X147745032Y-98749554D01*
X147805100Y-98551534D01*
X147825383Y-98345600D01*
X148254217Y-98345600D01*
X148274500Y-98551537D01*
X148334568Y-98749555D01*
X148432110Y-98932042D01*
X148432113Y-98932046D01*
X148432115Y-98932050D01*
X148563390Y-99092010D01*
X148723350Y-99223285D01*
X148905846Y-99320832D01*
X149103863Y-99380899D01*
X149103866Y-99380900D01*
X149309800Y-99401183D01*
X149515734Y-99380900D01*
X149713754Y-99320832D01*
X149896250Y-99223285D01*
X150056210Y-99092010D01*
X150187485Y-98932050D01*
X150285032Y-98749554D01*
X150345100Y-98551534D01*
X150365383Y-98345600D01*
X150345100Y-98139666D01*
X150285032Y-97941646D01*
X150247650Y-97871710D01*
X150187489Y-97759157D01*
X150187487Y-97759155D01*
X150187485Y-97759150D01*
X150056210Y-97599190D01*
X149896250Y-97467915D01*
X149896246Y-97467913D01*
X149896242Y-97467910D01*
X149713755Y-97370368D01*
X149515736Y-97310300D01*
X149515737Y-97310300D01*
X149309800Y-97290017D01*
X149103862Y-97310300D01*
X148905844Y-97370368D01*
X148723357Y-97467910D01*
X148723347Y-97467917D01*
X148563390Y-97599189D01*
X148563389Y-97599190D01*
X148432117Y-97759147D01*
X148432110Y-97759157D01*
X148334568Y-97941644D01*
X148274500Y-98139662D01*
X148254217Y-98345600D01*
X147825383Y-98345600D01*
X147805100Y-98139666D01*
X147745032Y-97941646D01*
X147707650Y-97871710D01*
X147647489Y-97759157D01*
X147647487Y-97759155D01*
X147647485Y-97759150D01*
X147516210Y-97599190D01*
X147356250Y-97467915D01*
X147356246Y-97467913D01*
X147356242Y-97467910D01*
X147173755Y-97370368D01*
X146975736Y-97310300D01*
X146975737Y-97310300D01*
X146769800Y-97290017D01*
X146563862Y-97310300D01*
X146365844Y-97370368D01*
X146183357Y-97467910D01*
X146183347Y-97467917D01*
X146023390Y-97599189D01*
X146023389Y-97599190D01*
X145892117Y-97759147D01*
X145892110Y-97759157D01*
X145794568Y-97941644D01*
X145734500Y-98139662D01*
X145714217Y-98345600D01*
X145000500Y-98345600D01*
X145000500Y-95805600D01*
X145714217Y-95805600D01*
X145734500Y-96011537D01*
X145794568Y-96209555D01*
X145892110Y-96392042D01*
X145892113Y-96392046D01*
X145892115Y-96392050D01*
X146023390Y-96552010D01*
X146183350Y-96683285D01*
X146183355Y-96683287D01*
X146183357Y-96683289D01*
X146302332Y-96746883D01*
X146365846Y-96780832D01*
X146563863Y-96840899D01*
X146563866Y-96840900D01*
X146769800Y-96861183D01*
X146975734Y-96840900D01*
X147173754Y-96780832D01*
X147356250Y-96683285D01*
X147516210Y-96552010D01*
X147647485Y-96392050D01*
X147745032Y-96209554D01*
X147805100Y-96011534D01*
X147825383Y-95805600D01*
X148254217Y-95805600D01*
X148274500Y-96011537D01*
X148334568Y-96209555D01*
X148432110Y-96392042D01*
X148432113Y-96392046D01*
X148432115Y-96392050D01*
X148563390Y-96552010D01*
X148723350Y-96683285D01*
X148723355Y-96683287D01*
X148723357Y-96683289D01*
X148842332Y-96746883D01*
X148905846Y-96780832D01*
X149103863Y-96840899D01*
X149103866Y-96840900D01*
X149309800Y-96861183D01*
X149515734Y-96840900D01*
X149713754Y-96780832D01*
X149896250Y-96683285D01*
X150056210Y-96552010D01*
X150187485Y-96392050D01*
X150285032Y-96209554D01*
X150345100Y-96011534D01*
X150365383Y-95805600D01*
X150345100Y-95599666D01*
X150285032Y-95401646D01*
X150198023Y-95238865D01*
X150187489Y-95219157D01*
X150187487Y-95219155D01*
X150187485Y-95219150D01*
X150056210Y-95059190D01*
X149896250Y-94927915D01*
X149896246Y-94927913D01*
X149896242Y-94927910D01*
X149713755Y-94830368D01*
X149515736Y-94770300D01*
X149515737Y-94770300D01*
X149309800Y-94750017D01*
X149103862Y-94770300D01*
X148905844Y-94830368D01*
X148723357Y-94927910D01*
X148723347Y-94927917D01*
X148563390Y-95059189D01*
X148563389Y-95059190D01*
X148432117Y-95219147D01*
X148432110Y-95219157D01*
X148334568Y-95401644D01*
X148274500Y-95599662D01*
X148254217Y-95805600D01*
X147825383Y-95805600D01*
X147805100Y-95599666D01*
X147745032Y-95401646D01*
X147658023Y-95238865D01*
X147647489Y-95219157D01*
X147647487Y-95219155D01*
X147647485Y-95219150D01*
X147516210Y-95059190D01*
X147356250Y-94927915D01*
X147356246Y-94927913D01*
X147356242Y-94927910D01*
X147173755Y-94830368D01*
X146975736Y-94770300D01*
X146975737Y-94770300D01*
X146769800Y-94750017D01*
X146563862Y-94770300D01*
X146365844Y-94830368D01*
X146183357Y-94927910D01*
X146183347Y-94927917D01*
X146023390Y-95059189D01*
X146023389Y-95059190D01*
X145892117Y-95219147D01*
X145892110Y-95219157D01*
X145794568Y-95401644D01*
X145734500Y-95599662D01*
X145714217Y-95805600D01*
X145000500Y-95805600D01*
X145000500Y-93015600D01*
X145645287Y-93015600D01*
X146336788Y-93015600D01*
X146303875Y-93072607D01*
X146269800Y-93199774D01*
X146269800Y-93331426D01*
X146303875Y-93458593D01*
X146336788Y-93515600D01*
X145645288Y-93515600D01*
X145692861Y-93682803D01*
X145787864Y-93873596D01*
X145916298Y-94043668D01*
X146073799Y-94187250D01*
X146255006Y-94299448D01*
X146255009Y-94299450D01*
X146453733Y-94376436D01*
X146453751Y-94376441D01*
X146519799Y-94388786D01*
X146519800Y-94388786D01*
X146519800Y-93698612D01*
X146576807Y-93731525D01*
X146703974Y-93765600D01*
X146835626Y-93765600D01*
X146962793Y-93731525D01*
X147019800Y-93698612D01*
X147019800Y-94388786D01*
X147085848Y-94376441D01*
X147085866Y-94376436D01*
X147284590Y-94299450D01*
X147284593Y-94299448D01*
X147465800Y-94187250D01*
X147623301Y-94043668D01*
X147751735Y-93873596D01*
X147846738Y-93682803D01*
X147894312Y-93515600D01*
X147202812Y-93515600D01*
X147235725Y-93458593D01*
X147269800Y-93331426D01*
X147269800Y-93265600D01*
X148254217Y-93265600D01*
X148274500Y-93471537D01*
X148334568Y-93669555D01*
X148432110Y-93852042D01*
X148432113Y-93852046D01*
X148432115Y-93852050D01*
X148563390Y-94012010D01*
X148723350Y-94143285D01*
X148723355Y-94143287D01*
X148723357Y-94143289D01*
X148905844Y-94240831D01*
X148905846Y-94240832D01*
X149103863Y-94300899D01*
X149103866Y-94300900D01*
X149309800Y-94321183D01*
X149515734Y-94300900D01*
X149713754Y-94240832D01*
X149896250Y-94143285D01*
X150056210Y-94012010D01*
X150187485Y-93852050D01*
X150285032Y-93669554D01*
X150345100Y-93471534D01*
X150365383Y-93265600D01*
X150345100Y-93059666D01*
X150302853Y-92920395D01*
X151437757Y-92920395D01*
X151437757Y-92920404D01*
X151458284Y-93141931D01*
X151458284Y-93141934D01*
X151519170Y-93355928D01*
X151618339Y-93555085D01*
X151618341Y-93555088D01*
X151618342Y-93555089D01*
X151752419Y-93732636D01*
X151916838Y-93882524D01*
X152105999Y-93999647D01*
X152106001Y-93999647D01*
X152106003Y-93999649D01*
X152106005Y-93999650D01*
X152239746Y-94051462D01*
X152302004Y-94096989D01*
X152333158Y-94167545D01*
X152324859Y-94244225D01*
X152279332Y-94306483D01*
X152239746Y-94329338D01*
X152106005Y-94381149D01*
X152106003Y-94381150D01*
X151916836Y-94498277D01*
X151752419Y-94648163D01*
X151618339Y-94825714D01*
X151519170Y-95024871D01*
X151458284Y-95238865D01*
X151458284Y-95238868D01*
X151437757Y-95460395D01*
X151437757Y-95460404D01*
X151458284Y-95681931D01*
X151458284Y-95681934D01*
X151519170Y-95895928D01*
X151618339Y-96095085D01*
X151618341Y-96095088D01*
X151618342Y-96095089D01*
X151752419Y-96272636D01*
X151916838Y-96422524D01*
X152105999Y-96539647D01*
X152106001Y-96539647D01*
X152106003Y-96539649D01*
X152106005Y-96539650D01*
X152295763Y-96613162D01*
X152313460Y-96620018D01*
X152532157Y-96660900D01*
X152532159Y-96660900D01*
X152754641Y-96660900D01*
X152754643Y-96660900D01*
X152973340Y-96620018D01*
X153099849Y-96571007D01*
X153180794Y-96539650D01*
X153180796Y-96539649D01*
X153180796Y-96539648D01*
X153180801Y-96539647D01*
X153369962Y-96422524D01*
X153534381Y-96272636D01*
X153668458Y-96095089D01*
X153767629Y-95895928D01*
X153828515Y-95681936D01*
X153845355Y-95500200D01*
X153849043Y-95460404D01*
X153849043Y-95460395D01*
X153828515Y-95238868D01*
X153828515Y-95238865D01*
X153767629Y-95024871D01*
X153668460Y-94825714D01*
X153626613Y-94770300D01*
X153534381Y-94648164D01*
X153369962Y-94498276D01*
X153180801Y-94381153D01*
X153180800Y-94381152D01*
X153180796Y-94381150D01*
X153180794Y-94381149D01*
X153047053Y-94329338D01*
X152984795Y-94283812D01*
X152953641Y-94213255D01*
X152961940Y-94136575D01*
X153007466Y-94074317D01*
X153047053Y-94051462D01*
X153180794Y-93999650D01*
X153180796Y-93999649D01*
X153180796Y-93999648D01*
X153180801Y-93999647D01*
X153369962Y-93882524D01*
X153534381Y-93732636D01*
X153668458Y-93555089D01*
X153767629Y-93355928D01*
X153828515Y-93141936D01*
X153849043Y-92920400D01*
X153828515Y-92698864D01*
X153798072Y-92591868D01*
X153767629Y-92484871D01*
X153668460Y-92285714D01*
X153626613Y-92230300D01*
X153534381Y-92108164D01*
X153369962Y-91958276D01*
X153180801Y-91841153D01*
X153180800Y-91841152D01*
X153180796Y-91841150D01*
X153180794Y-91841149D01*
X152973345Y-91760783D01*
X152892886Y-91745742D01*
X152823323Y-91712429D01*
X152779735Y-91648798D01*
X152773803Y-91571899D01*
X152807116Y-91502336D01*
X152870747Y-91458748D01*
X152892889Y-91452816D01*
X152945715Y-91442941D01*
X153135818Y-91369296D01*
X153309135Y-91261981D01*
X153459794Y-91124637D01*
X153582647Y-90961954D01*
X153673513Y-90779469D01*
X153715928Y-90630400D01*
X152959086Y-90630400D01*
X152963480Y-90626006D01*
X153016141Y-90534794D01*
X153043400Y-90433061D01*
X153043400Y-90327739D01*
X153016141Y-90226006D01*
X152963480Y-90134794D01*
X152959086Y-90130400D01*
X153715928Y-90130400D01*
X153673513Y-89981330D01*
X153582647Y-89798845D01*
X153459794Y-89636162D01*
X153309135Y-89498818D01*
X153135817Y-89391503D01*
X153135810Y-89391499D01*
X152945722Y-89317859D01*
X152893400Y-89308078D01*
X152893400Y-90064714D01*
X152889006Y-90060320D01*
X152797794Y-90007659D01*
X152696061Y-89980400D01*
X152590739Y-89980400D01*
X152489006Y-90007659D01*
X152397794Y-90060320D01*
X152393400Y-90064714D01*
X152393400Y-89308078D01*
X152393399Y-89308078D01*
X152341078Y-89317859D01*
X152341076Y-89317859D01*
X152150989Y-89391499D01*
X152150982Y-89391503D01*
X151977664Y-89498818D01*
X151827005Y-89636162D01*
X151704152Y-89798845D01*
X151613286Y-89981330D01*
X151570871Y-90130400D01*
X152327714Y-90130400D01*
X152323320Y-90134794D01*
X152270659Y-90226006D01*
X152243400Y-90327739D01*
X152243400Y-90433061D01*
X152270659Y-90534794D01*
X152323320Y-90626006D01*
X152327714Y-90630400D01*
X151570872Y-90630400D01*
X151613286Y-90779469D01*
X151704152Y-90961954D01*
X151827005Y-91124637D01*
X151977664Y-91261981D01*
X152150981Y-91369296D01*
X152341084Y-91442941D01*
X152393910Y-91452816D01*
X152463474Y-91486127D01*
X152507063Y-91549757D01*
X152512996Y-91626656D01*
X152479685Y-91696220D01*
X152416055Y-91739809D01*
X152393914Y-91745742D01*
X152313453Y-91760783D01*
X152106005Y-91841149D01*
X152106003Y-91841150D01*
X151916836Y-91958277D01*
X151752419Y-92108163D01*
X151618339Y-92285714D01*
X151519170Y-92484871D01*
X151458284Y-92698865D01*
X151458284Y-92698868D01*
X151437757Y-92920395D01*
X150302853Y-92920395D01*
X150285032Y-92861646D01*
X150198023Y-92698865D01*
X150187489Y-92679157D01*
X150187487Y-92679155D01*
X150187485Y-92679150D01*
X150056210Y-92519190D01*
X150036499Y-92503014D01*
X149896252Y-92387917D01*
X149896250Y-92387915D01*
X149896246Y-92387913D01*
X149896242Y-92387910D01*
X149713755Y-92290368D01*
X149515736Y-92230300D01*
X149515737Y-92230300D01*
X149309800Y-92210017D01*
X149103862Y-92230300D01*
X148905844Y-92290368D01*
X148723357Y-92387910D01*
X148723347Y-92387917D01*
X148563390Y-92519189D01*
X148563389Y-92519190D01*
X148432117Y-92679147D01*
X148432110Y-92679157D01*
X148334568Y-92861644D01*
X148274500Y-93059662D01*
X148254217Y-93265600D01*
X147269800Y-93265600D01*
X147269800Y-93199774D01*
X147235725Y-93072607D01*
X147202812Y-93015600D01*
X147894312Y-93015600D01*
X147846738Y-92848396D01*
X147751735Y-92657603D01*
X147623301Y-92487531D01*
X147465800Y-92343949D01*
X147284593Y-92231751D01*
X147284590Y-92231749D01*
X147085865Y-92154763D01*
X147019800Y-92142412D01*
X147019800Y-92832588D01*
X146962793Y-92799675D01*
X146835626Y-92765600D01*
X146703974Y-92765600D01*
X146576807Y-92799675D01*
X146519800Y-92832588D01*
X146519800Y-92142413D01*
X146519799Y-92142412D01*
X146453734Y-92154763D01*
X146255009Y-92231749D01*
X146255006Y-92231751D01*
X146073799Y-92343949D01*
X145916298Y-92487531D01*
X145787864Y-92657603D01*
X145692861Y-92848396D01*
X145645287Y-93015600D01*
X145000500Y-93015600D01*
X145000500Y-90725600D01*
X145714217Y-90725600D01*
X145734500Y-90931537D01*
X145794568Y-91129555D01*
X145892110Y-91312042D01*
X145892113Y-91312046D01*
X145892115Y-91312050D01*
X146023390Y-91472010D01*
X146183350Y-91603285D01*
X146183355Y-91603287D01*
X146183357Y-91603289D01*
X146364142Y-91699921D01*
X146365846Y-91700832D01*
X146563863Y-91760899D01*
X146563866Y-91760900D01*
X146769800Y-91781183D01*
X146975734Y-91760900D01*
X147173754Y-91700832D01*
X147356250Y-91603285D01*
X147516210Y-91472010D01*
X147647485Y-91312050D01*
X147745032Y-91129554D01*
X147805100Y-90931534D01*
X147825383Y-90725600D01*
X148254217Y-90725600D01*
X148274500Y-90931537D01*
X148334568Y-91129555D01*
X148432110Y-91312042D01*
X148432113Y-91312046D01*
X148432115Y-91312050D01*
X148563390Y-91472010D01*
X148723350Y-91603285D01*
X148723355Y-91603287D01*
X148723357Y-91603289D01*
X148904142Y-91699921D01*
X148905846Y-91700832D01*
X149103863Y-91760899D01*
X149103866Y-91760900D01*
X149309800Y-91781183D01*
X149515734Y-91760900D01*
X149713754Y-91700832D01*
X149896250Y-91603285D01*
X150056210Y-91472010D01*
X150187485Y-91312050D01*
X150285032Y-91129554D01*
X150345100Y-90931534D01*
X150365383Y-90725600D01*
X150345100Y-90519666D01*
X150285032Y-90321646D01*
X150187485Y-90139150D01*
X150056210Y-89979190D01*
X150036499Y-89963014D01*
X149977231Y-89914374D01*
X149896250Y-89847915D01*
X149896246Y-89847913D01*
X149896242Y-89847910D01*
X149713755Y-89750368D01*
X149515736Y-89690300D01*
X149515737Y-89690300D01*
X149309800Y-89670017D01*
X149103862Y-89690300D01*
X148905844Y-89750368D01*
X148723357Y-89847910D01*
X148723347Y-89847917D01*
X148563390Y-89979189D01*
X148563389Y-89979190D01*
X148432117Y-90139147D01*
X148432110Y-90139157D01*
X148334568Y-90321644D01*
X148274500Y-90519662D01*
X148254217Y-90725600D01*
X147825383Y-90725600D01*
X147805100Y-90519666D01*
X147745032Y-90321646D01*
X147647485Y-90139150D01*
X147516210Y-89979190D01*
X147496499Y-89963014D01*
X147437231Y-89914374D01*
X147356250Y-89847915D01*
X147356246Y-89847913D01*
X147356242Y-89847910D01*
X147173755Y-89750368D01*
X146975736Y-89690300D01*
X146975737Y-89690300D01*
X146769800Y-89670017D01*
X146563862Y-89690300D01*
X146365844Y-89750368D01*
X146183357Y-89847910D01*
X146183347Y-89847917D01*
X146023390Y-89979189D01*
X146023389Y-89979190D01*
X145892117Y-90139147D01*
X145892110Y-90139157D01*
X145794568Y-90321644D01*
X145734500Y-90519662D01*
X145714217Y-90725600D01*
X145000500Y-90725600D01*
X145000500Y-88185600D01*
X145714217Y-88185600D01*
X145734500Y-88391537D01*
X145794568Y-88589555D01*
X145892110Y-88772042D01*
X145892113Y-88772046D01*
X145892115Y-88772050D01*
X146023390Y-88932010D01*
X146183350Y-89063285D01*
X146365846Y-89160832D01*
X146563863Y-89220899D01*
X146563866Y-89220900D01*
X146769800Y-89241183D01*
X146975734Y-89220900D01*
X147173754Y-89160832D01*
X147356250Y-89063285D01*
X147516210Y-88932010D01*
X147647485Y-88772050D01*
X147745032Y-88589554D01*
X147805100Y-88391534D01*
X147825383Y-88185600D01*
X147805100Y-87979666D01*
X147745032Y-87781646D01*
X147723221Y-87740840D01*
X147647489Y-87599157D01*
X147647487Y-87599155D01*
X147647485Y-87599150D01*
X147516210Y-87439190D01*
X147496499Y-87423014D01*
X147406266Y-87348962D01*
X147356250Y-87307915D01*
X147356246Y-87307913D01*
X147356242Y-87307910D01*
X147173755Y-87210368D01*
X146975736Y-87150300D01*
X146975737Y-87150300D01*
X146769800Y-87130017D01*
X146563862Y-87150300D01*
X146365844Y-87210368D01*
X146183357Y-87307910D01*
X146183347Y-87307917D01*
X146023390Y-87439189D01*
X146023389Y-87439190D01*
X145892117Y-87599147D01*
X145892110Y-87599157D01*
X145794568Y-87781644D01*
X145734500Y-87979662D01*
X145714217Y-88185600D01*
X145000500Y-88185600D01*
X145000500Y-80565600D01*
X145714217Y-80565600D01*
X145734500Y-80771537D01*
X145794568Y-80969555D01*
X145892110Y-81152042D01*
X145892113Y-81152046D01*
X145892115Y-81152050D01*
X146023390Y-81312010D01*
X146183350Y-81443285D01*
X146183355Y-81443287D01*
X146183357Y-81443289D01*
X146322717Y-81517779D01*
X146365846Y-81540832D01*
X146563863Y-81600899D01*
X146563866Y-81600900D01*
X146769800Y-81621183D01*
X146975734Y-81600900D01*
X147173754Y-81540832D01*
X147250060Y-81500044D01*
X147325173Y-81482530D01*
X147398981Y-81504918D01*
X147451705Y-81561210D01*
X147469300Y-81631450D01*
X147469300Y-82039749D01*
X147449338Y-82114249D01*
X147394800Y-82168787D01*
X147320300Y-82188749D01*
X147250062Y-82171155D01*
X147173757Y-82130369D01*
X146975736Y-82070300D01*
X146975737Y-82070300D01*
X146769800Y-82050017D01*
X146563862Y-82070300D01*
X146365844Y-82130368D01*
X146183357Y-82227910D01*
X146183347Y-82227917D01*
X146023390Y-82359189D01*
X146023389Y-82359190D01*
X145892117Y-82519147D01*
X145892110Y-82519157D01*
X145794568Y-82701644D01*
X145734500Y-82899662D01*
X145714217Y-83105600D01*
X145734500Y-83311537D01*
X145794568Y-83509555D01*
X145892110Y-83692042D01*
X145892113Y-83692046D01*
X145892115Y-83692050D01*
X146023390Y-83852010D01*
X146183350Y-83983285D01*
X146183355Y-83983287D01*
X146183357Y-83983289D01*
X146322717Y-84057779D01*
X146365846Y-84080832D01*
X146563866Y-84140900D01*
X146563868Y-84140900D01*
X146567105Y-84141882D01*
X146632602Y-84182610D01*
X146668960Y-84250631D01*
X146666437Y-84327718D01*
X146625709Y-84393215D01*
X146579520Y-84422677D01*
X146421820Y-84486193D01*
X146331927Y-84522399D01*
X146322539Y-84526180D01*
X146313647Y-84529903D01*
X146313608Y-84529920D01*
X146299597Y-84536377D01*
X146204273Y-84604277D01*
X146197945Y-84610591D01*
X146197937Y-84610599D01*
X146197935Y-84610602D01*
X146168713Y-84643622D01*
X146119894Y-84733615D01*
X146112911Y-84746487D01*
X146106728Y-84783310D01*
X146074703Y-84853476D01*
X146054312Y-84873811D01*
X146023394Y-84899185D01*
X146023389Y-84899190D01*
X145892117Y-85059147D01*
X145892110Y-85059157D01*
X145794568Y-85241644D01*
X145734500Y-85439662D01*
X145714217Y-85645600D01*
X145734500Y-85851537D01*
X145794568Y-86049555D01*
X145892110Y-86232042D01*
X145892113Y-86232046D01*
X145892115Y-86232050D01*
X146023390Y-86392010D01*
X146183350Y-86523285D01*
X146183355Y-86523287D01*
X146183357Y-86523289D01*
X146304970Y-86588293D01*
X146365846Y-86620832D01*
X146563863Y-86680899D01*
X146563866Y-86680900D01*
X146769800Y-86701183D01*
X146975734Y-86680900D01*
X147173754Y-86620832D01*
X147356250Y-86523285D01*
X147516210Y-86392010D01*
X147539763Y-86363309D01*
X147602452Y-86318385D01*
X147610997Y-86315461D01*
X147712491Y-86284160D01*
X147807063Y-86215229D01*
X147813333Y-86208835D01*
X147828273Y-86192622D01*
X147889265Y-86092746D01*
X147992722Y-85835875D01*
X148039070Y-85774231D01*
X148110034Y-85744017D01*
X148186598Y-85753333D01*
X148248245Y-85799682D01*
X148273516Y-85848292D01*
X148334568Y-86049554D01*
X148432110Y-86232042D01*
X148432113Y-86232046D01*
X148432115Y-86232050D01*
X148494033Y-86307498D01*
X148563389Y-86392009D01*
X148563391Y-86392011D01*
X148592088Y-86415562D01*
X148637014Y-86478256D01*
X148639946Y-86486828D01*
X148671237Y-86588286D01*
X148671240Y-86588293D01*
X148740165Y-86682857D01*
X148740170Y-86682863D01*
X148746564Y-86689133D01*
X148762777Y-86704073D01*
X148862653Y-86765065D01*
X148862658Y-86765067D01*
X148862663Y-86765070D01*
X148969013Y-86807903D01*
X149030661Y-86854252D01*
X149060875Y-86925216D01*
X149051559Y-87001779D01*
X149005210Y-87063427D01*
X148967174Y-87085052D01*
X148795006Y-87151751D01*
X148613799Y-87263949D01*
X148456298Y-87407531D01*
X148327864Y-87577603D01*
X148232861Y-87768396D01*
X148185287Y-87935600D01*
X148876788Y-87935600D01*
X148843875Y-87992607D01*
X148809800Y-88119774D01*
X148809800Y-88251426D01*
X148843875Y-88378593D01*
X148876788Y-88435600D01*
X148185288Y-88435600D01*
X148232861Y-88602803D01*
X148327864Y-88793596D01*
X148456298Y-88963668D01*
X148613799Y-89107250D01*
X148795006Y-89219448D01*
X148795009Y-89219450D01*
X148993733Y-89296436D01*
X148993751Y-89296441D01*
X149059799Y-89308786D01*
X149059800Y-89308786D01*
X149059800Y-88618612D01*
X149116807Y-88651525D01*
X149243974Y-88685600D01*
X149375626Y-88685600D01*
X149502793Y-88651525D01*
X149559800Y-88618612D01*
X149559800Y-89308786D01*
X149625848Y-89296441D01*
X149625866Y-89296436D01*
X149824590Y-89219450D01*
X149824593Y-89219448D01*
X150005800Y-89107250D01*
X150163301Y-88963668D01*
X150291735Y-88793596D01*
X150386738Y-88602803D01*
X150434312Y-88435600D01*
X149742812Y-88435600D01*
X149775725Y-88378593D01*
X149809800Y-88251426D01*
X149809800Y-88119774D01*
X149775725Y-87992607D01*
X149742812Y-87935600D01*
X150434312Y-87935600D01*
X150437203Y-87931771D01*
X150436243Y-87869443D01*
X150473774Y-87802062D01*
X150539967Y-87762474D01*
X150617086Y-87761286D01*
X150684467Y-87798817D01*
X150686102Y-87800427D01*
X151166585Y-88280910D01*
X151292115Y-88353384D01*
X151385490Y-88378404D01*
X151432307Y-88390949D01*
X151480888Y-88414015D01*
X151861721Y-88688621D01*
X151862651Y-88689187D01*
X151866286Y-88691910D01*
X151866442Y-88692023D01*
X151866439Y-88692025D01*
X151885554Y-88706347D01*
X151947097Y-88762451D01*
X151947098Y-88762452D01*
X152128377Y-88874696D01*
X152128383Y-88874699D01*
X152215589Y-88908482D01*
X152327202Y-88951721D01*
X152536790Y-88990900D01*
X152536793Y-88990900D01*
X152750007Y-88990900D01*
X152750010Y-88990900D01*
X152959598Y-88951721D01*
X153158419Y-88874698D01*
X153339702Y-88762452D01*
X153497272Y-88618807D01*
X153625766Y-88448655D01*
X153720805Y-88257789D01*
X153779156Y-88052710D01*
X153798829Y-87840400D01*
X153779156Y-87628090D01*
X153720805Y-87423011D01*
X153625766Y-87232145D01*
X153625764Y-87232143D01*
X153625763Y-87232140D01*
X153497272Y-87061993D01*
X153339702Y-86918348D01*
X153339701Y-86918347D01*
X153158422Y-86806103D01*
X153158416Y-86806100D01*
X152959604Y-86729081D01*
X152959600Y-86729080D01*
X152959598Y-86729079D01*
X152894246Y-86716862D01*
X152824684Y-86683551D01*
X152781096Y-86619921D01*
X152775163Y-86543021D01*
X152808475Y-86473458D01*
X152872105Y-86429870D01*
X152894243Y-86423937D01*
X152959598Y-86411721D01*
X153158419Y-86334698D01*
X153339702Y-86222452D01*
X153497272Y-86078807D01*
X153625766Y-85908655D01*
X153720805Y-85717789D01*
X153779156Y-85512710D01*
X153798829Y-85300400D01*
X153796843Y-85278969D01*
X153779156Y-85088094D01*
X153779156Y-85088090D01*
X153720805Y-84883011D01*
X153625766Y-84692145D01*
X153625764Y-84692143D01*
X153625763Y-84692140D01*
X153497272Y-84521993D01*
X153339702Y-84378348D01*
X153339701Y-84378347D01*
X153158422Y-84266103D01*
X153158416Y-84266100D01*
X152959604Y-84189081D01*
X152959600Y-84189080D01*
X152959598Y-84189079D01*
X152894246Y-84176862D01*
X152824684Y-84143551D01*
X152781096Y-84079921D01*
X152775163Y-84003021D01*
X152808475Y-83933458D01*
X152872105Y-83889870D01*
X152894243Y-83883937D01*
X152959598Y-83871721D01*
X153158419Y-83794698D01*
X153339702Y-83682452D01*
X153497272Y-83538807D01*
X153625766Y-83368655D01*
X153720805Y-83177789D01*
X153779156Y-82972710D01*
X153798829Y-82760400D01*
X153797477Y-82745812D01*
X153779156Y-82548094D01*
X153779156Y-82548090D01*
X153720805Y-82343011D01*
X153625766Y-82152145D01*
X153625764Y-82152143D01*
X153625763Y-82152140D01*
X153497272Y-81981993D01*
X153339702Y-81838348D01*
X153339701Y-81838347D01*
X153158422Y-81726103D01*
X153158416Y-81726100D01*
X152959604Y-81649081D01*
X152959600Y-81649080D01*
X152959598Y-81649079D01*
X152894246Y-81636862D01*
X152824684Y-81603551D01*
X152781096Y-81539921D01*
X152775163Y-81463021D01*
X152808475Y-81393458D01*
X152872105Y-81349870D01*
X152894243Y-81343937D01*
X152959598Y-81331721D01*
X153158419Y-81254698D01*
X153339702Y-81142452D01*
X153497272Y-80998807D01*
X153625766Y-80828655D01*
X153720805Y-80637789D01*
X153779156Y-80432710D01*
X153798829Y-80220400D01*
X153779156Y-80008090D01*
X153720805Y-79803011D01*
X153625766Y-79612145D01*
X153625764Y-79612143D01*
X153625763Y-79612140D01*
X153497272Y-79441993D01*
X153339702Y-79298348D01*
X153339701Y-79298347D01*
X153158422Y-79186103D01*
X153158416Y-79186100D01*
X152959600Y-79109079D01*
X152787382Y-79076885D01*
X152780153Y-79075347D01*
X152467841Y-79000766D01*
X152400016Y-78964045D01*
X152359637Y-78898332D01*
X152357525Y-78821232D01*
X152393400Y-78754969D01*
X152393400Y-77996086D01*
X152397794Y-78000480D01*
X152489006Y-78053141D01*
X152590739Y-78080400D01*
X152696061Y-78080400D01*
X152797794Y-78053141D01*
X152889006Y-78000480D01*
X152893400Y-77996086D01*
X152893400Y-78752719D01*
X152945716Y-78742941D01*
X153135818Y-78669296D01*
X153309135Y-78561981D01*
X153459794Y-78424637D01*
X153582647Y-78261954D01*
X153673513Y-78079469D01*
X153715928Y-77930400D01*
X152959086Y-77930400D01*
X152963480Y-77926006D01*
X153016141Y-77834794D01*
X153043400Y-77733061D01*
X153043400Y-77627739D01*
X153016141Y-77526006D01*
X152963480Y-77434794D01*
X152959086Y-77430400D01*
X153715928Y-77430400D01*
X153673513Y-77281330D01*
X153582647Y-77098845D01*
X153459794Y-76936162D01*
X153309135Y-76798818D01*
X153135817Y-76691503D01*
X153135810Y-76691499D01*
X152945722Y-76617859D01*
X152893400Y-76608078D01*
X152893400Y-77364714D01*
X152889006Y-77360320D01*
X152797794Y-77307659D01*
X152696061Y-77280400D01*
X152590739Y-77280400D01*
X152489006Y-77307659D01*
X152397794Y-77360320D01*
X152393400Y-77364714D01*
X152393400Y-76608078D01*
X152393399Y-76608078D01*
X152341078Y-76617859D01*
X152341076Y-76617859D01*
X152150989Y-76691499D01*
X152150982Y-76691503D01*
X151977664Y-76798818D01*
X151827005Y-76936162D01*
X151704152Y-77098845D01*
X151613286Y-77281330D01*
X151570871Y-77430400D01*
X152327714Y-77430400D01*
X152323320Y-77434794D01*
X152270659Y-77526006D01*
X152243400Y-77627739D01*
X152243400Y-77733061D01*
X152270659Y-77834794D01*
X152323320Y-77926006D01*
X152327714Y-77930400D01*
X151570872Y-77930400D01*
X151613286Y-78079469D01*
X151704152Y-78261954D01*
X151827005Y-78424637D01*
X151916242Y-78505988D01*
X151957849Y-78570931D01*
X151961411Y-78647976D01*
X151925973Y-78716481D01*
X151861030Y-78758088D01*
X151815861Y-78765100D01*
X151453394Y-78765100D01*
X151449309Y-78765044D01*
X151448385Y-78765018D01*
X151407844Y-78763906D01*
X151403376Y-78764355D01*
X151388498Y-78765100D01*
X150354270Y-78765100D01*
X150279770Y-78745138D01*
X150225232Y-78690600D01*
X150205270Y-78616100D01*
X150222864Y-78545861D01*
X150285032Y-78429554D01*
X150345100Y-78231534D01*
X150365383Y-78025600D01*
X150345100Y-77819666D01*
X150285032Y-77621646D01*
X150193084Y-77449625D01*
X150187489Y-77439157D01*
X150187487Y-77439155D01*
X150187485Y-77439150D01*
X150056210Y-77279190D01*
X150036499Y-77263014D01*
X149896252Y-77147917D01*
X149896250Y-77147915D01*
X149896246Y-77147913D01*
X149896242Y-77147910D01*
X149713755Y-77050368D01*
X149515736Y-76990300D01*
X149515737Y-76990300D01*
X149309800Y-76970017D01*
X149103862Y-76990300D01*
X148905844Y-77050368D01*
X148723357Y-77147910D01*
X148723347Y-77147917D01*
X148563390Y-77279189D01*
X148563389Y-77279190D01*
X148432117Y-77439147D01*
X148432110Y-77439157D01*
X148334568Y-77621644D01*
X148274500Y-77819662D01*
X148254217Y-78025600D01*
X148274500Y-78231537D01*
X148334568Y-78429555D01*
X148432110Y-78612042D01*
X148432112Y-78612045D01*
X148432115Y-78612050D01*
X148467971Y-78655741D01*
X148499801Y-78725992D01*
X148492241Y-78802748D01*
X148447316Y-78865442D01*
X148442204Y-78868980D01*
X148442331Y-78869146D01*
X148434587Y-78875087D01*
X147597572Y-79712103D01*
X147530777Y-79750667D01*
X147453649Y-79750667D01*
X147397689Y-79721923D01*
X147356252Y-79687917D01*
X147356250Y-79687915D01*
X147356246Y-79687913D01*
X147356242Y-79687910D01*
X147173755Y-79590368D01*
X146975736Y-79530300D01*
X146975737Y-79530300D01*
X146769800Y-79510017D01*
X146563862Y-79530300D01*
X146365844Y-79590368D01*
X146183357Y-79687910D01*
X146183347Y-79687917D01*
X146023390Y-79819189D01*
X146023389Y-79819190D01*
X145892117Y-79979147D01*
X145892110Y-79979157D01*
X145794568Y-80161644D01*
X145734500Y-80359662D01*
X145714217Y-80565600D01*
X145000500Y-80565600D01*
X145000500Y-78025600D01*
X145714217Y-78025600D01*
X145734500Y-78231537D01*
X145794568Y-78429555D01*
X145892110Y-78612042D01*
X145892113Y-78612046D01*
X145892115Y-78612050D01*
X145892117Y-78612052D01*
X146011964Y-78758088D01*
X146023390Y-78772010D01*
X146183350Y-78903285D01*
X146183355Y-78903287D01*
X146183357Y-78903289D01*
X146365844Y-79000831D01*
X146365846Y-79000832D01*
X146563863Y-79060899D01*
X146563866Y-79060900D01*
X146769800Y-79081183D01*
X146975734Y-79060900D01*
X147173754Y-79000832D01*
X147356250Y-78903285D01*
X147516210Y-78772010D01*
X147647485Y-78612050D01*
X147745032Y-78429554D01*
X147805100Y-78231534D01*
X147825383Y-78025600D01*
X147805100Y-77819666D01*
X147745032Y-77621646D01*
X147653084Y-77449625D01*
X147647489Y-77439157D01*
X147647487Y-77439155D01*
X147647485Y-77439150D01*
X147516210Y-77279190D01*
X147496499Y-77263014D01*
X147356252Y-77147917D01*
X147356250Y-77147915D01*
X147356246Y-77147913D01*
X147356242Y-77147910D01*
X147173755Y-77050368D01*
X146975736Y-76990300D01*
X146975737Y-76990300D01*
X146769800Y-76970017D01*
X146563862Y-76990300D01*
X146365844Y-77050368D01*
X146183357Y-77147910D01*
X146183347Y-77147917D01*
X146023390Y-77279189D01*
X146023389Y-77279190D01*
X145892117Y-77439147D01*
X145892110Y-77439157D01*
X145794568Y-77621644D01*
X145734500Y-77819662D01*
X145714217Y-78025600D01*
X145000500Y-78025600D01*
X145000500Y-75485600D01*
X145714217Y-75485600D01*
X145734500Y-75691537D01*
X145794568Y-75889555D01*
X145892110Y-76072042D01*
X145892113Y-76072046D01*
X145892115Y-76072050D01*
X146023390Y-76232010D01*
X146183350Y-76363285D01*
X146183355Y-76363287D01*
X146183357Y-76363289D01*
X146318156Y-76435341D01*
X146365846Y-76460832D01*
X146563863Y-76520899D01*
X146563866Y-76520900D01*
X146769800Y-76541183D01*
X146975734Y-76520900D01*
X147173754Y-76460832D01*
X147356250Y-76363285D01*
X147516210Y-76232010D01*
X147647485Y-76072050D01*
X147745032Y-75889554D01*
X147805100Y-75691534D01*
X147825383Y-75485600D01*
X148254217Y-75485600D01*
X148274500Y-75691537D01*
X148334568Y-75889555D01*
X148432110Y-76072042D01*
X148432113Y-76072046D01*
X148432115Y-76072050D01*
X148563390Y-76232010D01*
X148723350Y-76363285D01*
X148723355Y-76363287D01*
X148723357Y-76363289D01*
X148858156Y-76435341D01*
X148905846Y-76460832D01*
X149103863Y-76520899D01*
X149103866Y-76520900D01*
X149309800Y-76541183D01*
X149515734Y-76520900D01*
X149713754Y-76460832D01*
X149896250Y-76363285D01*
X150056210Y-76232010D01*
X150187485Y-76072050D01*
X150285032Y-75889554D01*
X150345100Y-75691534D01*
X150365383Y-75485600D01*
X150345100Y-75279666D01*
X150336605Y-75251663D01*
X150303249Y-75141700D01*
X150285032Y-75081646D01*
X150218513Y-74957199D01*
X150187489Y-74899157D01*
X150187487Y-74899155D01*
X150187485Y-74899150D01*
X150056210Y-74739190D01*
X149896250Y-74607915D01*
X149896246Y-74607913D01*
X149896242Y-74607910D01*
X149713755Y-74510368D01*
X149515736Y-74450300D01*
X149515737Y-74450300D01*
X149309800Y-74430017D01*
X149103862Y-74450300D01*
X148905844Y-74510368D01*
X148723357Y-74607910D01*
X148723347Y-74607917D01*
X148563390Y-74739189D01*
X148563389Y-74739190D01*
X148432117Y-74899147D01*
X148432110Y-74899157D01*
X148334568Y-75081644D01*
X148274500Y-75279662D01*
X148254217Y-75485600D01*
X147825383Y-75485600D01*
X147805100Y-75279666D01*
X147796605Y-75251663D01*
X147763249Y-75141700D01*
X147745032Y-75081646D01*
X147678513Y-74957199D01*
X147647489Y-74899157D01*
X147647487Y-74899155D01*
X147647485Y-74899150D01*
X147516210Y-74739190D01*
X147356250Y-74607915D01*
X147356246Y-74607913D01*
X147356242Y-74607910D01*
X147173755Y-74510368D01*
X146975736Y-74450300D01*
X146975737Y-74450300D01*
X146769800Y-74430017D01*
X146563862Y-74450300D01*
X146365844Y-74510368D01*
X146183357Y-74607910D01*
X146183347Y-74607917D01*
X146023390Y-74739189D01*
X146023389Y-74739190D01*
X145892117Y-74899147D01*
X145892110Y-74899157D01*
X145794568Y-75081644D01*
X145734500Y-75279662D01*
X145714217Y-75485600D01*
X145000500Y-75485600D01*
X145000500Y-72695600D01*
X145645287Y-72695600D01*
X146336788Y-72695600D01*
X146303875Y-72752607D01*
X146269800Y-72879774D01*
X146269800Y-73011426D01*
X146303875Y-73138593D01*
X146336788Y-73195600D01*
X145645288Y-73195600D01*
X145692861Y-73362803D01*
X145787864Y-73553596D01*
X145916298Y-73723668D01*
X146073799Y-73867250D01*
X146255006Y-73979448D01*
X146255009Y-73979450D01*
X146453733Y-74056436D01*
X146453751Y-74056441D01*
X146519799Y-74068786D01*
X146519800Y-74068786D01*
X146519800Y-73378612D01*
X146576807Y-73411525D01*
X146703974Y-73445600D01*
X146835626Y-73445600D01*
X146962793Y-73411525D01*
X147019800Y-73378612D01*
X147019800Y-74068786D01*
X147085848Y-74056441D01*
X147085866Y-74056436D01*
X147284590Y-73979450D01*
X147284593Y-73979448D01*
X147465800Y-73867250D01*
X147623301Y-73723668D01*
X147751735Y-73553596D01*
X147846738Y-73362803D01*
X147894312Y-73195600D01*
X147202812Y-73195600D01*
X147235725Y-73138593D01*
X147269800Y-73011426D01*
X147269800Y-72945600D01*
X148254217Y-72945600D01*
X148274500Y-73151537D01*
X148334568Y-73349555D01*
X148432110Y-73532042D01*
X148432113Y-73532046D01*
X148432115Y-73532050D01*
X148563390Y-73692010D01*
X148723350Y-73823285D01*
X148723355Y-73823287D01*
X148723357Y-73823289D01*
X148755377Y-73840404D01*
X148905846Y-73920832D01*
X149103863Y-73980899D01*
X149103866Y-73980900D01*
X149309800Y-74001183D01*
X149515734Y-73980900D01*
X149713754Y-73920832D01*
X149896250Y-73823285D01*
X150056210Y-73692010D01*
X150187485Y-73532050D01*
X150285032Y-73349554D01*
X150345100Y-73151534D01*
X150365383Y-72945600D01*
X150345100Y-72739666D01*
X150285032Y-72541646D01*
X150233694Y-72445600D01*
X150187489Y-72359157D01*
X150187487Y-72359155D01*
X150187485Y-72359150D01*
X150056210Y-72199190D01*
X149896250Y-72067915D01*
X149896246Y-72067913D01*
X149896242Y-72067910D01*
X149713755Y-71970368D01*
X149515736Y-71910300D01*
X149515737Y-71910300D01*
X149309800Y-71890017D01*
X149103862Y-71910300D01*
X148905844Y-71970368D01*
X148723357Y-72067910D01*
X148723347Y-72067917D01*
X148563390Y-72199189D01*
X148563389Y-72199190D01*
X148432117Y-72359147D01*
X148432110Y-72359157D01*
X148334568Y-72541644D01*
X148274500Y-72739662D01*
X148254217Y-72945600D01*
X147269800Y-72945600D01*
X147269800Y-72879774D01*
X147235725Y-72752607D01*
X147202812Y-72695600D01*
X147894312Y-72695600D01*
X147846738Y-72528396D01*
X147751735Y-72337603D01*
X147623301Y-72167531D01*
X147465800Y-72023949D01*
X147284593Y-71911751D01*
X147284590Y-71911749D01*
X147085865Y-71834763D01*
X147019800Y-71822412D01*
X147019800Y-72512588D01*
X146962793Y-72479675D01*
X146835626Y-72445600D01*
X146703974Y-72445600D01*
X146576807Y-72479675D01*
X146519800Y-72512588D01*
X146519800Y-71822413D01*
X146519799Y-71822412D01*
X146453734Y-71834763D01*
X146255009Y-71911749D01*
X146255006Y-71911751D01*
X146073799Y-72023949D01*
X145916298Y-72167531D01*
X145787864Y-72337603D01*
X145692861Y-72528396D01*
X145645287Y-72695600D01*
X145000500Y-72695600D01*
X145000500Y-70405600D01*
X145714217Y-70405600D01*
X145734500Y-70611537D01*
X145794568Y-70809555D01*
X145892110Y-70992042D01*
X145892113Y-70992046D01*
X145892115Y-70992050D01*
X145978004Y-71096707D01*
X146020861Y-71148929D01*
X146023390Y-71152010D01*
X146183350Y-71283285D01*
X146183355Y-71283287D01*
X146183357Y-71283289D01*
X146365844Y-71380831D01*
X146365846Y-71380832D01*
X146563863Y-71440899D01*
X146563866Y-71440900D01*
X146769800Y-71461183D01*
X146975734Y-71440900D01*
X147173754Y-71380832D01*
X147356250Y-71283285D01*
X147516210Y-71152010D01*
X147647485Y-70992050D01*
X147745032Y-70809554D01*
X147805100Y-70611534D01*
X147825383Y-70405600D01*
X148254217Y-70405600D01*
X148274500Y-70611537D01*
X148334568Y-70809555D01*
X148432110Y-70992042D01*
X148432113Y-70992046D01*
X148432115Y-70992050D01*
X148518004Y-71096707D01*
X148560861Y-71148929D01*
X148563390Y-71152010D01*
X148723350Y-71283285D01*
X148723355Y-71283287D01*
X148723357Y-71283289D01*
X148905844Y-71380831D01*
X148905846Y-71380832D01*
X149103863Y-71440899D01*
X149103866Y-71440900D01*
X149309800Y-71461183D01*
X149515734Y-71440900D01*
X149713754Y-71380832D01*
X149896250Y-71283285D01*
X150056210Y-71152010D01*
X150187485Y-70992050D01*
X150285032Y-70809554D01*
X150345100Y-70611534D01*
X150365383Y-70405600D01*
X150345100Y-70199666D01*
X150285032Y-70001646D01*
X150187485Y-69819150D01*
X150056210Y-69659190D01*
X150037213Y-69643600D01*
X150002890Y-69615431D01*
X149896250Y-69527915D01*
X149896246Y-69527913D01*
X149896242Y-69527910D01*
X149713755Y-69430368D01*
X149515736Y-69370300D01*
X149515737Y-69370300D01*
X149309800Y-69350017D01*
X149103862Y-69370300D01*
X148905844Y-69430368D01*
X148723357Y-69527910D01*
X148723347Y-69527917D01*
X148563390Y-69659189D01*
X148563389Y-69659190D01*
X148432117Y-69819147D01*
X148432110Y-69819157D01*
X148334568Y-70001644D01*
X148274500Y-70199662D01*
X148254217Y-70405600D01*
X147825383Y-70405600D01*
X147805100Y-70199666D01*
X147745032Y-70001646D01*
X147647485Y-69819150D01*
X147516210Y-69659190D01*
X147497213Y-69643600D01*
X147462890Y-69615431D01*
X147356250Y-69527915D01*
X147356246Y-69527913D01*
X147356242Y-69527910D01*
X147173755Y-69430368D01*
X146975736Y-69370300D01*
X146975737Y-69370300D01*
X146769800Y-69350017D01*
X146563862Y-69370300D01*
X146365844Y-69430368D01*
X146183357Y-69527910D01*
X146183347Y-69527917D01*
X146023390Y-69659189D01*
X146023389Y-69659190D01*
X145892117Y-69819147D01*
X145892110Y-69819157D01*
X145794568Y-70001644D01*
X145734500Y-70199662D01*
X145714217Y-70405600D01*
X145000500Y-70405600D01*
X145000500Y-67865600D01*
X145714217Y-67865600D01*
X145734500Y-68071537D01*
X145794568Y-68269555D01*
X145892110Y-68452042D01*
X145892113Y-68452046D01*
X145892115Y-68452050D01*
X146023390Y-68612010D01*
X146183350Y-68743285D01*
X146365846Y-68840832D01*
X146563863Y-68900899D01*
X146563866Y-68900900D01*
X146769800Y-68921183D01*
X146975734Y-68900900D01*
X147173754Y-68840832D01*
X147356250Y-68743285D01*
X147516210Y-68612010D01*
X147647485Y-68452050D01*
X147745032Y-68269554D01*
X147805100Y-68071534D01*
X147825383Y-67865600D01*
X147805100Y-67659666D01*
X147745032Y-67461646D01*
X147647485Y-67279150D01*
X147516210Y-67119190D01*
X147356250Y-66987915D01*
X147356246Y-66987913D01*
X147356242Y-66987910D01*
X147173755Y-66890368D01*
X146975736Y-66830300D01*
X146975737Y-66830300D01*
X146769800Y-66810017D01*
X146563862Y-66830300D01*
X146365844Y-66890368D01*
X146183357Y-66987910D01*
X146183347Y-66987917D01*
X146023390Y-67119189D01*
X146023389Y-67119190D01*
X145892117Y-67279147D01*
X145892110Y-67279157D01*
X145794568Y-67461644D01*
X145734500Y-67659662D01*
X145714217Y-67865600D01*
X145000500Y-67865600D01*
X145000500Y-65325600D01*
X145714217Y-65325600D01*
X145734500Y-65531537D01*
X145794568Y-65729555D01*
X145892110Y-65912042D01*
X145892113Y-65912046D01*
X145892115Y-65912050D01*
X146023390Y-66072010D01*
X146183350Y-66203285D01*
X146183355Y-66203287D01*
X146183357Y-66203289D01*
X146304970Y-66268293D01*
X146365846Y-66300832D01*
X146563863Y-66360899D01*
X146563866Y-66360900D01*
X146769800Y-66381183D01*
X146975734Y-66360900D01*
X147173754Y-66300832D01*
X147356250Y-66203285D01*
X147516210Y-66072010D01*
X147647485Y-65912050D01*
X147745032Y-65729554D01*
X147805100Y-65531534D01*
X147825383Y-65325600D01*
X147805100Y-65119666D01*
X147745032Y-64921646D01*
X147709618Y-64855391D01*
X147647489Y-64739157D01*
X147647487Y-64739155D01*
X147647485Y-64739150D01*
X147516210Y-64579190D01*
X147356250Y-64447915D01*
X147356246Y-64447913D01*
X147356242Y-64447910D01*
X147173755Y-64350368D01*
X146975736Y-64290300D01*
X146975737Y-64290300D01*
X146769800Y-64270017D01*
X146563862Y-64290300D01*
X146365844Y-64350368D01*
X146183357Y-64447910D01*
X146183347Y-64447917D01*
X146023390Y-64579189D01*
X146023389Y-64579190D01*
X145892117Y-64739147D01*
X145892110Y-64739157D01*
X145794568Y-64921644D01*
X145734500Y-65119662D01*
X145714217Y-65325600D01*
X145000500Y-65325600D01*
X145000500Y-62535600D01*
X145645287Y-62535600D01*
X146336788Y-62535600D01*
X146303875Y-62592607D01*
X146269800Y-62719774D01*
X146269800Y-62851426D01*
X146303875Y-62978593D01*
X146336788Y-63035600D01*
X145645288Y-63035600D01*
X145692861Y-63202803D01*
X145787864Y-63393596D01*
X145916298Y-63563668D01*
X146073799Y-63707250D01*
X146255006Y-63819448D01*
X146255009Y-63819450D01*
X146453733Y-63896436D01*
X146453751Y-63896441D01*
X146519799Y-63908786D01*
X146519800Y-63908786D01*
X146519800Y-63218612D01*
X146576807Y-63251525D01*
X146703974Y-63285600D01*
X146835626Y-63285600D01*
X146962793Y-63251525D01*
X147019800Y-63218612D01*
X147019800Y-63908786D01*
X147085848Y-63896441D01*
X147085866Y-63896436D01*
X147284590Y-63819450D01*
X147284593Y-63819448D01*
X147465800Y-63707250D01*
X147623301Y-63563668D01*
X147751735Y-63393596D01*
X147846738Y-63202803D01*
X147894312Y-63035600D01*
X147202812Y-63035600D01*
X147235725Y-62978593D01*
X147269800Y-62851426D01*
X147269800Y-62719774D01*
X147235725Y-62592607D01*
X147202812Y-62535600D01*
X147894312Y-62535600D01*
X147846738Y-62368396D01*
X147751735Y-62177603D01*
X147623301Y-62007531D01*
X147465800Y-61863949D01*
X147284593Y-61751751D01*
X147284590Y-61751749D01*
X147085865Y-61674763D01*
X147019800Y-61662412D01*
X147019800Y-62352588D01*
X146962793Y-62319675D01*
X146835626Y-62285600D01*
X146703974Y-62285600D01*
X146576807Y-62319675D01*
X146519800Y-62352588D01*
X146519800Y-61662413D01*
X146519799Y-61662412D01*
X146453734Y-61674763D01*
X146255009Y-61751749D01*
X146255006Y-61751751D01*
X146073799Y-61863949D01*
X145916298Y-62007531D01*
X145787864Y-62177603D01*
X145692861Y-62368396D01*
X145645287Y-62535600D01*
X145000500Y-62535600D01*
X145000500Y-60245600D01*
X145714217Y-60245600D01*
X145734500Y-60451537D01*
X145794568Y-60649555D01*
X145892110Y-60832042D01*
X145892113Y-60832046D01*
X145892115Y-60832050D01*
X146023390Y-60992010D01*
X146183350Y-61123285D01*
X146183355Y-61123287D01*
X146183357Y-61123289D01*
X146304970Y-61188293D01*
X146365846Y-61220832D01*
X146563863Y-61280899D01*
X146563866Y-61280900D01*
X146769800Y-61301183D01*
X146975734Y-61280900D01*
X147173754Y-61220832D01*
X147356250Y-61123285D01*
X147516210Y-60992010D01*
X147647485Y-60832050D01*
X147745032Y-60649554D01*
X147805100Y-60451534D01*
X147825383Y-60245600D01*
X147805100Y-60039666D01*
X147745032Y-59841646D01*
X147745031Y-59841644D01*
X147647489Y-59659157D01*
X147647487Y-59659155D01*
X147647485Y-59659150D01*
X147516210Y-59499190D01*
X147356250Y-59367915D01*
X147356246Y-59367913D01*
X147356242Y-59367910D01*
X147173755Y-59270368D01*
X146975736Y-59210300D01*
X146975737Y-59210300D01*
X146769800Y-59190017D01*
X146563862Y-59210300D01*
X146365844Y-59270368D01*
X146183357Y-59367910D01*
X146183347Y-59367917D01*
X146023390Y-59499189D01*
X146023389Y-59499190D01*
X145892117Y-59659147D01*
X145892110Y-59659157D01*
X145794568Y-59841644D01*
X145734500Y-60039662D01*
X145714217Y-60245600D01*
X145000500Y-60245600D01*
X145000500Y-59102595D01*
X153314134Y-59102595D01*
X153314134Y-59102604D01*
X153333156Y-59307892D01*
X153333157Y-59307896D01*
X153389579Y-59506202D01*
X153481476Y-59690758D01*
X153481480Y-59690763D01*
X153481481Y-59690765D01*
X153605730Y-59855297D01*
X153660806Y-59905505D01*
X153758096Y-59994197D01*
X153758101Y-59994201D01*
X153933385Y-60102732D01*
X153933396Y-60102738D01*
X154050625Y-60148152D01*
X154125646Y-60177215D01*
X154328312Y-60215100D01*
X154328315Y-60215100D01*
X154534485Y-60215100D01*
X154534488Y-60215100D01*
X154737154Y-60177215D01*
X154929408Y-60102736D01*
X155104703Y-59994198D01*
X155257070Y-59855297D01*
X155381319Y-59690765D01*
X155381321Y-59690759D01*
X155381323Y-59690758D01*
X155451160Y-59550505D01*
X155473220Y-59506203D01*
X155529642Y-59307897D01*
X155529642Y-59307895D01*
X155529643Y-59307892D01*
X155548666Y-59102604D01*
X155548666Y-59102595D01*
X155529643Y-58897307D01*
X155529642Y-58897303D01*
X155473220Y-58698997D01*
X155381323Y-58514441D01*
X155381320Y-58514437D01*
X155381319Y-58514435D01*
X155257070Y-58349903D01*
X155104703Y-58211002D01*
X155104698Y-58210998D01*
X154929414Y-58102467D01*
X154929403Y-58102461D01*
X154737160Y-58027987D01*
X154737156Y-58027986D01*
X154737154Y-58027985D01*
X154696620Y-58020408D01*
X154534492Y-57990100D01*
X154534488Y-57990100D01*
X154328312Y-57990100D01*
X154328307Y-57990100D01*
X154125646Y-58027985D01*
X154125639Y-58027987D01*
X153933396Y-58102461D01*
X153933385Y-58102467D01*
X153758101Y-58210998D01*
X153758096Y-58211002D01*
X153605730Y-58349903D01*
X153481476Y-58514441D01*
X153389579Y-58698997D01*
X153333157Y-58897303D01*
X153333156Y-58897307D01*
X153314134Y-59102595D01*
X145000500Y-59102595D01*
X145000500Y-57705600D01*
X145714217Y-57705600D01*
X145734500Y-57911537D01*
X145794568Y-58109555D01*
X145892110Y-58292042D01*
X145892113Y-58292046D01*
X145892115Y-58292050D01*
X146023390Y-58452010D01*
X146183350Y-58583285D01*
X146365846Y-58680832D01*
X146563863Y-58740899D01*
X146563866Y-58740900D01*
X146769800Y-58761183D01*
X146975734Y-58740900D01*
X147173754Y-58680832D01*
X147356250Y-58583285D01*
X147516210Y-58452010D01*
X147647485Y-58292050D01*
X147745032Y-58109554D01*
X147805100Y-57911534D01*
X147825383Y-57705600D01*
X147805100Y-57499666D01*
X147745032Y-57301646D01*
X147647485Y-57119150D01*
X147516210Y-56959190D01*
X147365920Y-56835851D01*
X148259300Y-56835851D01*
X148259300Y-58575348D01*
X148270932Y-58633830D01*
X148270933Y-58633831D01*
X148315248Y-58700152D01*
X148381569Y-58744467D01*
X148440052Y-58756100D01*
X150179548Y-58756100D01*
X150238031Y-58744467D01*
X150304352Y-58700152D01*
X150348667Y-58633831D01*
X150360300Y-58575348D01*
X150360300Y-56835852D01*
X150348667Y-56777369D01*
X150304352Y-56711048D01*
X150260036Y-56681436D01*
X150238030Y-56666732D01*
X150179548Y-56655100D01*
X148440052Y-56655100D01*
X148381569Y-56666732D01*
X148315248Y-56711048D01*
X148270932Y-56777369D01*
X148259300Y-56835851D01*
X147365920Y-56835851D01*
X147356250Y-56827915D01*
X147356246Y-56827913D01*
X147356242Y-56827910D01*
X147173755Y-56730368D01*
X146975736Y-56670300D01*
X146975737Y-56670300D01*
X146769800Y-56650017D01*
X146563862Y-56670300D01*
X146365844Y-56730368D01*
X146183357Y-56827910D01*
X146183347Y-56827917D01*
X146023390Y-56959189D01*
X146023389Y-56959190D01*
X145892117Y-57119147D01*
X145892110Y-57119157D01*
X145794568Y-57301644D01*
X145734500Y-57499662D01*
X145714217Y-57705600D01*
X145000500Y-57705600D01*
X145000500Y-52700870D01*
X146354300Y-52700870D01*
X146354300Y-52956730D01*
X146384173Y-53145335D01*
X146394327Y-53209445D01*
X146473390Y-53452777D01*
X146542537Y-53588484D01*
X146589548Y-53680747D01*
X146739938Y-53887742D01*
X146920858Y-54068662D01*
X147127853Y-54219052D01*
X147275994Y-54294534D01*
X147355822Y-54335209D01*
X147599155Y-54414272D01*
X147599161Y-54414274D01*
X147851870Y-54454300D01*
X147851875Y-54454300D01*
X148107725Y-54454300D01*
X148107730Y-54454300D01*
X148360439Y-54414274D01*
X148603775Y-54335210D01*
X148831747Y-54219052D01*
X149038742Y-54068662D01*
X149219662Y-53887742D01*
X149370052Y-53680747D01*
X149486210Y-53452775D01*
X149565274Y-53209439D01*
X149605300Y-52956730D01*
X149605300Y-52700870D01*
X149565274Y-52448161D01*
X149523125Y-52318440D01*
X149486209Y-52204822D01*
X149403302Y-52042110D01*
X149370052Y-51976853D01*
X149368148Y-51974233D01*
X149274438Y-51845251D01*
X149219662Y-51769858D01*
X149038742Y-51588938D01*
X148831747Y-51438548D01*
X148757676Y-51400806D01*
X148603777Y-51322390D01*
X148360444Y-51243327D01*
X148360445Y-51243327D01*
X148360439Y-51243326D01*
X148107730Y-51203300D01*
X147851870Y-51203300D01*
X147629658Y-51238495D01*
X147599154Y-51243327D01*
X147355822Y-51322390D01*
X147127851Y-51438549D01*
X147127850Y-51438549D01*
X146920859Y-51588937D01*
X146920856Y-51588939D01*
X146739939Y-51769856D01*
X146739937Y-51769859D01*
X146589549Y-51976850D01*
X146589549Y-51976851D01*
X146473390Y-52204822D01*
X146394327Y-52448154D01*
X146394326Y-52448161D01*
X146354300Y-52700870D01*
X145000500Y-52700870D01*
X145000500Y-52504499D01*
X145000772Y-52495503D01*
X145018180Y-52207699D01*
X145020346Y-52189867D01*
X145071507Y-51910688D01*
X145075812Y-51893225D01*
X145076177Y-51892055D01*
X145160247Y-51622263D01*
X145166620Y-51605459D01*
X145283110Y-51346628D01*
X145291463Y-51330714D01*
X145438293Y-51087827D01*
X145448503Y-51073036D01*
X145623543Y-50849613D01*
X145635459Y-50836162D01*
X145836162Y-50635459D01*
X145849613Y-50623543D01*
X146073036Y-50448503D01*
X146087827Y-50438293D01*
X146330714Y-50291463D01*
X146346628Y-50283110D01*
X146605459Y-50166620D01*
X146622263Y-50160247D01*
X146893231Y-50075810D01*
X146910688Y-50071507D01*
X147189867Y-50020346D01*
X147207699Y-50018180D01*
X147495503Y-50000771D01*
X147504499Y-50000500D01*
X147565892Y-50000500D01*
X171434108Y-50000500D01*
X171495501Y-50000500D01*
X171504496Y-50000771D01*
G37*
%TD.AperFunction*%
%TD*%
%TA.AperFunction,Conductor*%
%TO.N,~{CS}*%
G36*
X147832239Y-84305074D02*
G01*
X147835929Y-84307566D01*
X148107833Y-84579470D01*
X148111260Y-84587743D01*
X148110413Y-84592114D01*
X147559507Y-85959932D01*
X147553237Y-85966326D01*
X147544283Y-85966414D01*
X147544188Y-85966375D01*
X146773585Y-85648162D01*
X146767247Y-85641838D01*
X146449024Y-84871211D01*
X146449033Y-84862256D01*
X146455372Y-84855931D01*
X146455395Y-84855921D01*
X147823286Y-84304986D01*
X147832239Y-84305074D01*
G37*
%TD.AperFunction*%
%TD*%
%TA.AperFunction,Conductor*%
%TO.N,ADC1*%
G36*
X165183920Y-84962922D02*
G01*
X165908412Y-85262037D01*
X165914751Y-85268362D01*
X165914762Y-85268387D01*
X166213877Y-85992879D01*
X166213866Y-86001834D01*
X166207527Y-86008159D01*
X166207517Y-86008163D01*
X164929463Y-86534421D01*
X164920508Y-86534402D01*
X164916735Y-86531875D01*
X164644924Y-86260064D01*
X164641497Y-86251791D01*
X164642377Y-86247340D01*
X165168637Y-84969280D01*
X165174955Y-84962937D01*
X165183910Y-84962918D01*
X165183920Y-84962922D01*
G37*
%TD.AperFunction*%
%TD*%
%TA.AperFunction,Conductor*%
%TO.N,SDA*%
G36*
X150093143Y-59924833D02*
G01*
X150099468Y-59931172D01*
X150099507Y-59931267D01*
X150650413Y-61299085D01*
X150650325Y-61308039D01*
X150647833Y-61311729D01*
X150375929Y-61583633D01*
X150367656Y-61587060D01*
X150363285Y-61586213D01*
X148995467Y-61035307D01*
X148989073Y-61029037D01*
X148988985Y-61020083D01*
X148989024Y-61019988D01*
X149307238Y-60249383D01*
X149313559Y-60243048D01*
X150084188Y-59924824D01*
X150093143Y-59924833D01*
G37*
%TD.AperFunction*%
%TD*%
%TA.AperFunction,Conductor*%
%TO.N,MOSI*%
G36*
X152336231Y-82025115D02*
G01*
X152341178Y-82030759D01*
X152641106Y-82753872D01*
X152641111Y-82762827D01*
X152638562Y-82766638D01*
X152084755Y-83319062D01*
X152076477Y-83322479D01*
X152069649Y-83320269D01*
X152067975Y-83319062D01*
X151048211Y-82583744D01*
X151043506Y-82576127D01*
X151045565Y-82567412D01*
X151046776Y-82565988D01*
X151317685Y-82295079D01*
X151322936Y-82292051D01*
X152327354Y-82023938D01*
X152336231Y-82025115D01*
G37*
%TD.AperFunction*%
%TD*%
%TA.AperFunction,Conductor*%
%TO.N,SCL*%
G36*
X150093143Y-62464833D02*
G01*
X150099468Y-62471172D01*
X150099507Y-62471267D01*
X150650413Y-63839085D01*
X150650325Y-63848039D01*
X150647833Y-63851729D01*
X150375929Y-64123633D01*
X150367656Y-64127060D01*
X150363285Y-64126213D01*
X148995467Y-63575307D01*
X148989073Y-63569037D01*
X148988985Y-63560083D01*
X148989024Y-63559988D01*
X149307238Y-62789383D01*
X149313559Y-62783048D01*
X150084188Y-62464824D01*
X150093143Y-62464833D01*
G37*
%TD.AperFunction*%
%TD*%
%TA.AperFunction,Conductor*%
%TO.N,ADC1*%
G36*
X160579414Y-92188039D02*
G01*
X160581357Y-92189071D01*
X161879831Y-93043886D01*
X161884857Y-93051297D01*
X161883170Y-93060091D01*
X161881671Y-93061931D01*
X161611015Y-93332587D01*
X161606232Y-93335481D01*
X160579749Y-93656315D01*
X160570831Y-93655513D01*
X160565452Y-93649631D01*
X160433950Y-93332587D01*
X160264553Y-92924179D01*
X160264549Y-92915226D01*
X160564121Y-92194351D01*
X160570459Y-92188028D01*
X160579414Y-92188039D01*
G37*
%TD.AperFunction*%
%TD*%
%TA.AperFunction,Conductor*%
%TO.N,ADC1*%
G36*
X170116459Y-103679777D02*
G01*
X171394518Y-104206036D01*
X171400862Y-104212355D01*
X171400881Y-104221310D01*
X171400877Y-104221320D01*
X171101762Y-104945812D01*
X171095437Y-104952151D01*
X171095412Y-104952162D01*
X170370920Y-105251277D01*
X170361965Y-105251266D01*
X170355641Y-105244928D01*
X169829378Y-103966861D01*
X169829397Y-103957908D01*
X169831921Y-103954138D01*
X170103736Y-103682323D01*
X170112008Y-103678897D01*
X170116459Y-103679777D01*
G37*
%TD.AperFunction*%
%TD*%
%TA.AperFunction,Conductor*%
%TO.N,SDA*%
G36*
X158365158Y-53088197D02*
G01*
X159057806Y-53674497D01*
X159061907Y-53682456D01*
X159061041Y-53687941D01*
X158560606Y-54884282D01*
X158554252Y-54890592D01*
X158549812Y-54891467D01*
X158165388Y-54891467D01*
X158157115Y-54888040D01*
X158154594Y-54884282D01*
X157654158Y-53687941D01*
X157654127Y-53678986D01*
X157657390Y-53674499D01*
X158350041Y-53088197D01*
X158358570Y-53085468D01*
X158365158Y-53088197D01*
G37*
%TD.AperFunction*%
%TD*%
%TA.AperFunction,Conductor*%
%TO.N,DQ*%
G36*
X170882546Y-96507608D02*
G01*
X172267449Y-97061383D01*
X172273858Y-97067637D01*
X172274156Y-97076090D01*
X171989972Y-97893390D01*
X171984018Y-97900078D01*
X171980906Y-97901077D01*
X171038168Y-98063334D01*
X171029433Y-98061361D01*
X171025111Y-98055584D01*
X170594899Y-96794486D01*
X170595471Y-96785549D01*
X170597696Y-96782438D01*
X170869935Y-96510199D01*
X170878207Y-96506773D01*
X170882546Y-96507608D01*
G37*
%TD.AperFunction*%
%TD*%
%TA.AperFunction,Conductor*%
%TO.N,DQ*%
G36*
X170882546Y-84803074D02*
G01*
X172267449Y-85356849D01*
X172273858Y-85363103D01*
X172274156Y-85371556D01*
X171989972Y-86188856D01*
X171984018Y-86195544D01*
X171980906Y-86196543D01*
X171038168Y-86358800D01*
X171029433Y-86356827D01*
X171025111Y-86351050D01*
X170594899Y-85089952D01*
X170595471Y-85081015D01*
X170597696Y-85077904D01*
X170869935Y-84805665D01*
X170878207Y-84802239D01*
X170882546Y-84803074D01*
G37*
%TD.AperFunction*%
%TD*%
%TA.AperFunction,Conductor*%
%TO.N,DQ*%
G36*
X171980907Y-62783722D02*
G01*
X171988478Y-62788502D01*
X171989972Y-62791409D01*
X172274156Y-63608709D01*
X172273636Y-63617649D01*
X172267449Y-63623416D01*
X170882551Y-64177190D01*
X170873597Y-64177079D01*
X170869934Y-64174599D01*
X170597699Y-63902364D01*
X170594272Y-63894091D01*
X170594899Y-63890313D01*
X171025112Y-62629214D01*
X171031024Y-62622494D01*
X171038165Y-62621465D01*
X171980907Y-62783722D01*
G37*
%TD.AperFunction*%
%TD*%
%TA.AperFunction,Conductor*%
%TO.N,SDA*%
G36*
X154138439Y-63482648D02*
G01*
X154143938Y-63488592D01*
X154430245Y-64178819D01*
X154430250Y-64187774D01*
X154430242Y-64187793D01*
X154145111Y-64873804D01*
X154138771Y-64880128D01*
X154129816Y-64880117D01*
X154128072Y-64879213D01*
X152877788Y-64091839D01*
X152872614Y-64084531D01*
X152874123Y-64075704D01*
X152875746Y-64073670D01*
X153146246Y-63803170D01*
X153150895Y-63800319D01*
X154129512Y-63481949D01*
X154138439Y-63482648D01*
G37*
%TD.AperFunction*%
%TD*%
%TA.AperFunction,Conductor*%
%TO.N,MOSI*%
G36*
X150093143Y-80244833D02*
G01*
X150099468Y-80251172D01*
X150099507Y-80251267D01*
X150650413Y-81619085D01*
X150650325Y-81628039D01*
X150647833Y-81631729D01*
X150375929Y-81903633D01*
X150367656Y-81907060D01*
X150363285Y-81906213D01*
X148995467Y-81355307D01*
X148989073Y-81349037D01*
X148988985Y-81340083D01*
X148989024Y-81339988D01*
X149307238Y-80569383D01*
X149313559Y-80563048D01*
X150084188Y-80244824D01*
X150093143Y-80244833D01*
G37*
%TD.AperFunction*%
%TD*%
%TA.AperFunction,Conductor*%
%TO.N,DQ*%
G36*
X166051346Y-96696596D02*
G01*
X166051356Y-96696600D01*
X167327200Y-97228200D01*
X167333519Y-97234545D01*
X167334400Y-97239000D01*
X167334400Y-97623399D01*
X167330973Y-97631672D01*
X167327200Y-97634199D01*
X166051356Y-98165799D01*
X166042401Y-98165818D01*
X166036057Y-98159500D01*
X165735264Y-97435687D01*
X165735254Y-97426738D01*
X166036053Y-96702908D01*
X166042391Y-96696585D01*
X166051346Y-96696596D01*
G37*
%TD.AperFunction*%
%TD*%
%TA.AperFunction,Conductor*%
%TO.N,MISO*%
G36*
X152336231Y-84565115D02*
G01*
X152341178Y-84570759D01*
X152641106Y-85293872D01*
X152641111Y-85302827D01*
X152638562Y-85306638D01*
X152084755Y-85859062D01*
X152076477Y-85862479D01*
X152069649Y-85860269D01*
X152067975Y-85859062D01*
X151048211Y-85123744D01*
X151043506Y-85116127D01*
X151045565Y-85107412D01*
X151046776Y-85105988D01*
X151317685Y-84835079D01*
X151322936Y-84832051D01*
X152327354Y-84563938D01*
X152336231Y-84565115D01*
G37*
%TD.AperFunction*%
%TD*%
%TA.AperFunction,Conductor*%
%TO.N,DQ*%
G36*
X170882546Y-73078008D02*
G01*
X172267449Y-73631783D01*
X172273858Y-73638037D01*
X172274156Y-73646490D01*
X171989972Y-74463790D01*
X171984018Y-74470478D01*
X171980906Y-74471477D01*
X171038168Y-74633734D01*
X171029433Y-74631761D01*
X171025111Y-74625984D01*
X170594899Y-73364886D01*
X170595471Y-73355949D01*
X170597696Y-73352838D01*
X170869935Y-73080599D01*
X170878207Y-73077173D01*
X170882546Y-73078008D01*
G37*
%TD.AperFunction*%
%TD*%
%TA.AperFunction,Conductor*%
%TO.N,ADC0*%
G36*
X160271668Y-95467678D02*
G01*
X160271678Y-95467688D01*
X161056233Y-96253224D01*
X161059655Y-96261499D01*
X161057315Y-96268512D01*
X160466910Y-97055720D01*
X160459205Y-97060282D01*
X160457550Y-97060400D01*
X160069250Y-97060400D01*
X160060977Y-97056973D01*
X160059890Y-97055720D01*
X159469484Y-96268512D01*
X159467262Y-96259837D01*
X159470564Y-96253226D01*
X160255122Y-95467687D01*
X160263393Y-95464256D01*
X160271668Y-95467678D01*
G37*
%TD.AperFunction*%
%TD*%
%TA.AperFunction,Conductor*%
%TO.N,ADC0*%
G36*
X161504485Y-100782160D02*
G01*
X161507006Y-100785918D01*
X162007441Y-101982258D01*
X162007472Y-101991213D01*
X162004206Y-101995703D01*
X161311559Y-102582001D01*
X161303030Y-102584731D01*
X161296441Y-102582001D01*
X160901289Y-102247521D01*
X160603792Y-101995702D01*
X160599692Y-101987743D01*
X160600557Y-101982260D01*
X161100994Y-100785917D01*
X161107348Y-100779608D01*
X161111788Y-100778733D01*
X161496212Y-100778733D01*
X161504485Y-100782160D01*
G37*
%TD.AperFunction*%
%TD*%
%TA.AperFunction,Conductor*%
%TO.N,ADC1*%
G36*
X170370920Y-104647922D02*
G01*
X171095412Y-104947037D01*
X171101751Y-104953362D01*
X171101762Y-104953387D01*
X171400877Y-105677879D01*
X171400866Y-105686834D01*
X171394527Y-105693159D01*
X171394517Y-105693163D01*
X170116463Y-106219421D01*
X170107508Y-106219402D01*
X170103735Y-106216875D01*
X169831924Y-105945064D01*
X169828497Y-105936791D01*
X169829377Y-105932340D01*
X170355637Y-104654280D01*
X170361955Y-104647937D01*
X170370910Y-104647918D01*
X170370920Y-104647922D01*
G37*
%TD.AperFunction*%
%TD*%
D24*
X174500000Y-52500000D02*
X174500000Y-111500000D01*
X171500000Y-114500000D02*
X147500000Y-114500000D01*
X144500000Y-111500000D02*
X144500000Y-52500000D01*
X144500000Y-52500000D02*
G75*
G02*
X147500000Y-49500000I3000000J0D01*
G01*
X171500000Y-49500000D02*
G75*
G02*
X174500000Y-52500000I0J-3000000D01*
G01*
X174500000Y-111500000D02*
G75*
G02*
X171500000Y-114500000I-3000000J0D01*
G01*
X147500000Y-114500000D02*
G75*
G02*
X144500000Y-111500000I0J3000000D01*
G01*
X147500000Y-49500000D02*
X171500000Y-49500000D01*
M02*
