%TF.GenerationSoftware,KiCad,Pcbnew,8.0.8*%
%TF.CreationDate,2025-02-21T13:51:55-05:00*%
%TF.ProjectId,TPI_v1,5450495f-7631-42e6-9b69-6361645f7063,rev?*%
%TF.SameCoordinates,Original*%
%TF.FileFunction,Soldermask,Top*%
%TF.FilePolarity,Negative*%
%FSLAX46Y46*%
G04 Gerber Fmt 4.6, Leading zero omitted, Abs format (unit mm)*
G04 Created by KiCad (PCBNEW 8.0.8) date 2025-02-21 13:51:55*
%MOMM*%
%LPD*%
G01*
G04 APERTURE LIST*
G04 Aperture macros list*
%AMRoundRect*
0 Rectangle with rounded corners*
0 $1 Rounding radius*
0 $2 $3 $4 $5 $6 $7 $8 $9 X,Y pos of 4 corners*
0 Add a 4 corners polygon primitive as box body*
4,1,4,$2,$3,$4,$5,$6,$7,$8,$9,$2,$3,0*
0 Add four circle primitives for the rounded corners*
1,1,$1+$1,$2,$3*
1,1,$1+$1,$4,$5*
1,1,$1+$1,$6,$7*
1,1,$1+$1,$8,$9*
0 Add four rect primitives between the rounded corners*
20,1,$1+$1,$2,$3,$4,$5,0*
20,1,$1+$1,$4,$5,$6,$7,0*
20,1,$1+$1,$6,$7,$8,$9,0*
20,1,$1+$1,$8,$9,$2,$3,0*%
G04 Aperture macros list end*
%ADD10C,0.000000*%
%ADD11R,1.700000X1.700000*%
%ADD12O,1.700000X1.700000*%
%ADD13R,1.600000X1.600000*%
%ADD14O,1.600000X1.600000*%
%ADD15RoundRect,0.250000X-0.600000X-0.725000X0.600000X-0.725000X0.600000X0.725000X-0.600000X0.725000X0*%
%ADD16O,1.700000X1.950000*%
%ADD17RoundRect,0.250000X-0.725000X0.600000X-0.725000X-0.600000X0.725000X-0.600000X0.725000X0.600000X0*%
%ADD18O,1.950000X1.700000*%
%ADD19C,1.600000*%
%ADD20C,6.000000*%
%ADD21C,1.524000*%
%ADD22RoundRect,0.250000X0.600000X0.750000X-0.600000X0.750000X-0.600000X-0.750000X0.600000X-0.750000X0*%
%ADD23O,1.700000X2.000000*%
%ADD24RoundRect,0.250000X0.600000X0.725000X-0.600000X0.725000X-0.600000X-0.725000X0.600000X-0.725000X0*%
%TA.AperFunction,Profile*%
%ADD25C,0.200000*%
%TD*%
G04 APERTURE END LIST*
D10*
%TO.C,G\u002A\u002A\u002A*%
G36*
X165392056Y-106438816D02*
G01*
X165392056Y-106731424D01*
X164969399Y-106731424D01*
X164546745Y-106731424D01*
X164546745Y-106438816D01*
X164546745Y-106146208D01*
X164969399Y-106146208D01*
X165392056Y-106146208D01*
X165392056Y-106438816D01*
G37*
G36*
X165392056Y-108265988D02*
G01*
X165392056Y-109514449D01*
X164969399Y-109514449D01*
X164546745Y-109514449D01*
X164546745Y-108265988D01*
X164546745Y-107017529D01*
X164969399Y-107017529D01*
X165392056Y-107017529D01*
X165392056Y-108265988D01*
G37*
G36*
X161223085Y-106145702D02*
G01*
X161425087Y-106145889D01*
X161624739Y-106146196D01*
X161820372Y-106146624D01*
X162010320Y-106147173D01*
X162192911Y-106147840D01*
X162366482Y-106148627D01*
X162529361Y-106149533D01*
X162679881Y-106150559D01*
X162816375Y-106151703D01*
X162937173Y-106152965D01*
X163040607Y-106154345D01*
X163125010Y-106155843D01*
X163188713Y-106157457D01*
X163230047Y-106159190D01*
X163242322Y-106160154D01*
X163430617Y-106190985D01*
X163601743Y-106239332D01*
X163755033Y-106304772D01*
X163889819Y-106386882D01*
X164005433Y-106485237D01*
X164101207Y-106599411D01*
X164176473Y-106728980D01*
X164192095Y-106763936D01*
X164231114Y-106885079D01*
X164253667Y-107020138D01*
X164260012Y-107163101D01*
X164250400Y-107307959D01*
X164225089Y-107448701D01*
X164184329Y-107579319D01*
X164154739Y-107646034D01*
X164067578Y-107791295D01*
X163959475Y-107921406D01*
X163830970Y-108035882D01*
X163682603Y-108134233D01*
X163529821Y-108209720D01*
X163444627Y-108241982D01*
X163345708Y-108273079D01*
X163242045Y-108300654D01*
X163142612Y-108322352D01*
X163056388Y-108335818D01*
X163044691Y-108337026D01*
X162992956Y-108342378D01*
X162946833Y-108347977D01*
X162917894Y-108352344D01*
X162882129Y-108359088D01*
X162882129Y-108060636D01*
X162882129Y-107762187D01*
X162963410Y-107746457D01*
X163080206Y-107713372D01*
X163178224Y-107663168D01*
X163256879Y-107596289D01*
X163315582Y-107513175D01*
X163337319Y-107465537D01*
X163358433Y-107386365D01*
X163368338Y-107293917D01*
X163367015Y-107198036D01*
X163354445Y-107108558D01*
X163338133Y-107052873D01*
X163289859Y-106957094D01*
X163225048Y-106878420D01*
X163142666Y-106816264D01*
X163041677Y-106770038D01*
X162921047Y-106739152D01*
X162779745Y-106723023D01*
X162755332Y-106721781D01*
X162596025Y-106714907D01*
X162596025Y-108114676D01*
X162596025Y-109514449D01*
X162160366Y-109514449D01*
X161724706Y-109514449D01*
X161724706Y-108161949D01*
X161724706Y-106809453D01*
X161584903Y-106809423D01*
X161529479Y-106809024D01*
X161454267Y-106807928D01*
X161365477Y-106806252D01*
X161269320Y-106804121D01*
X161172004Y-106801653D01*
X161142801Y-106800845D01*
X160840500Y-106792298D01*
X160837188Y-108150120D01*
X160833876Y-109507946D01*
X160401466Y-109511372D01*
X159969058Y-109514799D01*
X159969058Y-108154381D01*
X159969058Y-106793964D01*
X159455367Y-106803522D01*
X159313393Y-106805918D01*
X159196239Y-106807332D01*
X159102732Y-106807760D01*
X159031701Y-106807187D01*
X158981974Y-106805606D01*
X158952379Y-106803005D01*
X158941745Y-106799375D01*
X158941678Y-106799010D01*
X158943521Y-106782657D01*
X158948694Y-106744332D01*
X158956665Y-106687782D01*
X158966899Y-106616754D01*
X158978868Y-106534998D01*
X158987194Y-106478744D01*
X158999988Y-106392149D01*
X159011391Y-106313943D01*
X159020872Y-106247859D01*
X159027899Y-106197629D01*
X159031939Y-106166991D01*
X159032712Y-106159379D01*
X159045438Y-106157592D01*
X159082505Y-106155932D01*
X159142247Y-106154397D01*
X159222991Y-106152987D01*
X159323074Y-106151702D01*
X159440825Y-106150540D01*
X159574575Y-106149503D01*
X159722657Y-106148590D01*
X159883403Y-106147799D01*
X160055146Y-106147133D01*
X160236214Y-106146590D01*
X160424943Y-106146168D01*
X160619662Y-106145868D01*
X160818705Y-106145692D01*
X161020402Y-106145637D01*
X161223085Y-106145702D01*
G37*
%TD*%
D11*
%TO.C,J1*%
X149309800Y-57705600D03*
D12*
X146769800Y-57705600D03*
X149309800Y-60245600D03*
X146769800Y-60245600D03*
X149309800Y-62785600D03*
X146769800Y-62785600D03*
X149309800Y-65325600D03*
X146769800Y-65325600D03*
X149309800Y-67865600D03*
X146769800Y-67865600D03*
X149309800Y-70405600D03*
X146769800Y-70405600D03*
X149309800Y-72945600D03*
X146769800Y-72945600D03*
X149309800Y-75485600D03*
X146769800Y-75485600D03*
X149309800Y-78025600D03*
X146769800Y-78025600D03*
X149309800Y-80565600D03*
X146769800Y-80565600D03*
X149309800Y-83105600D03*
X146769800Y-83105600D03*
X149309800Y-85645600D03*
X146769800Y-85645600D03*
X149309800Y-88185600D03*
X146769800Y-88185600D03*
X149309800Y-90725600D03*
X146769800Y-90725600D03*
X149309800Y-93265600D03*
X146769800Y-93265600D03*
X149309800Y-95805600D03*
X146769800Y-95805600D03*
X149309800Y-98345600D03*
X146769800Y-98345600D03*
X149309800Y-100885600D03*
X146769800Y-100885600D03*
X149309800Y-103425600D03*
X146769800Y-103425600D03*
X149309800Y-105965600D03*
X146769800Y-105965600D03*
%TD*%
D13*
%TO.C,U3*%
X160263400Y-95460400D03*
D14*
X160263400Y-92920400D03*
X160263400Y-90380400D03*
X160263400Y-87840400D03*
X160263400Y-85300400D03*
X160263400Y-82760400D03*
X160263400Y-80220400D03*
X160263400Y-77680400D03*
X152643400Y-77680400D03*
X152643400Y-80220400D03*
X152643400Y-82760400D03*
X152643400Y-85300400D03*
X152643400Y-87840400D03*
X152643400Y-90380400D03*
X152643400Y-92920400D03*
X152643400Y-95460400D03*
%TD*%
D15*
%TO.C,J2*%
X155857600Y-53082800D03*
D16*
X158357600Y-53082800D03*
X160857600Y-53082800D03*
X163357600Y-53082800D03*
%TD*%
D17*
%TO.C,U6*%
X171987000Y-95399200D03*
D18*
X171987000Y-97899200D03*
X171987000Y-100399200D03*
%TD*%
D19*
%TO.C,R2*%
X165912200Y-77644600D03*
D14*
X165912200Y-85264600D03*
%TD*%
D20*
%TO.C,*%
X170966800Y-110842400D03*
%TD*%
D17*
%TO.C,U5*%
X171987000Y-60285600D03*
D18*
X171987000Y-62785600D03*
X171987000Y-65285600D03*
%TD*%
D20*
%TO.C,*%
X147979800Y-110842400D03*
%TD*%
%TO.C,*%
X170966800Y-52828800D03*
%TD*%
D17*
%TO.C,U2*%
X171987000Y-83694666D03*
D18*
X171987000Y-86194666D03*
X171987000Y-88694666D03*
%TD*%
D21*
%TO.C,U1*%
X154431400Y-74342600D03*
X154431400Y-71802600D03*
X154431400Y-69262600D03*
X154431400Y-66722600D03*
X154431400Y-64182600D03*
X154431400Y-61642600D03*
X154431400Y-59102600D03*
X164571400Y-71802600D03*
X164571400Y-69262600D03*
X164571400Y-66722600D03*
X164571400Y-64182600D03*
X164571400Y-61642600D03*
%TD*%
D22*
%TO.C,J3*%
X164094200Y-112442600D03*
D23*
X161594200Y-112442600D03*
%TD*%
D19*
%TO.C,C1*%
X171099200Y-104949600D03*
X168599200Y-104949600D03*
%TD*%
D24*
%TO.C,J4*%
X163804000Y-102587400D03*
D16*
X161304000Y-102587400D03*
X158804000Y-102587400D03*
%TD*%
D11*
%TO.C,J5*%
X152735000Y-112137400D03*
D12*
X155275000Y-112137400D03*
%TD*%
D20*
%TO.C,*%
X147979800Y-52828800D03*
%TD*%
D17*
%TO.C,U4*%
X171987000Y-71969600D03*
D18*
X171987000Y-74469600D03*
X171987000Y-76969600D03*
%TD*%
D19*
%TO.C,R1*%
X165734400Y-89811200D03*
D14*
X165734400Y-97431200D03*
%TD*%
D25*
X174500000Y-52500000D02*
X174500000Y-111500000D01*
X171500000Y-114500000D02*
X147500000Y-114500000D01*
X144500000Y-111500000D02*
X144500000Y-52500000D01*
X144500000Y-52500000D02*
G75*
G02*
X147500000Y-49500000I3000000J0D01*
G01*
X171500000Y-49500000D02*
G75*
G02*
X174500000Y-52500000I0J-3000000D01*
G01*
X174500000Y-111500000D02*
G75*
G02*
X171500000Y-114500000I-3000000J0D01*
G01*
X147500000Y-114500000D02*
G75*
G02*
X144500000Y-111500000I0J3000000D01*
G01*
X147500000Y-49500000D02*
X171500000Y-49500000D01*
M02*
