<svg width="73" height="83" viewBox="0 0 73 83" fill="none" xmlns="http://www.w3.org/2000/svg">
<path fill-rule="evenodd" clip-rule="evenodd" d="M32.2313 2.62294C30.1415 3.88195 22.1321 8.54181 14.4321 12.9772L0.433105 21.0413L0.798561 61.6819L36.3286 82.1048L71.954 61.6572L72.3194 21.018L54.561 10.8278C44.794 5.22334 36.6291 0.568976 36.4163 0.485225C36.2043 0.402161 34.3211 1.36392 32.2313 2.62294ZM49.8861 17.6007L63.3186 25.2962V56.4529L50.711 63.6844C43.7771 67.6619 37.6094 71.1039 37.0056 71.3332C36.3231 71.5934 30.9097 68.8666 22.6709 64.1127C9.56172 56.549 9.43393 56.4523 9.43393 54.1278C9.43393 52.8372 9.59834 51.7807 9.79937 51.7807C10.0004 51.7807 16.0624 55.1678 23.2705 59.308L36.3763 66.8353V56.7131L22.9051 48.9648C9.55897 41.2885 9.43393 41.1944 9.43393 38.8734C9.43393 35.9435 8.69059 35.6628 23.6678 44.2514C30.2313 48.0147 35.7891 51.0942 36.0191 51.0942C36.2485 51.0942 36.3452 48.8687 36.2339 46.1488L36.0309 41.2027L22.7448 33.6205C15.4372 29.4494 9.45327 25.8337 9.44637 25.5845C9.436 25.2076 35.586 9.90517 36.2402 9.90517C36.3576 9.90517 42.4977 13.3685 49.8861 17.6007Z" fill="#E8E8E8"/>
</svg>
